M48
; DRILL file {KiCad (5.1.9-0-10_14)} date Saturday, July 10, 2021 at 08:43:32 PM
; FORMAT={-:-/ absolute / metric / decimal}
; #@! TF.CreationDate,2021-07-10T20:43:32+09:00
; #@! TF.GenerationSoftware,Kicad,Pcbnew,(5.1.9-0-10_14)
FMAT,2
METRIC
T1C0.305
T2C0.900
T3C0.600
%
G90
G05
T1
X-12.5Y-7.5
X-12.5Y-32.5
X-10.6Y2.0
X-10.0Y-20.0
X-8.0Y-7.5
X-8.0Y-32.5
X-5.5Y-20.0
X0.0Y-10.0
X0.0Y-30.0
X1.8Y2.8
X2.5Y-25.0
X3.7Y-12.5
X4.5Y-30.0
X8.0Y-33.5
X10.0Y-20.0
X12.0Y5.0
X12.5Y-7.5
X12.5Y-15.0
X12.5Y-32.5
X13.5Y-12.0
X13.5Y-23.0
T2
X-8.89Y0.0
X-6.35Y0.0
X-3.81Y0.0
X-1.27Y0.0
X1.27Y0.0
X3.81Y0.0
X6.35Y0.0
X8.89Y0.0
T3
X-12.5Y-4.0
X-12.5Y-29.0
X-10.0Y-16.5
X0.0Y-6.5
X0.0Y-26.5
X10.0Y-16.5
X12.5Y-4.0
X12.5Y-29.0
T0
M30
