G04 #@! TF.GenerationSoftware,KiCad,Pcbnew,(5.1.10-1-10_14)*
G04 #@! TF.CreationDate,2021-08-08T19:45:07+09:00*
G04 #@! TF.ProjectId,TouchController,546f7563-6843-46f6-9e74-726f6c6c6572,V1.1*
G04 #@! TF.SameCoordinates,Original*
G04 #@! TF.FileFunction,Copper,L1,Top*
G04 #@! TF.FilePolarity,Positive*
%FSLAX46Y46*%
G04 Gerber Fmt 4.6, Leading zero omitted, Abs format (unit mm)*
G04 Created by KiCad (PCBNEW (5.1.10-1-10_14)) date 2021-08-08 19:45:07*
%MOMM*%
%LPD*%
G01*
G04 APERTURE LIST*
G04 #@! TA.AperFunction,ComponentPad*
%ADD10R,1.500000X1.500000*%
G04 #@! TD*
G04 #@! TA.AperFunction,ComponentPad*
%ADD11O,1.500000X1.500000*%
G04 #@! TD*
G04 #@! TA.AperFunction,SMDPad,CuDef*
%ADD12R,1.800000X1.900000*%
G04 #@! TD*
G04 #@! TA.AperFunction,SMDPad,CuDef*
%ADD13R,2.100000X1.600000*%
G04 #@! TD*
G04 #@! TA.AperFunction,SMDPad,CuDef*
%ADD14R,0.300000X1.750000*%
G04 #@! TD*
G04 #@! TA.AperFunction,ViaPad*
%ADD15C,0.609600*%
G04 #@! TD*
G04 #@! TA.AperFunction,Conductor*
%ADD16C,0.254000*%
G04 #@! TD*
G04 #@! TA.AperFunction,Conductor*
%ADD17C,0.100000*%
G04 #@! TD*
G04 APERTURE END LIST*
D10*
X-8890000Y0D03*
D11*
X-6350000Y0D03*
X-3810000Y0D03*
X-1270000Y0D03*
X1270000Y0D03*
X3810000Y0D03*
X6350000Y0D03*
X8890000Y0D03*
D12*
X-3250000Y7600000D03*
X3250000Y7600000D03*
D13*
X-3100000Y5050000D03*
X3100000Y5050000D03*
D14*
X-1300000Y4725000D03*
X-650000Y4725000D03*
X0Y4725000D03*
X650000Y4725000D03*
X1300000Y4725000D03*
D15*
X-10600000Y2000000D03*
X8000000Y-33500000D03*
X4500000Y-30000000D03*
X-8000000Y-32500000D03*
X-5500000Y-20000000D03*
X-8000000Y-7500000D03*
X13500000Y-12000000D03*
X13500000Y-23000000D03*
X2500000Y-25000000D03*
X12500000Y-15000000D03*
X3700000Y-12500000D03*
X12000000Y5000000D03*
X-5800000Y5900000D03*
X1800000Y2800000D03*
X12500000Y-32500000D03*
X-12500000Y-32500000D03*
X-12500000Y-7500000D03*
X12500000Y-7500000D03*
X10000000Y-20000000D03*
X0Y-30000000D03*
X-10000000Y-20000000D03*
X0Y-10000000D03*
D16*
X-8350000Y2000000D02*
X-6350000Y0D01*
X-10600000Y2000000D02*
X-8350000Y2000000D01*
X-8890000Y0D02*
X-8890000Y-2890000D01*
X-1300000Y4725000D02*
X-1300000Y3300000D01*
X-1300000Y3300000D02*
X-1700000Y2900000D01*
X-1700000Y2900000D02*
X-2600000Y2900000D01*
X-3100000Y3400000D02*
X-2600000Y2900000D01*
X-3100000Y5050000D02*
X-3100000Y3400000D01*
X-3250000Y7600000D02*
X3250000Y7600000D01*
X3250000Y7600000D02*
X9500000Y7600000D01*
X12000000Y5100000D02*
X12000000Y5000000D01*
X9500000Y7600000D02*
X12000000Y5100000D01*
X1300000Y3300000D02*
X1800000Y2800000D01*
X1300000Y4725000D02*
X1300000Y3300000D01*
X12809701Y-5147571D02*
X13114109Y-5208121D01*
X13408001Y-5307885D01*
X13686361Y-5445156D01*
X13944427Y-5617591D01*
X14177772Y-5822228D01*
X14382409Y-6055573D01*
X14554844Y-6313639D01*
X14692115Y-6591999D01*
X14791879Y-6885891D01*
X14848000Y-7168035D01*
X14848000Y-7831965D01*
X14791879Y-8114109D01*
X14692115Y-8408001D01*
X14554844Y-8686361D01*
X14382409Y-8944427D01*
X14177772Y-9177772D01*
X13944427Y-9382409D01*
X13686361Y-9554844D01*
X13408001Y-9692115D01*
X13114109Y-9791879D01*
X12809701Y-9852429D01*
X12500000Y-9872728D01*
X12190299Y-9852429D01*
X11885891Y-9791879D01*
X11591999Y-9692115D01*
X11313639Y-9554844D01*
X11055573Y-9382409D01*
X10822228Y-9177772D01*
X10617591Y-8944427D01*
X10445156Y-8686361D01*
X10307885Y-8408001D01*
X10208121Y-8114109D01*
X10147571Y-7809701D01*
X10127272Y-7500000D01*
X10147571Y-7190299D01*
X10208121Y-6885891D01*
X10307885Y-6591999D01*
X10445156Y-6313639D01*
X10617591Y-6055573D01*
X10822228Y-5822228D01*
X11055573Y-5617591D01*
X11313639Y-5445156D01*
X11591999Y-5307885D01*
X11885891Y-5208121D01*
X12190299Y-5147571D01*
X12500000Y-5127272D01*
X12809701Y-5147571D01*
G04 #@! TA.AperFunction,Conductor*
D17*
G36*
X12809701Y-5147571D02*
G01*
X13114109Y-5208121D01*
X13408001Y-5307885D01*
X13686361Y-5445156D01*
X13944427Y-5617591D01*
X14177772Y-5822228D01*
X14382409Y-6055573D01*
X14554844Y-6313639D01*
X14692115Y-6591999D01*
X14791879Y-6885891D01*
X14848000Y-7168035D01*
X14848000Y-7831965D01*
X14791879Y-8114109D01*
X14692115Y-8408001D01*
X14554844Y-8686361D01*
X14382409Y-8944427D01*
X14177772Y-9177772D01*
X13944427Y-9382409D01*
X13686361Y-9554844D01*
X13408001Y-9692115D01*
X13114109Y-9791879D01*
X12809701Y-9852429D01*
X12500000Y-9872728D01*
X12190299Y-9852429D01*
X11885891Y-9791879D01*
X11591999Y-9692115D01*
X11313639Y-9554844D01*
X11055573Y-9382409D01*
X10822228Y-9177772D01*
X10617591Y-8944427D01*
X10445156Y-8686361D01*
X10307885Y-8408001D01*
X10208121Y-8114109D01*
X10147571Y-7809701D01*
X10127272Y-7500000D01*
X10147571Y-7190299D01*
X10208121Y-6885891D01*
X10307885Y-6591999D01*
X10445156Y-6313639D01*
X10617591Y-6055573D01*
X10822228Y-5822228D01*
X11055573Y-5617591D01*
X11313639Y-5445156D01*
X11591999Y-5307885D01*
X11885891Y-5208121D01*
X12190299Y-5147571D01*
X12500000Y-5127272D01*
X12809701Y-5147571D01*
G37*
G04 #@! TD.AperFunction*
D16*
X-12190299Y-5147571D02*
X-11885891Y-5208121D01*
X-11591999Y-5307885D01*
X-11313639Y-5445156D01*
X-11055573Y-5617591D01*
X-10822228Y-5822228D01*
X-10617591Y-6055573D01*
X-10445156Y-6313639D01*
X-10307885Y-6591999D01*
X-10208121Y-6885891D01*
X-10147571Y-7190299D01*
X-10127272Y-7500000D01*
X-10147571Y-7809701D01*
X-10208121Y-8114109D01*
X-10307885Y-8408001D01*
X-10445156Y-8686361D01*
X-10617591Y-8944427D01*
X-10822228Y-9177772D01*
X-11055573Y-9382409D01*
X-11313639Y-9554844D01*
X-11591999Y-9692115D01*
X-11885891Y-9791879D01*
X-12190299Y-9852429D01*
X-12500000Y-9872728D01*
X-12809701Y-9852429D01*
X-13114109Y-9791879D01*
X-13408001Y-9692115D01*
X-13686361Y-9554844D01*
X-13944427Y-9382409D01*
X-14177772Y-9177772D01*
X-14382409Y-8944427D01*
X-14554844Y-8686361D01*
X-14692115Y-8408001D01*
X-14791879Y-8114109D01*
X-14848000Y-7831967D01*
X-14848000Y-7168033D01*
X-14791879Y-6885891D01*
X-14692115Y-6591999D01*
X-14554844Y-6313639D01*
X-14382409Y-6055573D01*
X-14177772Y-5822228D01*
X-13944427Y-5617591D01*
X-13686361Y-5445156D01*
X-13408001Y-5307885D01*
X-13114109Y-5208121D01*
X-12809701Y-5147571D01*
X-12500000Y-5127272D01*
X-12190299Y-5147571D01*
G04 #@! TA.AperFunction,Conductor*
D17*
G36*
X-12190299Y-5147571D02*
G01*
X-11885891Y-5208121D01*
X-11591999Y-5307885D01*
X-11313639Y-5445156D01*
X-11055573Y-5617591D01*
X-10822228Y-5822228D01*
X-10617591Y-6055573D01*
X-10445156Y-6313639D01*
X-10307885Y-6591999D01*
X-10208121Y-6885891D01*
X-10147571Y-7190299D01*
X-10127272Y-7500000D01*
X-10147571Y-7809701D01*
X-10208121Y-8114109D01*
X-10307885Y-8408001D01*
X-10445156Y-8686361D01*
X-10617591Y-8944427D01*
X-10822228Y-9177772D01*
X-11055573Y-9382409D01*
X-11313639Y-9554844D01*
X-11591999Y-9692115D01*
X-11885891Y-9791879D01*
X-12190299Y-9852429D01*
X-12500000Y-9872728D01*
X-12809701Y-9852429D01*
X-13114109Y-9791879D01*
X-13408001Y-9692115D01*
X-13686361Y-9554844D01*
X-13944427Y-9382409D01*
X-14177772Y-9177772D01*
X-14382409Y-8944427D01*
X-14554844Y-8686361D01*
X-14692115Y-8408001D01*
X-14791879Y-8114109D01*
X-14848000Y-7831967D01*
X-14848000Y-7168033D01*
X-14791879Y-6885891D01*
X-14692115Y-6591999D01*
X-14554844Y-6313639D01*
X-14382409Y-6055573D01*
X-14177772Y-5822228D01*
X-13944427Y-5617591D01*
X-13686361Y-5445156D01*
X-13408001Y-5307885D01*
X-13114109Y-5208121D01*
X-12809701Y-5147571D01*
X-12500000Y-5127272D01*
X-12190299Y-5147571D01*
G37*
G04 #@! TD.AperFunction*
D16*
X309701Y-7647571D02*
X614109Y-7708121D01*
X908001Y-7807885D01*
X1186361Y-7945156D01*
X1444427Y-8117591D01*
X1677772Y-8322228D01*
X1882409Y-8555573D01*
X2054844Y-8813639D01*
X2192115Y-9091999D01*
X2291879Y-9385891D01*
X2352429Y-9690299D01*
X2372728Y-10000000D01*
X2352429Y-10309701D01*
X2291879Y-10614109D01*
X2192115Y-10908001D01*
X2054844Y-11186361D01*
X1882409Y-11444427D01*
X1677772Y-11677772D01*
X1444427Y-11882409D01*
X1186361Y-12054844D01*
X908001Y-12192115D01*
X614109Y-12291879D01*
X309701Y-12352429D01*
X0Y-12372728D01*
X-309701Y-12352429D01*
X-614109Y-12291879D01*
X-908001Y-12192115D01*
X-1186361Y-12054844D01*
X-1444427Y-11882409D01*
X-1677772Y-11677772D01*
X-1882409Y-11444427D01*
X-2054844Y-11186361D01*
X-2192115Y-10908001D01*
X-2291879Y-10614109D01*
X-2352429Y-10309701D01*
X-2372728Y-10000000D01*
X-2352429Y-9690299D01*
X-2291879Y-9385891D01*
X-2192115Y-9091999D01*
X-2054844Y-8813639D01*
X-1882409Y-8555573D01*
X-1677772Y-8322228D01*
X-1444427Y-8117591D01*
X-1186361Y-7945156D01*
X-908001Y-7807885D01*
X-614109Y-7708121D01*
X-309701Y-7647571D01*
X0Y-7627272D01*
X309701Y-7647571D01*
G04 #@! TA.AperFunction,Conductor*
D17*
G36*
X309701Y-7647571D02*
G01*
X614109Y-7708121D01*
X908001Y-7807885D01*
X1186361Y-7945156D01*
X1444427Y-8117591D01*
X1677772Y-8322228D01*
X1882409Y-8555573D01*
X2054844Y-8813639D01*
X2192115Y-9091999D01*
X2291879Y-9385891D01*
X2352429Y-9690299D01*
X2372728Y-10000000D01*
X2352429Y-10309701D01*
X2291879Y-10614109D01*
X2192115Y-10908001D01*
X2054844Y-11186361D01*
X1882409Y-11444427D01*
X1677772Y-11677772D01*
X1444427Y-11882409D01*
X1186361Y-12054844D01*
X908001Y-12192115D01*
X614109Y-12291879D01*
X309701Y-12352429D01*
X0Y-12372728D01*
X-309701Y-12352429D01*
X-614109Y-12291879D01*
X-908001Y-12192115D01*
X-1186361Y-12054844D01*
X-1444427Y-11882409D01*
X-1677772Y-11677772D01*
X-1882409Y-11444427D01*
X-2054844Y-11186361D01*
X-2192115Y-10908001D01*
X-2291879Y-10614109D01*
X-2352429Y-10309701D01*
X-2372728Y-10000000D01*
X-2352429Y-9690299D01*
X-2291879Y-9385891D01*
X-2192115Y-9091999D01*
X-2054844Y-8813639D01*
X-1882409Y-8555573D01*
X-1677772Y-8322228D01*
X-1444427Y-8117591D01*
X-1186361Y-7945156D01*
X-908001Y-7807885D01*
X-614109Y-7708121D01*
X-309701Y-7647571D01*
X0Y-7627272D01*
X309701Y-7647571D01*
G37*
G04 #@! TD.AperFunction*
D16*
X-12190299Y-30147571D02*
X-11885891Y-30208121D01*
X-11591999Y-30307885D01*
X-11313639Y-30445156D01*
X-11055573Y-30617591D01*
X-10822228Y-30822228D01*
X-10617591Y-31055573D01*
X-10445156Y-31313639D01*
X-10307885Y-31591999D01*
X-10208121Y-31885891D01*
X-10147571Y-32190299D01*
X-10127272Y-32500000D01*
X-10147571Y-32809701D01*
X-10208121Y-33114109D01*
X-10307885Y-33408001D01*
X-10445156Y-33686361D01*
X-10617591Y-33944427D01*
X-10822228Y-34177772D01*
X-11055573Y-34382409D01*
X-11313639Y-34554844D01*
X-11591999Y-34692115D01*
X-11885891Y-34791879D01*
X-12168033Y-34848000D01*
X-12831967Y-34848000D01*
X-13114109Y-34791879D01*
X-13408001Y-34692115D01*
X-13686361Y-34554844D01*
X-13944427Y-34382409D01*
X-14177772Y-34177772D01*
X-14382409Y-33944427D01*
X-14554844Y-33686361D01*
X-14692115Y-33408001D01*
X-14791879Y-33114109D01*
X-14848000Y-32831967D01*
X-14848000Y-32168033D01*
X-14791879Y-31885891D01*
X-14692115Y-31591999D01*
X-14554844Y-31313639D01*
X-14382409Y-31055573D01*
X-14177772Y-30822228D01*
X-13944427Y-30617591D01*
X-13686361Y-30445156D01*
X-13408001Y-30307885D01*
X-13114109Y-30208121D01*
X-12809701Y-30147571D01*
X-12500000Y-30127272D01*
X-12190299Y-30147571D01*
G04 #@! TA.AperFunction,Conductor*
D17*
G36*
X-12190299Y-30147571D02*
G01*
X-11885891Y-30208121D01*
X-11591999Y-30307885D01*
X-11313639Y-30445156D01*
X-11055573Y-30617591D01*
X-10822228Y-30822228D01*
X-10617591Y-31055573D01*
X-10445156Y-31313639D01*
X-10307885Y-31591999D01*
X-10208121Y-31885891D01*
X-10147571Y-32190299D01*
X-10127272Y-32500000D01*
X-10147571Y-32809701D01*
X-10208121Y-33114109D01*
X-10307885Y-33408001D01*
X-10445156Y-33686361D01*
X-10617591Y-33944427D01*
X-10822228Y-34177772D01*
X-11055573Y-34382409D01*
X-11313639Y-34554844D01*
X-11591999Y-34692115D01*
X-11885891Y-34791879D01*
X-12168033Y-34848000D01*
X-12831967Y-34848000D01*
X-13114109Y-34791879D01*
X-13408001Y-34692115D01*
X-13686361Y-34554844D01*
X-13944427Y-34382409D01*
X-14177772Y-34177772D01*
X-14382409Y-33944427D01*
X-14554844Y-33686361D01*
X-14692115Y-33408001D01*
X-14791879Y-33114109D01*
X-14848000Y-32831967D01*
X-14848000Y-32168033D01*
X-14791879Y-31885891D01*
X-14692115Y-31591999D01*
X-14554844Y-31313639D01*
X-14382409Y-31055573D01*
X-14177772Y-30822228D01*
X-13944427Y-30617591D01*
X-13686361Y-30445156D01*
X-13408001Y-30307885D01*
X-13114109Y-30208121D01*
X-12809701Y-30147571D01*
X-12500000Y-30127272D01*
X-12190299Y-30147571D01*
G37*
G04 #@! TD.AperFunction*
D16*
X12809701Y-30147571D02*
X13114109Y-30208121D01*
X13408001Y-30307885D01*
X13686361Y-30445156D01*
X13944427Y-30617591D01*
X14177772Y-30822228D01*
X14382409Y-31055573D01*
X14554844Y-31313639D01*
X14692115Y-31591999D01*
X14791879Y-31885891D01*
X14848001Y-32168037D01*
X14848001Y-32831962D01*
X14791879Y-33114109D01*
X14692115Y-33408001D01*
X14554844Y-33686361D01*
X14382409Y-33944427D01*
X14177772Y-34177772D01*
X13944427Y-34382409D01*
X13686361Y-34554844D01*
X13408001Y-34692115D01*
X13114109Y-34791879D01*
X12831967Y-34848000D01*
X12168033Y-34848000D01*
X11885891Y-34791879D01*
X11591999Y-34692115D01*
X11313639Y-34554844D01*
X11055573Y-34382409D01*
X10822228Y-34177772D01*
X10617591Y-33944427D01*
X10445156Y-33686361D01*
X10307885Y-33408001D01*
X10208121Y-33114109D01*
X10147571Y-32809701D01*
X10127272Y-32500000D01*
X10147571Y-32190299D01*
X10208121Y-31885891D01*
X10307885Y-31591999D01*
X10445156Y-31313639D01*
X10617591Y-31055573D01*
X10822228Y-30822228D01*
X11055573Y-30617591D01*
X11313639Y-30445156D01*
X11591999Y-30307885D01*
X11885891Y-30208121D01*
X12190299Y-30147571D01*
X12500000Y-30127272D01*
X12809701Y-30147571D01*
G04 #@! TA.AperFunction,Conductor*
D17*
G36*
X12809701Y-30147571D02*
G01*
X13114109Y-30208121D01*
X13408001Y-30307885D01*
X13686361Y-30445156D01*
X13944427Y-30617591D01*
X14177772Y-30822228D01*
X14382409Y-31055573D01*
X14554844Y-31313639D01*
X14692115Y-31591999D01*
X14791879Y-31885891D01*
X14848001Y-32168037D01*
X14848001Y-32831962D01*
X14791879Y-33114109D01*
X14692115Y-33408001D01*
X14554844Y-33686361D01*
X14382409Y-33944427D01*
X14177772Y-34177772D01*
X13944427Y-34382409D01*
X13686361Y-34554844D01*
X13408001Y-34692115D01*
X13114109Y-34791879D01*
X12831967Y-34848000D01*
X12168033Y-34848000D01*
X11885891Y-34791879D01*
X11591999Y-34692115D01*
X11313639Y-34554844D01*
X11055573Y-34382409D01*
X10822228Y-34177772D01*
X10617591Y-33944427D01*
X10445156Y-33686361D01*
X10307885Y-33408001D01*
X10208121Y-33114109D01*
X10147571Y-32809701D01*
X10127272Y-32500000D01*
X10147571Y-32190299D01*
X10208121Y-31885891D01*
X10307885Y-31591999D01*
X10445156Y-31313639D01*
X10617591Y-31055573D01*
X10822228Y-30822228D01*
X11055573Y-30617591D01*
X11313639Y-30445156D01*
X11591999Y-30307885D01*
X11885891Y-30208121D01*
X12190299Y-30147571D01*
X12500000Y-30127272D01*
X12809701Y-30147571D01*
G37*
G04 #@! TD.AperFunction*
D16*
X309701Y-27647571D02*
X614109Y-27708121D01*
X908001Y-27807885D01*
X1186361Y-27945156D01*
X1444427Y-28117591D01*
X1677772Y-28322228D01*
X1882409Y-28555573D01*
X2054844Y-28813639D01*
X2192115Y-29091999D01*
X2291879Y-29385891D01*
X2352429Y-29690299D01*
X2372728Y-30000000D01*
X2352429Y-30309701D01*
X2291879Y-30614109D01*
X2192115Y-30908001D01*
X2054844Y-31186361D01*
X1882409Y-31444427D01*
X1677772Y-31677772D01*
X1444427Y-31882409D01*
X1186361Y-32054844D01*
X908001Y-32192115D01*
X614109Y-32291879D01*
X309701Y-32352429D01*
X0Y-32372728D01*
X-309701Y-32352429D01*
X-614109Y-32291879D01*
X-908001Y-32192115D01*
X-1186361Y-32054844D01*
X-1444427Y-31882409D01*
X-1677772Y-31677772D01*
X-1882409Y-31444427D01*
X-2054844Y-31186361D01*
X-2192115Y-30908001D01*
X-2291879Y-30614109D01*
X-2352429Y-30309701D01*
X-2372728Y-30000000D01*
X-2352429Y-29690299D01*
X-2291879Y-29385891D01*
X-2192115Y-29091999D01*
X-2054844Y-28813639D01*
X-1882409Y-28555573D01*
X-1677772Y-28322228D01*
X-1444427Y-28117591D01*
X-1186361Y-27945156D01*
X-908001Y-27807885D01*
X-614109Y-27708121D01*
X-309701Y-27647571D01*
X0Y-27627272D01*
X309701Y-27647571D01*
G04 #@! TA.AperFunction,Conductor*
D17*
G36*
X309701Y-27647571D02*
G01*
X614109Y-27708121D01*
X908001Y-27807885D01*
X1186361Y-27945156D01*
X1444427Y-28117591D01*
X1677772Y-28322228D01*
X1882409Y-28555573D01*
X2054844Y-28813639D01*
X2192115Y-29091999D01*
X2291879Y-29385891D01*
X2352429Y-29690299D01*
X2372728Y-30000000D01*
X2352429Y-30309701D01*
X2291879Y-30614109D01*
X2192115Y-30908001D01*
X2054844Y-31186361D01*
X1882409Y-31444427D01*
X1677772Y-31677772D01*
X1444427Y-31882409D01*
X1186361Y-32054844D01*
X908001Y-32192115D01*
X614109Y-32291879D01*
X309701Y-32352429D01*
X0Y-32372728D01*
X-309701Y-32352429D01*
X-614109Y-32291879D01*
X-908001Y-32192115D01*
X-1186361Y-32054844D01*
X-1444427Y-31882409D01*
X-1677772Y-31677772D01*
X-1882409Y-31444427D01*
X-2054844Y-31186361D01*
X-2192115Y-30908001D01*
X-2291879Y-30614109D01*
X-2352429Y-30309701D01*
X-2372728Y-30000000D01*
X-2352429Y-29690299D01*
X-2291879Y-29385891D01*
X-2192115Y-29091999D01*
X-2054844Y-28813639D01*
X-1882409Y-28555573D01*
X-1677772Y-28322228D01*
X-1444427Y-28117591D01*
X-1186361Y-27945156D01*
X-908001Y-27807885D01*
X-614109Y-27708121D01*
X-309701Y-27647571D01*
X0Y-27627272D01*
X309701Y-27647571D01*
G37*
G04 #@! TD.AperFunction*
D16*
X-9690299Y-17647571D02*
X-9385891Y-17708121D01*
X-9091999Y-17807885D01*
X-8813639Y-17945156D01*
X-8555573Y-18117591D01*
X-8322228Y-18322228D01*
X-8117591Y-18555573D01*
X-7945156Y-18813639D01*
X-7807885Y-19091999D01*
X-7708121Y-19385891D01*
X-7647571Y-19690299D01*
X-7627272Y-20000000D01*
X-7647571Y-20309701D01*
X-7708121Y-20614109D01*
X-7807885Y-20908001D01*
X-7945156Y-21186361D01*
X-8117591Y-21444427D01*
X-8322228Y-21677772D01*
X-8555573Y-21882409D01*
X-8813639Y-22054844D01*
X-9091999Y-22192115D01*
X-9385891Y-22291879D01*
X-9690299Y-22352429D01*
X-10000000Y-22372728D01*
X-10309701Y-22352429D01*
X-10614109Y-22291879D01*
X-10908001Y-22192115D01*
X-11186361Y-22054844D01*
X-11444427Y-21882409D01*
X-11677772Y-21677772D01*
X-11882409Y-21444427D01*
X-12054844Y-21186361D01*
X-12192115Y-20908001D01*
X-12291879Y-20614109D01*
X-12352429Y-20309701D01*
X-12372728Y-20000000D01*
X-12352429Y-19690299D01*
X-12291879Y-19385891D01*
X-12192115Y-19091999D01*
X-12054844Y-18813639D01*
X-11882409Y-18555573D01*
X-11677772Y-18322228D01*
X-11444427Y-18117591D01*
X-11186361Y-17945156D01*
X-10908001Y-17807885D01*
X-10614109Y-17708121D01*
X-10309701Y-17647571D01*
X-10000000Y-17627272D01*
X-9690299Y-17647571D01*
G04 #@! TA.AperFunction,Conductor*
D17*
G36*
X-9690299Y-17647571D02*
G01*
X-9385891Y-17708121D01*
X-9091999Y-17807885D01*
X-8813639Y-17945156D01*
X-8555573Y-18117591D01*
X-8322228Y-18322228D01*
X-8117591Y-18555573D01*
X-7945156Y-18813639D01*
X-7807885Y-19091999D01*
X-7708121Y-19385891D01*
X-7647571Y-19690299D01*
X-7627272Y-20000000D01*
X-7647571Y-20309701D01*
X-7708121Y-20614109D01*
X-7807885Y-20908001D01*
X-7945156Y-21186361D01*
X-8117591Y-21444427D01*
X-8322228Y-21677772D01*
X-8555573Y-21882409D01*
X-8813639Y-22054844D01*
X-9091999Y-22192115D01*
X-9385891Y-22291879D01*
X-9690299Y-22352429D01*
X-10000000Y-22372728D01*
X-10309701Y-22352429D01*
X-10614109Y-22291879D01*
X-10908001Y-22192115D01*
X-11186361Y-22054844D01*
X-11444427Y-21882409D01*
X-11677772Y-21677772D01*
X-11882409Y-21444427D01*
X-12054844Y-21186361D01*
X-12192115Y-20908001D01*
X-12291879Y-20614109D01*
X-12352429Y-20309701D01*
X-12372728Y-20000000D01*
X-12352429Y-19690299D01*
X-12291879Y-19385891D01*
X-12192115Y-19091999D01*
X-12054844Y-18813639D01*
X-11882409Y-18555573D01*
X-11677772Y-18322228D01*
X-11444427Y-18117591D01*
X-11186361Y-17945156D01*
X-10908001Y-17807885D01*
X-10614109Y-17708121D01*
X-10309701Y-17647571D01*
X-10000000Y-17627272D01*
X-9690299Y-17647571D01*
G37*
G04 #@! TD.AperFunction*
D16*
X10309701Y-17647571D02*
X10614109Y-17708121D01*
X10908001Y-17807885D01*
X11186361Y-17945156D01*
X11444427Y-18117591D01*
X11677772Y-18322228D01*
X11882409Y-18555573D01*
X12054844Y-18813639D01*
X12192115Y-19091999D01*
X12291879Y-19385891D01*
X12352429Y-19690299D01*
X12372728Y-20000000D01*
X12352429Y-20309701D01*
X12291879Y-20614109D01*
X12192115Y-20908001D01*
X12054844Y-21186361D01*
X11882409Y-21444427D01*
X11677772Y-21677772D01*
X11444427Y-21882409D01*
X11186361Y-22054844D01*
X10908001Y-22192115D01*
X10614109Y-22291879D01*
X10309701Y-22352429D01*
X10000000Y-22372728D01*
X9690299Y-22352429D01*
X9385891Y-22291879D01*
X9091999Y-22192115D01*
X8813639Y-22054844D01*
X8555573Y-21882409D01*
X8322228Y-21677772D01*
X8117591Y-21444427D01*
X7945156Y-21186361D01*
X7807885Y-20908001D01*
X7708121Y-20614109D01*
X7647571Y-20309701D01*
X7627272Y-20000000D01*
X7647571Y-19690299D01*
X7708121Y-19385891D01*
X7807885Y-19091999D01*
X7945156Y-18813639D01*
X8117591Y-18555573D01*
X8322228Y-18322228D01*
X8555573Y-18117591D01*
X8813639Y-17945156D01*
X9091999Y-17807885D01*
X9385891Y-17708121D01*
X9690299Y-17647571D01*
X10000000Y-17627272D01*
X10309701Y-17647571D01*
G04 #@! TA.AperFunction,Conductor*
D17*
G36*
X10309701Y-17647571D02*
G01*
X10614109Y-17708121D01*
X10908001Y-17807885D01*
X11186361Y-17945156D01*
X11444427Y-18117591D01*
X11677772Y-18322228D01*
X11882409Y-18555573D01*
X12054844Y-18813639D01*
X12192115Y-19091999D01*
X12291879Y-19385891D01*
X12352429Y-19690299D01*
X12372728Y-20000000D01*
X12352429Y-20309701D01*
X12291879Y-20614109D01*
X12192115Y-20908001D01*
X12054844Y-21186361D01*
X11882409Y-21444427D01*
X11677772Y-21677772D01*
X11444427Y-21882409D01*
X11186361Y-22054844D01*
X10908001Y-22192115D01*
X10614109Y-22291879D01*
X10309701Y-22352429D01*
X10000000Y-22372728D01*
X9690299Y-22352429D01*
X9385891Y-22291879D01*
X9091999Y-22192115D01*
X8813639Y-22054844D01*
X8555573Y-21882409D01*
X8322228Y-21677772D01*
X8117591Y-21444427D01*
X7945156Y-21186361D01*
X7807885Y-20908001D01*
X7708121Y-20614109D01*
X7647571Y-20309701D01*
X7627272Y-20000000D01*
X7647571Y-19690299D01*
X7708121Y-19385891D01*
X7807885Y-19091999D01*
X7945156Y-18813639D01*
X8117591Y-18555573D01*
X8322228Y-18322228D01*
X8555573Y-18117591D01*
X8813639Y-17945156D01*
X9091999Y-17807885D01*
X9385891Y-17708121D01*
X9690299Y-17647571D01*
X10000000Y-17627272D01*
X10309701Y-17647571D01*
G37*
G04 #@! TD.AperFunction*
D16*
X-4785000Y7885750D02*
X-4626250Y7727000D01*
X-3377000Y7727000D01*
X-3377000Y7747000D01*
X-3123000Y7747000D01*
X-3123000Y7727000D01*
X-1873750Y7727000D01*
X-1715000Y7885750D01*
X-1712862Y8348000D01*
X1712862Y8348000D01*
X1715000Y7885750D01*
X1873750Y7727000D01*
X3123000Y7727000D01*
X3123000Y7747000D01*
X3377000Y7747000D01*
X3377000Y7727000D01*
X4626250Y7727000D01*
X4785000Y7885750D01*
X4787138Y8348000D01*
X14348000Y8348000D01*
X14348000Y-4381631D01*
X14248459Y-4324160D01*
X13955168Y-4179525D01*
X13921981Y-4165779D01*
X13927000Y-4140547D01*
X13927000Y-3859453D01*
X13872162Y-3583759D01*
X13764591Y-3324062D01*
X13608424Y-3090340D01*
X13409660Y-2891576D01*
X13175938Y-2735409D01*
X12916241Y-2627838D01*
X12640547Y-2573000D01*
X12359453Y-2573000D01*
X12083759Y-2627838D01*
X11824062Y-2735409D01*
X11590340Y-2891576D01*
X11391576Y-3090340D01*
X11235409Y-3324062D01*
X11127838Y-3583759D01*
X11073000Y-3859453D01*
X11073000Y-4140547D01*
X11078019Y-4165779D01*
X11044832Y-4179525D01*
X10751541Y-4324160D01*
X10623871Y-4397871D01*
X10351967Y-4579552D01*
X10235013Y-4669293D01*
X9989150Y-4884909D01*
X9884909Y-4989150D01*
X9669293Y-5235013D01*
X9579552Y-5351967D01*
X9397871Y-5623871D01*
X9324160Y-5751541D01*
X9179525Y-6044832D01*
X9123111Y-6181028D01*
X9017995Y-6490689D01*
X8979839Y-6633088D01*
X8916042Y-6953821D01*
X8896801Y-7099975D01*
X8875413Y-7426290D01*
X8875413Y-7573710D01*
X8896801Y-7900025D01*
X8916042Y-8046179D01*
X8979839Y-8366912D01*
X9017995Y-8509311D01*
X9123111Y-8818972D01*
X9179525Y-8955168D01*
X9324160Y-9248459D01*
X9397871Y-9376129D01*
X9579552Y-9648033D01*
X9669293Y-9764987D01*
X9884909Y-10010850D01*
X9989150Y-10115091D01*
X10235013Y-10330707D01*
X10351967Y-10420448D01*
X10623871Y-10602129D01*
X10751541Y-10675840D01*
X11044832Y-10820475D01*
X11181028Y-10876889D01*
X11490689Y-10982005D01*
X11633088Y-11020161D01*
X11953821Y-11083958D01*
X12099975Y-11103199D01*
X12426290Y-11124587D01*
X12573710Y-11124587D01*
X12900025Y-11103199D01*
X13046179Y-11083958D01*
X13366912Y-11020161D01*
X13509311Y-10982005D01*
X13818972Y-10876889D01*
X13955168Y-10820475D01*
X14248459Y-10675840D01*
X14348000Y-10618369D01*
X14348001Y-29381631D01*
X14248459Y-29324160D01*
X13955168Y-29179525D01*
X13921981Y-29165779D01*
X13927000Y-29140547D01*
X13927000Y-28859453D01*
X13872162Y-28583759D01*
X13764591Y-28324062D01*
X13608424Y-28090340D01*
X13409660Y-27891576D01*
X13175938Y-27735409D01*
X12916241Y-27627838D01*
X12640547Y-27573000D01*
X12359453Y-27573000D01*
X12083759Y-27627838D01*
X11824062Y-27735409D01*
X11590340Y-27891576D01*
X11391576Y-28090340D01*
X11235409Y-28324062D01*
X11127838Y-28583759D01*
X11073000Y-28859453D01*
X11073000Y-29140547D01*
X11078019Y-29165779D01*
X11044832Y-29179525D01*
X10751541Y-29324160D01*
X10623871Y-29397871D01*
X10351967Y-29579552D01*
X10235013Y-29669293D01*
X9989150Y-29884909D01*
X9884909Y-29989150D01*
X9669293Y-30235013D01*
X9579552Y-30351967D01*
X9397871Y-30623871D01*
X9324160Y-30751541D01*
X9179525Y-31044832D01*
X9123111Y-31181028D01*
X9017995Y-31490689D01*
X8979839Y-31633088D01*
X8916042Y-31953821D01*
X8896801Y-32099975D01*
X8875413Y-32426290D01*
X8875413Y-32573710D01*
X8896801Y-32900025D01*
X8916042Y-33046179D01*
X8979839Y-33366912D01*
X9017995Y-33509311D01*
X9123111Y-33818972D01*
X9179525Y-33955168D01*
X9324160Y-34248459D01*
X9381631Y-34348000D01*
X-9381631Y-34348000D01*
X-9324160Y-34248459D01*
X-9179525Y-33955168D01*
X-9123111Y-33818972D01*
X-9017995Y-33509311D01*
X-8979839Y-33366912D01*
X-8916042Y-33046179D01*
X-8896801Y-32900025D01*
X-8875413Y-32573710D01*
X-8875413Y-32426290D01*
X-8896801Y-32099975D01*
X-8916042Y-31953821D01*
X-8979839Y-31633088D01*
X-9017995Y-31490689D01*
X-9123111Y-31181028D01*
X-9179525Y-31044832D01*
X-9324160Y-30751541D01*
X-9397871Y-30623871D01*
X-9579552Y-30351967D01*
X-9669293Y-30235013D01*
X-9884909Y-29989150D01*
X-9947769Y-29926290D01*
X-3624587Y-29926290D01*
X-3624587Y-30073710D01*
X-3603199Y-30400025D01*
X-3583958Y-30546179D01*
X-3520161Y-30866912D01*
X-3482005Y-31009311D01*
X-3376889Y-31318972D01*
X-3320475Y-31455168D01*
X-3175840Y-31748459D01*
X-3102129Y-31876129D01*
X-2920448Y-32148033D01*
X-2830707Y-32264987D01*
X-2615091Y-32510850D01*
X-2510850Y-32615091D01*
X-2264987Y-32830707D01*
X-2148033Y-32920448D01*
X-1876129Y-33102129D01*
X-1748459Y-33175840D01*
X-1455168Y-33320475D01*
X-1318972Y-33376889D01*
X-1009311Y-33482005D01*
X-866912Y-33520161D01*
X-546179Y-33583958D01*
X-400025Y-33603199D01*
X-73710Y-33624587D01*
X73710Y-33624587D01*
X400025Y-33603199D01*
X546179Y-33583958D01*
X866912Y-33520161D01*
X1009311Y-33482005D01*
X1318972Y-33376889D01*
X1455168Y-33320475D01*
X1748459Y-33175840D01*
X1876129Y-33102129D01*
X2148033Y-32920448D01*
X2264987Y-32830707D01*
X2510850Y-32615091D01*
X2615091Y-32510850D01*
X2830707Y-32264987D01*
X2920448Y-32148033D01*
X3102129Y-31876129D01*
X3175840Y-31748459D01*
X3320475Y-31455168D01*
X3376889Y-31318972D01*
X3482005Y-31009311D01*
X3520161Y-30866912D01*
X3583958Y-30546179D01*
X3603199Y-30400025D01*
X3624587Y-30073710D01*
X3624587Y-29926290D01*
X3603199Y-29599975D01*
X3583958Y-29453821D01*
X3520161Y-29133088D01*
X3482005Y-28990689D01*
X3376889Y-28681028D01*
X3320475Y-28544832D01*
X3175840Y-28251541D01*
X3102129Y-28123871D01*
X2920448Y-27851967D01*
X2830707Y-27735013D01*
X2615091Y-27489150D01*
X2510850Y-27384909D01*
X2264987Y-27169293D01*
X2148033Y-27079552D01*
X1876129Y-26897871D01*
X1748459Y-26824160D01*
X1455168Y-26679525D01*
X1421981Y-26665779D01*
X1427000Y-26640547D01*
X1427000Y-26359453D01*
X1372162Y-26083759D01*
X1264591Y-25824062D01*
X1108424Y-25590340D01*
X909660Y-25391576D01*
X675938Y-25235409D01*
X416241Y-25127838D01*
X140547Y-25073000D01*
X-140547Y-25073000D01*
X-416241Y-25127838D01*
X-675938Y-25235409D01*
X-909660Y-25391576D01*
X-1108424Y-25590340D01*
X-1264591Y-25824062D01*
X-1372162Y-26083759D01*
X-1427000Y-26359453D01*
X-1427000Y-26640547D01*
X-1421981Y-26665779D01*
X-1455168Y-26679525D01*
X-1748459Y-26824160D01*
X-1876129Y-26897871D01*
X-2148033Y-27079552D01*
X-2264987Y-27169293D01*
X-2510850Y-27384909D01*
X-2615091Y-27489150D01*
X-2830707Y-27735013D01*
X-2920448Y-27851967D01*
X-3102129Y-28123871D01*
X-3175840Y-28251541D01*
X-3320475Y-28544832D01*
X-3376889Y-28681028D01*
X-3482005Y-28990689D01*
X-3520161Y-29133088D01*
X-3583958Y-29453821D01*
X-3603199Y-29599975D01*
X-3624587Y-29926290D01*
X-9947769Y-29926290D01*
X-9989150Y-29884909D01*
X-10235013Y-29669293D01*
X-10351967Y-29579552D01*
X-10623871Y-29397871D01*
X-10751541Y-29324160D01*
X-11044832Y-29179525D01*
X-11078019Y-29165779D01*
X-11073000Y-29140547D01*
X-11073000Y-28859453D01*
X-11127838Y-28583759D01*
X-11235409Y-28324062D01*
X-11391576Y-28090340D01*
X-11590340Y-27891576D01*
X-11824062Y-27735409D01*
X-12083759Y-27627838D01*
X-12359453Y-27573000D01*
X-12640547Y-27573000D01*
X-12916241Y-27627838D01*
X-13175938Y-27735409D01*
X-13409660Y-27891576D01*
X-13608424Y-28090340D01*
X-13764591Y-28324062D01*
X-13872162Y-28583759D01*
X-13927000Y-28859453D01*
X-13927000Y-29140547D01*
X-13921981Y-29165779D01*
X-13955168Y-29179525D01*
X-14248459Y-29324160D01*
X-14348000Y-29381631D01*
X-14348000Y-19926290D01*
X-13624587Y-19926290D01*
X-13624587Y-20073710D01*
X-13603199Y-20400025D01*
X-13583958Y-20546179D01*
X-13520161Y-20866912D01*
X-13482005Y-21009311D01*
X-13376889Y-21318972D01*
X-13320475Y-21455168D01*
X-13175840Y-21748459D01*
X-13102129Y-21876129D01*
X-12920448Y-22148033D01*
X-12830707Y-22264987D01*
X-12615091Y-22510850D01*
X-12510850Y-22615091D01*
X-12264987Y-22830707D01*
X-12148033Y-22920448D01*
X-11876129Y-23102129D01*
X-11748459Y-23175840D01*
X-11455168Y-23320475D01*
X-11318972Y-23376889D01*
X-11009311Y-23482005D01*
X-10866912Y-23520161D01*
X-10546179Y-23583958D01*
X-10400025Y-23603199D01*
X-10073710Y-23624587D01*
X-9926290Y-23624587D01*
X-9599975Y-23603199D01*
X-9453821Y-23583958D01*
X-9133088Y-23520161D01*
X-8990689Y-23482005D01*
X-8681028Y-23376889D01*
X-8544832Y-23320475D01*
X-8251541Y-23175840D01*
X-8123871Y-23102129D01*
X-7851967Y-22920448D01*
X-7735013Y-22830707D01*
X-7489150Y-22615091D01*
X-7384909Y-22510850D01*
X-7169293Y-22264987D01*
X-7079552Y-22148033D01*
X-6897871Y-21876129D01*
X-6824160Y-21748459D01*
X-6679525Y-21455168D01*
X-6623111Y-21318972D01*
X-6517995Y-21009311D01*
X-6479839Y-20866912D01*
X-6416042Y-20546179D01*
X-6396801Y-20400025D01*
X-6375413Y-20073710D01*
X-6375413Y-19926290D01*
X6375413Y-19926290D01*
X6375413Y-20073710D01*
X6396801Y-20400025D01*
X6416042Y-20546179D01*
X6479839Y-20866912D01*
X6517995Y-21009311D01*
X6623111Y-21318972D01*
X6679525Y-21455168D01*
X6824160Y-21748459D01*
X6897871Y-21876129D01*
X7079552Y-22148033D01*
X7169293Y-22264987D01*
X7384909Y-22510850D01*
X7489150Y-22615091D01*
X7735013Y-22830707D01*
X7851967Y-22920448D01*
X8123871Y-23102129D01*
X8251541Y-23175840D01*
X8544832Y-23320475D01*
X8681028Y-23376889D01*
X8990689Y-23482005D01*
X9133088Y-23520161D01*
X9453821Y-23583958D01*
X9599975Y-23603199D01*
X9926290Y-23624587D01*
X10073710Y-23624587D01*
X10400025Y-23603199D01*
X10546179Y-23583958D01*
X10866912Y-23520161D01*
X11009311Y-23482005D01*
X11318972Y-23376889D01*
X11455168Y-23320475D01*
X11748459Y-23175840D01*
X11876129Y-23102129D01*
X12148033Y-22920448D01*
X12264987Y-22830707D01*
X12510850Y-22615091D01*
X12615091Y-22510850D01*
X12830707Y-22264987D01*
X12920448Y-22148033D01*
X13102129Y-21876129D01*
X13175840Y-21748459D01*
X13320475Y-21455168D01*
X13376889Y-21318972D01*
X13482005Y-21009311D01*
X13520161Y-20866912D01*
X13583958Y-20546179D01*
X13603199Y-20400025D01*
X13624587Y-20073710D01*
X13624587Y-19926290D01*
X13603199Y-19599975D01*
X13583958Y-19453821D01*
X13520161Y-19133088D01*
X13482005Y-18990689D01*
X13376889Y-18681028D01*
X13320475Y-18544832D01*
X13175840Y-18251541D01*
X13102129Y-18123871D01*
X12920448Y-17851967D01*
X12830707Y-17735013D01*
X12615091Y-17489150D01*
X12510850Y-17384909D01*
X12264987Y-17169293D01*
X12148033Y-17079552D01*
X11876129Y-16897871D01*
X11748459Y-16824160D01*
X11455168Y-16679525D01*
X11421981Y-16665779D01*
X11427000Y-16640547D01*
X11427000Y-16359453D01*
X11372162Y-16083759D01*
X11264591Y-15824062D01*
X11108424Y-15590340D01*
X10909660Y-15391576D01*
X10675938Y-15235409D01*
X10416241Y-15127838D01*
X10140547Y-15073000D01*
X9859453Y-15073000D01*
X9583759Y-15127838D01*
X9324062Y-15235409D01*
X9090340Y-15391576D01*
X8891576Y-15590340D01*
X8735409Y-15824062D01*
X8627838Y-16083759D01*
X8573000Y-16359453D01*
X8573000Y-16640547D01*
X8578019Y-16665779D01*
X8544832Y-16679525D01*
X8251541Y-16824160D01*
X8123871Y-16897871D01*
X7851967Y-17079552D01*
X7735013Y-17169293D01*
X7489150Y-17384909D01*
X7384909Y-17489150D01*
X7169293Y-17735013D01*
X7079552Y-17851967D01*
X6897871Y-18123871D01*
X6824160Y-18251541D01*
X6679525Y-18544832D01*
X6623111Y-18681028D01*
X6517995Y-18990689D01*
X6479839Y-19133088D01*
X6416042Y-19453821D01*
X6396801Y-19599975D01*
X6375413Y-19926290D01*
X-6375413Y-19926290D01*
X-6396801Y-19599975D01*
X-6416042Y-19453821D01*
X-6479839Y-19133088D01*
X-6517995Y-18990689D01*
X-6623111Y-18681028D01*
X-6679525Y-18544832D01*
X-6824160Y-18251541D01*
X-6897871Y-18123871D01*
X-7079552Y-17851967D01*
X-7169293Y-17735013D01*
X-7384909Y-17489150D01*
X-7489150Y-17384909D01*
X-7735013Y-17169293D01*
X-7851967Y-17079552D01*
X-8123871Y-16897871D01*
X-8251541Y-16824160D01*
X-8544832Y-16679525D01*
X-8578019Y-16665779D01*
X-8573000Y-16640547D01*
X-8573000Y-16359453D01*
X-8627838Y-16083759D01*
X-8735409Y-15824062D01*
X-8891576Y-15590340D01*
X-9090340Y-15391576D01*
X-9324062Y-15235409D01*
X-9583759Y-15127838D01*
X-9859453Y-15073000D01*
X-10140547Y-15073000D01*
X-10416241Y-15127838D01*
X-10675938Y-15235409D01*
X-10909660Y-15391576D01*
X-11108424Y-15590340D01*
X-11264591Y-15824062D01*
X-11372162Y-16083759D01*
X-11427000Y-16359453D01*
X-11427000Y-16640547D01*
X-11421981Y-16665779D01*
X-11455168Y-16679525D01*
X-11748459Y-16824160D01*
X-11876129Y-16897871D01*
X-12148033Y-17079552D01*
X-12264987Y-17169293D01*
X-12510850Y-17384909D01*
X-12615091Y-17489150D01*
X-12830707Y-17735013D01*
X-12920448Y-17851967D01*
X-13102129Y-18123871D01*
X-13175840Y-18251541D01*
X-13320475Y-18544832D01*
X-13376889Y-18681028D01*
X-13482005Y-18990689D01*
X-13520161Y-19133088D01*
X-13583958Y-19453821D01*
X-13603199Y-19599975D01*
X-13624587Y-19926290D01*
X-14348000Y-19926290D01*
X-14348000Y-10618369D01*
X-14248459Y-10675840D01*
X-13955168Y-10820475D01*
X-13818972Y-10876889D01*
X-13509311Y-10982005D01*
X-13366912Y-11020161D01*
X-13046179Y-11083958D01*
X-12900025Y-11103199D01*
X-12573710Y-11124587D01*
X-12426290Y-11124587D01*
X-12099975Y-11103199D01*
X-11953821Y-11083958D01*
X-11633088Y-11020161D01*
X-11490689Y-10982005D01*
X-11181028Y-10876889D01*
X-11044832Y-10820475D01*
X-10751541Y-10675840D01*
X-10623871Y-10602129D01*
X-10351967Y-10420448D01*
X-10235013Y-10330707D01*
X-9989150Y-10115091D01*
X-9884909Y-10010850D01*
X-9810752Y-9926290D01*
X-3624587Y-9926290D01*
X-3624587Y-10073710D01*
X-3603199Y-10400025D01*
X-3583958Y-10546179D01*
X-3520161Y-10866912D01*
X-3482005Y-11009311D01*
X-3376889Y-11318972D01*
X-3320475Y-11455168D01*
X-3175840Y-11748459D01*
X-3102129Y-11876129D01*
X-2920448Y-12148033D01*
X-2830707Y-12264987D01*
X-2615091Y-12510850D01*
X-2510850Y-12615091D01*
X-2264987Y-12830707D01*
X-2148033Y-12920448D01*
X-1876129Y-13102129D01*
X-1748459Y-13175840D01*
X-1455168Y-13320475D01*
X-1318972Y-13376889D01*
X-1009311Y-13482005D01*
X-866912Y-13520161D01*
X-546179Y-13583958D01*
X-400025Y-13603199D01*
X-73710Y-13624587D01*
X73710Y-13624587D01*
X400025Y-13603199D01*
X546179Y-13583958D01*
X866912Y-13520161D01*
X1009311Y-13482005D01*
X1318972Y-13376889D01*
X1455168Y-13320475D01*
X1748459Y-13175840D01*
X1876129Y-13102129D01*
X2148033Y-12920448D01*
X2264987Y-12830707D01*
X2510850Y-12615091D01*
X2615091Y-12510850D01*
X2830707Y-12264987D01*
X2920448Y-12148033D01*
X3102129Y-11876129D01*
X3175840Y-11748459D01*
X3320475Y-11455168D01*
X3376889Y-11318972D01*
X3482005Y-11009311D01*
X3520161Y-10866912D01*
X3583958Y-10546179D01*
X3603199Y-10400025D01*
X3624587Y-10073710D01*
X3624587Y-9926290D01*
X3603199Y-9599975D01*
X3583958Y-9453821D01*
X3520161Y-9133088D01*
X3482005Y-8990689D01*
X3376889Y-8681028D01*
X3320475Y-8544832D01*
X3175840Y-8251541D01*
X3102129Y-8123871D01*
X2920448Y-7851967D01*
X2830707Y-7735013D01*
X2615091Y-7489150D01*
X2510850Y-7384909D01*
X2264987Y-7169293D01*
X2148033Y-7079552D01*
X1876129Y-6897871D01*
X1748459Y-6824160D01*
X1455168Y-6679525D01*
X1421981Y-6665779D01*
X1427000Y-6640547D01*
X1427000Y-6359453D01*
X1372162Y-6083759D01*
X1264591Y-5824062D01*
X1108424Y-5590340D01*
X909660Y-5391576D01*
X675938Y-5235409D01*
X416241Y-5127838D01*
X140547Y-5073000D01*
X-140547Y-5073000D01*
X-416241Y-5127838D01*
X-675938Y-5235409D01*
X-909660Y-5391576D01*
X-1108424Y-5590340D01*
X-1264591Y-5824062D01*
X-1372162Y-6083759D01*
X-1427000Y-6359453D01*
X-1427000Y-6640547D01*
X-1421981Y-6665779D01*
X-1455168Y-6679525D01*
X-1748459Y-6824160D01*
X-1876129Y-6897871D01*
X-2148033Y-7079552D01*
X-2264987Y-7169293D01*
X-2510850Y-7384909D01*
X-2615091Y-7489150D01*
X-2830707Y-7735013D01*
X-2920448Y-7851967D01*
X-3102129Y-8123871D01*
X-3175840Y-8251541D01*
X-3320475Y-8544832D01*
X-3376889Y-8681028D01*
X-3482005Y-8990689D01*
X-3520161Y-9133088D01*
X-3583958Y-9453821D01*
X-3603199Y-9599975D01*
X-3624587Y-9926290D01*
X-9810752Y-9926290D01*
X-9669293Y-9764987D01*
X-9579552Y-9648033D01*
X-9397871Y-9376129D01*
X-9324160Y-9248459D01*
X-9179525Y-8955168D01*
X-9123111Y-8818972D01*
X-9017995Y-8509311D01*
X-8979839Y-8366912D01*
X-8916042Y-8046179D01*
X-8896801Y-7900025D01*
X-8875413Y-7573710D01*
X-8875413Y-7426290D01*
X-8896801Y-7099975D01*
X-8916042Y-6953821D01*
X-8979839Y-6633088D01*
X-9017995Y-6490689D01*
X-9123111Y-6181028D01*
X-9179525Y-6044832D01*
X-9324160Y-5751541D01*
X-9397871Y-5623871D01*
X-9579552Y-5351967D01*
X-9669293Y-5235013D01*
X-9884909Y-4989150D01*
X-9989150Y-4884909D01*
X-10235013Y-4669293D01*
X-10351967Y-4579552D01*
X-10623871Y-4397871D01*
X-10751541Y-4324160D01*
X-11044832Y-4179525D01*
X-11078019Y-4165779D01*
X-11073000Y-4140547D01*
X-11073000Y-3859453D01*
X-11127838Y-3583759D01*
X-11235409Y-3324062D01*
X-11391576Y-3090340D01*
X-11590340Y-2891576D01*
X-11824062Y-2735409D01*
X-12083759Y-2627838D01*
X-12359453Y-2573000D01*
X-12640547Y-2573000D01*
X-12916241Y-2627838D01*
X-13175938Y-2735409D01*
X-13409660Y-2891576D01*
X-13608424Y-3090340D01*
X-13764591Y-3324062D01*
X-13872162Y-3583759D01*
X-13927000Y-3859453D01*
X-13927000Y-4140547D01*
X-13921981Y-4165779D01*
X-13955168Y-4179525D01*
X-14248459Y-4324160D01*
X-14348000Y-4381631D01*
X-14348000Y-750000D01*
X-10278072Y-750000D01*
X-10265812Y-874482D01*
X-10229502Y-994180D01*
X-10170537Y-1104494D01*
X-10091185Y-1201185D01*
X-9994494Y-1280537D01*
X-9884180Y-1339502D01*
X-9764482Y-1375812D01*
X-9640000Y-1388072D01*
X-9175750Y-1385000D01*
X-9017000Y-1226250D01*
X-9017000Y-127000D01*
X-10116250Y-127000D01*
X-10275000Y-285750D01*
X-10278072Y-750000D01*
X-14348000Y-750000D01*
X-14348000Y2141020D01*
X-12031800Y2141020D01*
X-12031800Y1858980D01*
X-11976777Y1582359D01*
X-11868845Y1321788D01*
X-11712152Y1087281D01*
X-11512719Y887848D01*
X-11278212Y731155D01*
X-11017641Y623223D01*
X-10741020Y568200D01*
X-10458980Y568200D01*
X-10277108Y604376D01*
X-10275000Y285750D01*
X-10116250Y127000D01*
X-9017000Y127000D01*
X-9017000Y147000D01*
X-8763000Y147000D01*
X-8763000Y127000D01*
X-8743000Y127000D01*
X-8743000Y-127000D01*
X-8763000Y-127000D01*
X-8763000Y-1226250D01*
X-8604250Y-1385000D01*
X-8140000Y-1388072D01*
X-8015518Y-1375812D01*
X-7895820Y-1339502D01*
X-7785506Y-1280537D01*
X-7751692Y-1252787D01*
X-7546518Y-1457961D01*
X-7239093Y-1663376D01*
X-6897501Y-1804868D01*
X-6534868Y-1877000D01*
X-6165132Y-1877000D01*
X-5802499Y-1804868D01*
X-5460907Y-1663376D01*
X-5153482Y-1457961D01*
X-5080000Y-1384479D01*
X-5006518Y-1457961D01*
X-4699093Y-1663376D01*
X-4357501Y-1804868D01*
X-3994868Y-1877000D01*
X-3625132Y-1877000D01*
X-3262499Y-1804868D01*
X-2920907Y-1663376D01*
X-2613482Y-1457961D01*
X-2540000Y-1384479D01*
X-2466518Y-1457961D01*
X-2159093Y-1663376D01*
X-1817501Y-1804868D01*
X-1454868Y-1877000D01*
X-1085132Y-1877000D01*
X-722499Y-1804868D01*
X-380907Y-1663376D01*
X-73482Y-1457961D01*
X0Y-1384479D01*
X73482Y-1457961D01*
X380907Y-1663376D01*
X722499Y-1804868D01*
X1085132Y-1877000D01*
X1454868Y-1877000D01*
X1817501Y-1804868D01*
X2159093Y-1663376D01*
X2466518Y-1457961D01*
X2540000Y-1384479D01*
X2613482Y-1457961D01*
X2920907Y-1663376D01*
X3262499Y-1804868D01*
X3625132Y-1877000D01*
X3994868Y-1877000D01*
X4357501Y-1804868D01*
X4699093Y-1663376D01*
X5006518Y-1457961D01*
X5080000Y-1384479D01*
X5153482Y-1457961D01*
X5460907Y-1663376D01*
X5802499Y-1804868D01*
X6165132Y-1877000D01*
X6534868Y-1877000D01*
X6897501Y-1804868D01*
X7239093Y-1663376D01*
X7546518Y-1457961D01*
X7620000Y-1384479D01*
X7693482Y-1457961D01*
X8000907Y-1663376D01*
X8342499Y-1804868D01*
X8705132Y-1877000D01*
X9074868Y-1877000D01*
X9437501Y-1804868D01*
X9779093Y-1663376D01*
X10086518Y-1457961D01*
X10347961Y-1196518D01*
X10553376Y-889093D01*
X10694868Y-547501D01*
X10767000Y-184868D01*
X10767000Y184868D01*
X10694868Y547501D01*
X10553376Y889093D01*
X10347961Y1196518D01*
X10086518Y1457961D01*
X9779093Y1663376D01*
X9437501Y1804868D01*
X9074868Y1877000D01*
X8705132Y1877000D01*
X8342499Y1804868D01*
X8000907Y1663376D01*
X7693482Y1457961D01*
X7620000Y1384479D01*
X7546518Y1457961D01*
X7239093Y1663376D01*
X6897501Y1804868D01*
X6534868Y1877000D01*
X6165132Y1877000D01*
X5802499Y1804868D01*
X5460907Y1663376D01*
X5153482Y1457961D01*
X5080000Y1384479D01*
X5006518Y1457961D01*
X4699093Y1663376D01*
X4357501Y1804868D01*
X3994868Y1877000D01*
X3625132Y1877000D01*
X3262499Y1804868D01*
X2920907Y1663376D01*
X2613482Y1457961D01*
X2540000Y1384479D01*
X2466518Y1457961D01*
X2403371Y1500155D01*
X2478212Y1531155D01*
X2712719Y1687848D01*
X2912152Y1887281D01*
X3068845Y2121788D01*
X3176777Y2382359D01*
X3231800Y2658980D01*
X3231800Y2941020D01*
X3176777Y3217641D01*
X3068845Y3478212D01*
X2912152Y3712719D01*
X2912061Y3712811D01*
X2973000Y3773750D01*
X2973000Y4923000D01*
X3227000Y4923000D01*
X3227000Y3773750D01*
X3385750Y3615000D01*
X4150000Y3611928D01*
X4274482Y3624188D01*
X4394180Y3660498D01*
X4504494Y3719463D01*
X4601185Y3798815D01*
X4680537Y3895506D01*
X4739502Y4005820D01*
X4775812Y4125518D01*
X4788072Y4250000D01*
X4785000Y4764250D01*
X4626250Y4923000D01*
X3227000Y4923000D01*
X2973000Y4923000D01*
X2953000Y4923000D01*
X2953000Y5177000D01*
X2973000Y5177000D01*
X2973000Y5197000D01*
X3227000Y5197000D01*
X3227000Y5177000D01*
X4626250Y5177000D01*
X4785000Y5335750D01*
X4788072Y5850000D01*
X4775812Y5974482D01*
X4739502Y6094180D01*
X4680537Y6204494D01*
X4643191Y6250000D01*
X4680537Y6295506D01*
X4739502Y6405820D01*
X4775812Y6525518D01*
X4788072Y6650000D01*
X4785000Y7314250D01*
X4626250Y7473000D01*
X3377000Y7473000D01*
X3377000Y7453000D01*
X3123000Y7453000D01*
X3123000Y7473000D01*
X1873750Y7473000D01*
X1715000Y7314250D01*
X1712151Y6698189D01*
X1670931Y6710693D01*
X1450000Y6732453D01*
X1150000Y6732453D01*
X975000Y6715217D01*
X800000Y6732453D01*
X500000Y6732453D01*
X325000Y6715217D01*
X150000Y6732453D01*
X-150000Y6732453D01*
X-325000Y6715217D01*
X-500000Y6732453D01*
X-800000Y6732453D01*
X-1020931Y6710693D01*
X-1233371Y6646250D01*
X-1429157Y6541600D01*
X-1600765Y6400765D01*
X-1648814Y6342218D01*
X-1695506Y6380537D01*
X-1758030Y6413957D01*
X-1724188Y6525518D01*
X-1711928Y6650000D01*
X-1715000Y7314250D01*
X-1873750Y7473000D01*
X-3123000Y7473000D01*
X-3123000Y7453000D01*
X-3377000Y7453000D01*
X-3377000Y7473000D01*
X-4626250Y7473000D01*
X-4785000Y7314250D01*
X-4788072Y6650000D01*
X-4775812Y6525518D01*
X-4739502Y6405820D01*
X-4680537Y6295506D01*
X-4643191Y6250000D01*
X-4680537Y6204494D01*
X-4739502Y6094180D01*
X-4775812Y5974482D01*
X-4788072Y5850000D01*
X-4785000Y5335750D01*
X-4626250Y5177000D01*
X-3227000Y5177000D01*
X-3227000Y5197000D01*
X-2973000Y5197000D01*
X-2973000Y5177000D01*
X-2953000Y5177000D01*
X-2953000Y4923000D01*
X-2973000Y4923000D01*
X-2973000Y3773750D01*
X-2814250Y3615000D01*
X-2050000Y3611928D01*
X-2042187Y3612697D01*
X-1985209Y3502600D01*
X-1907151Y3404861D01*
X-1811524Y3324228D01*
X-1790727Y3312753D01*
X-1741600Y3220843D01*
X-1600765Y3049235D01*
X-1429157Y2908400D01*
X-1233371Y2803750D01*
X-1020931Y2739307D01*
X-800000Y2717547D01*
X-500000Y2717547D01*
X-325000Y2734783D01*
X-150000Y2717547D01*
X150000Y2717547D01*
X187461Y2721237D01*
X252293Y2599945D01*
X252294Y2599944D01*
X408999Y2408998D01*
X419665Y2400244D01*
X423223Y2382359D01*
X531155Y2121788D01*
X687848Y1887281D01*
X762337Y1812792D01*
X722499Y1804868D01*
X380907Y1663376D01*
X73482Y1457961D01*
X0Y1384479D01*
X-73482Y1457961D01*
X-380907Y1663376D01*
X-722499Y1804868D01*
X-1085132Y1877000D01*
X-1454868Y1877000D01*
X-1817501Y1804868D01*
X-2159093Y1663376D01*
X-2466518Y1457961D01*
X-2540000Y1384479D01*
X-2613482Y1457961D01*
X-2920907Y1663376D01*
X-3262499Y1804868D01*
X-3625132Y1877000D01*
X-3994868Y1877000D01*
X-4357501Y1804868D01*
X-4699093Y1663376D01*
X-5006518Y1457961D01*
X-5080000Y1384479D01*
X-5153482Y1457961D01*
X-5460907Y1663376D01*
X-5802499Y1804868D01*
X-6165132Y1877000D01*
X-6453577Y1877000D01*
X-7419722Y2843144D01*
X-7458998Y2891002D01*
X-7649944Y3047707D01*
X-7867793Y3164150D01*
X-8104173Y3235855D01*
X-8288401Y3254000D01*
X-8350000Y3260067D01*
X-8411599Y3254000D01*
X-9899571Y3254000D01*
X-9921788Y3268845D01*
X-10182359Y3376777D01*
X-10458980Y3431800D01*
X-10741020Y3431800D01*
X-11017641Y3376777D01*
X-11278212Y3268845D01*
X-11512719Y3112152D01*
X-11712152Y2912719D01*
X-11868845Y2678212D01*
X-11976777Y2417641D01*
X-12031800Y2141020D01*
X-14348000Y2141020D01*
X-14348000Y4250000D01*
X-4788072Y4250000D01*
X-4775812Y4125518D01*
X-4739502Y4005820D01*
X-4680537Y3895506D01*
X-4601185Y3798815D01*
X-4504494Y3719463D01*
X-4394180Y3660498D01*
X-4274482Y3624188D01*
X-4150000Y3611928D01*
X-3385750Y3615000D01*
X-3227000Y3773750D01*
X-3227000Y4923000D01*
X-4626250Y4923000D01*
X-4785000Y4764250D01*
X-4788072Y4250000D01*
X-14348000Y4250000D01*
X-14348000Y8348000D01*
X-4787138Y8348000D01*
X-4785000Y7885750D01*
G04 #@! TA.AperFunction,Conductor*
D17*
G36*
X-4785000Y7885750D02*
G01*
X-4626250Y7727000D01*
X-3377000Y7727000D01*
X-3377000Y7747000D01*
X-3123000Y7747000D01*
X-3123000Y7727000D01*
X-1873750Y7727000D01*
X-1715000Y7885750D01*
X-1712862Y8348000D01*
X1712862Y8348000D01*
X1715000Y7885750D01*
X1873750Y7727000D01*
X3123000Y7727000D01*
X3123000Y7747000D01*
X3377000Y7747000D01*
X3377000Y7727000D01*
X4626250Y7727000D01*
X4785000Y7885750D01*
X4787138Y8348000D01*
X14348000Y8348000D01*
X14348000Y-4381631D01*
X14248459Y-4324160D01*
X13955168Y-4179525D01*
X13921981Y-4165779D01*
X13927000Y-4140547D01*
X13927000Y-3859453D01*
X13872162Y-3583759D01*
X13764591Y-3324062D01*
X13608424Y-3090340D01*
X13409660Y-2891576D01*
X13175938Y-2735409D01*
X12916241Y-2627838D01*
X12640547Y-2573000D01*
X12359453Y-2573000D01*
X12083759Y-2627838D01*
X11824062Y-2735409D01*
X11590340Y-2891576D01*
X11391576Y-3090340D01*
X11235409Y-3324062D01*
X11127838Y-3583759D01*
X11073000Y-3859453D01*
X11073000Y-4140547D01*
X11078019Y-4165779D01*
X11044832Y-4179525D01*
X10751541Y-4324160D01*
X10623871Y-4397871D01*
X10351967Y-4579552D01*
X10235013Y-4669293D01*
X9989150Y-4884909D01*
X9884909Y-4989150D01*
X9669293Y-5235013D01*
X9579552Y-5351967D01*
X9397871Y-5623871D01*
X9324160Y-5751541D01*
X9179525Y-6044832D01*
X9123111Y-6181028D01*
X9017995Y-6490689D01*
X8979839Y-6633088D01*
X8916042Y-6953821D01*
X8896801Y-7099975D01*
X8875413Y-7426290D01*
X8875413Y-7573710D01*
X8896801Y-7900025D01*
X8916042Y-8046179D01*
X8979839Y-8366912D01*
X9017995Y-8509311D01*
X9123111Y-8818972D01*
X9179525Y-8955168D01*
X9324160Y-9248459D01*
X9397871Y-9376129D01*
X9579552Y-9648033D01*
X9669293Y-9764987D01*
X9884909Y-10010850D01*
X9989150Y-10115091D01*
X10235013Y-10330707D01*
X10351967Y-10420448D01*
X10623871Y-10602129D01*
X10751541Y-10675840D01*
X11044832Y-10820475D01*
X11181028Y-10876889D01*
X11490689Y-10982005D01*
X11633088Y-11020161D01*
X11953821Y-11083958D01*
X12099975Y-11103199D01*
X12426290Y-11124587D01*
X12573710Y-11124587D01*
X12900025Y-11103199D01*
X13046179Y-11083958D01*
X13366912Y-11020161D01*
X13509311Y-10982005D01*
X13818972Y-10876889D01*
X13955168Y-10820475D01*
X14248459Y-10675840D01*
X14348000Y-10618369D01*
X14348001Y-29381631D01*
X14248459Y-29324160D01*
X13955168Y-29179525D01*
X13921981Y-29165779D01*
X13927000Y-29140547D01*
X13927000Y-28859453D01*
X13872162Y-28583759D01*
X13764591Y-28324062D01*
X13608424Y-28090340D01*
X13409660Y-27891576D01*
X13175938Y-27735409D01*
X12916241Y-27627838D01*
X12640547Y-27573000D01*
X12359453Y-27573000D01*
X12083759Y-27627838D01*
X11824062Y-27735409D01*
X11590340Y-27891576D01*
X11391576Y-28090340D01*
X11235409Y-28324062D01*
X11127838Y-28583759D01*
X11073000Y-28859453D01*
X11073000Y-29140547D01*
X11078019Y-29165779D01*
X11044832Y-29179525D01*
X10751541Y-29324160D01*
X10623871Y-29397871D01*
X10351967Y-29579552D01*
X10235013Y-29669293D01*
X9989150Y-29884909D01*
X9884909Y-29989150D01*
X9669293Y-30235013D01*
X9579552Y-30351967D01*
X9397871Y-30623871D01*
X9324160Y-30751541D01*
X9179525Y-31044832D01*
X9123111Y-31181028D01*
X9017995Y-31490689D01*
X8979839Y-31633088D01*
X8916042Y-31953821D01*
X8896801Y-32099975D01*
X8875413Y-32426290D01*
X8875413Y-32573710D01*
X8896801Y-32900025D01*
X8916042Y-33046179D01*
X8979839Y-33366912D01*
X9017995Y-33509311D01*
X9123111Y-33818972D01*
X9179525Y-33955168D01*
X9324160Y-34248459D01*
X9381631Y-34348000D01*
X-9381631Y-34348000D01*
X-9324160Y-34248459D01*
X-9179525Y-33955168D01*
X-9123111Y-33818972D01*
X-9017995Y-33509311D01*
X-8979839Y-33366912D01*
X-8916042Y-33046179D01*
X-8896801Y-32900025D01*
X-8875413Y-32573710D01*
X-8875413Y-32426290D01*
X-8896801Y-32099975D01*
X-8916042Y-31953821D01*
X-8979839Y-31633088D01*
X-9017995Y-31490689D01*
X-9123111Y-31181028D01*
X-9179525Y-31044832D01*
X-9324160Y-30751541D01*
X-9397871Y-30623871D01*
X-9579552Y-30351967D01*
X-9669293Y-30235013D01*
X-9884909Y-29989150D01*
X-9947769Y-29926290D01*
X-3624587Y-29926290D01*
X-3624587Y-30073710D01*
X-3603199Y-30400025D01*
X-3583958Y-30546179D01*
X-3520161Y-30866912D01*
X-3482005Y-31009311D01*
X-3376889Y-31318972D01*
X-3320475Y-31455168D01*
X-3175840Y-31748459D01*
X-3102129Y-31876129D01*
X-2920448Y-32148033D01*
X-2830707Y-32264987D01*
X-2615091Y-32510850D01*
X-2510850Y-32615091D01*
X-2264987Y-32830707D01*
X-2148033Y-32920448D01*
X-1876129Y-33102129D01*
X-1748459Y-33175840D01*
X-1455168Y-33320475D01*
X-1318972Y-33376889D01*
X-1009311Y-33482005D01*
X-866912Y-33520161D01*
X-546179Y-33583958D01*
X-400025Y-33603199D01*
X-73710Y-33624587D01*
X73710Y-33624587D01*
X400025Y-33603199D01*
X546179Y-33583958D01*
X866912Y-33520161D01*
X1009311Y-33482005D01*
X1318972Y-33376889D01*
X1455168Y-33320475D01*
X1748459Y-33175840D01*
X1876129Y-33102129D01*
X2148033Y-32920448D01*
X2264987Y-32830707D01*
X2510850Y-32615091D01*
X2615091Y-32510850D01*
X2830707Y-32264987D01*
X2920448Y-32148033D01*
X3102129Y-31876129D01*
X3175840Y-31748459D01*
X3320475Y-31455168D01*
X3376889Y-31318972D01*
X3482005Y-31009311D01*
X3520161Y-30866912D01*
X3583958Y-30546179D01*
X3603199Y-30400025D01*
X3624587Y-30073710D01*
X3624587Y-29926290D01*
X3603199Y-29599975D01*
X3583958Y-29453821D01*
X3520161Y-29133088D01*
X3482005Y-28990689D01*
X3376889Y-28681028D01*
X3320475Y-28544832D01*
X3175840Y-28251541D01*
X3102129Y-28123871D01*
X2920448Y-27851967D01*
X2830707Y-27735013D01*
X2615091Y-27489150D01*
X2510850Y-27384909D01*
X2264987Y-27169293D01*
X2148033Y-27079552D01*
X1876129Y-26897871D01*
X1748459Y-26824160D01*
X1455168Y-26679525D01*
X1421981Y-26665779D01*
X1427000Y-26640547D01*
X1427000Y-26359453D01*
X1372162Y-26083759D01*
X1264591Y-25824062D01*
X1108424Y-25590340D01*
X909660Y-25391576D01*
X675938Y-25235409D01*
X416241Y-25127838D01*
X140547Y-25073000D01*
X-140547Y-25073000D01*
X-416241Y-25127838D01*
X-675938Y-25235409D01*
X-909660Y-25391576D01*
X-1108424Y-25590340D01*
X-1264591Y-25824062D01*
X-1372162Y-26083759D01*
X-1427000Y-26359453D01*
X-1427000Y-26640547D01*
X-1421981Y-26665779D01*
X-1455168Y-26679525D01*
X-1748459Y-26824160D01*
X-1876129Y-26897871D01*
X-2148033Y-27079552D01*
X-2264987Y-27169293D01*
X-2510850Y-27384909D01*
X-2615091Y-27489150D01*
X-2830707Y-27735013D01*
X-2920448Y-27851967D01*
X-3102129Y-28123871D01*
X-3175840Y-28251541D01*
X-3320475Y-28544832D01*
X-3376889Y-28681028D01*
X-3482005Y-28990689D01*
X-3520161Y-29133088D01*
X-3583958Y-29453821D01*
X-3603199Y-29599975D01*
X-3624587Y-29926290D01*
X-9947769Y-29926290D01*
X-9989150Y-29884909D01*
X-10235013Y-29669293D01*
X-10351967Y-29579552D01*
X-10623871Y-29397871D01*
X-10751541Y-29324160D01*
X-11044832Y-29179525D01*
X-11078019Y-29165779D01*
X-11073000Y-29140547D01*
X-11073000Y-28859453D01*
X-11127838Y-28583759D01*
X-11235409Y-28324062D01*
X-11391576Y-28090340D01*
X-11590340Y-27891576D01*
X-11824062Y-27735409D01*
X-12083759Y-27627838D01*
X-12359453Y-27573000D01*
X-12640547Y-27573000D01*
X-12916241Y-27627838D01*
X-13175938Y-27735409D01*
X-13409660Y-27891576D01*
X-13608424Y-28090340D01*
X-13764591Y-28324062D01*
X-13872162Y-28583759D01*
X-13927000Y-28859453D01*
X-13927000Y-29140547D01*
X-13921981Y-29165779D01*
X-13955168Y-29179525D01*
X-14248459Y-29324160D01*
X-14348000Y-29381631D01*
X-14348000Y-19926290D01*
X-13624587Y-19926290D01*
X-13624587Y-20073710D01*
X-13603199Y-20400025D01*
X-13583958Y-20546179D01*
X-13520161Y-20866912D01*
X-13482005Y-21009311D01*
X-13376889Y-21318972D01*
X-13320475Y-21455168D01*
X-13175840Y-21748459D01*
X-13102129Y-21876129D01*
X-12920448Y-22148033D01*
X-12830707Y-22264987D01*
X-12615091Y-22510850D01*
X-12510850Y-22615091D01*
X-12264987Y-22830707D01*
X-12148033Y-22920448D01*
X-11876129Y-23102129D01*
X-11748459Y-23175840D01*
X-11455168Y-23320475D01*
X-11318972Y-23376889D01*
X-11009311Y-23482005D01*
X-10866912Y-23520161D01*
X-10546179Y-23583958D01*
X-10400025Y-23603199D01*
X-10073710Y-23624587D01*
X-9926290Y-23624587D01*
X-9599975Y-23603199D01*
X-9453821Y-23583958D01*
X-9133088Y-23520161D01*
X-8990689Y-23482005D01*
X-8681028Y-23376889D01*
X-8544832Y-23320475D01*
X-8251541Y-23175840D01*
X-8123871Y-23102129D01*
X-7851967Y-22920448D01*
X-7735013Y-22830707D01*
X-7489150Y-22615091D01*
X-7384909Y-22510850D01*
X-7169293Y-22264987D01*
X-7079552Y-22148033D01*
X-6897871Y-21876129D01*
X-6824160Y-21748459D01*
X-6679525Y-21455168D01*
X-6623111Y-21318972D01*
X-6517995Y-21009311D01*
X-6479839Y-20866912D01*
X-6416042Y-20546179D01*
X-6396801Y-20400025D01*
X-6375413Y-20073710D01*
X-6375413Y-19926290D01*
X6375413Y-19926290D01*
X6375413Y-20073710D01*
X6396801Y-20400025D01*
X6416042Y-20546179D01*
X6479839Y-20866912D01*
X6517995Y-21009311D01*
X6623111Y-21318972D01*
X6679525Y-21455168D01*
X6824160Y-21748459D01*
X6897871Y-21876129D01*
X7079552Y-22148033D01*
X7169293Y-22264987D01*
X7384909Y-22510850D01*
X7489150Y-22615091D01*
X7735013Y-22830707D01*
X7851967Y-22920448D01*
X8123871Y-23102129D01*
X8251541Y-23175840D01*
X8544832Y-23320475D01*
X8681028Y-23376889D01*
X8990689Y-23482005D01*
X9133088Y-23520161D01*
X9453821Y-23583958D01*
X9599975Y-23603199D01*
X9926290Y-23624587D01*
X10073710Y-23624587D01*
X10400025Y-23603199D01*
X10546179Y-23583958D01*
X10866912Y-23520161D01*
X11009311Y-23482005D01*
X11318972Y-23376889D01*
X11455168Y-23320475D01*
X11748459Y-23175840D01*
X11876129Y-23102129D01*
X12148033Y-22920448D01*
X12264987Y-22830707D01*
X12510850Y-22615091D01*
X12615091Y-22510850D01*
X12830707Y-22264987D01*
X12920448Y-22148033D01*
X13102129Y-21876129D01*
X13175840Y-21748459D01*
X13320475Y-21455168D01*
X13376889Y-21318972D01*
X13482005Y-21009311D01*
X13520161Y-20866912D01*
X13583958Y-20546179D01*
X13603199Y-20400025D01*
X13624587Y-20073710D01*
X13624587Y-19926290D01*
X13603199Y-19599975D01*
X13583958Y-19453821D01*
X13520161Y-19133088D01*
X13482005Y-18990689D01*
X13376889Y-18681028D01*
X13320475Y-18544832D01*
X13175840Y-18251541D01*
X13102129Y-18123871D01*
X12920448Y-17851967D01*
X12830707Y-17735013D01*
X12615091Y-17489150D01*
X12510850Y-17384909D01*
X12264987Y-17169293D01*
X12148033Y-17079552D01*
X11876129Y-16897871D01*
X11748459Y-16824160D01*
X11455168Y-16679525D01*
X11421981Y-16665779D01*
X11427000Y-16640547D01*
X11427000Y-16359453D01*
X11372162Y-16083759D01*
X11264591Y-15824062D01*
X11108424Y-15590340D01*
X10909660Y-15391576D01*
X10675938Y-15235409D01*
X10416241Y-15127838D01*
X10140547Y-15073000D01*
X9859453Y-15073000D01*
X9583759Y-15127838D01*
X9324062Y-15235409D01*
X9090340Y-15391576D01*
X8891576Y-15590340D01*
X8735409Y-15824062D01*
X8627838Y-16083759D01*
X8573000Y-16359453D01*
X8573000Y-16640547D01*
X8578019Y-16665779D01*
X8544832Y-16679525D01*
X8251541Y-16824160D01*
X8123871Y-16897871D01*
X7851967Y-17079552D01*
X7735013Y-17169293D01*
X7489150Y-17384909D01*
X7384909Y-17489150D01*
X7169293Y-17735013D01*
X7079552Y-17851967D01*
X6897871Y-18123871D01*
X6824160Y-18251541D01*
X6679525Y-18544832D01*
X6623111Y-18681028D01*
X6517995Y-18990689D01*
X6479839Y-19133088D01*
X6416042Y-19453821D01*
X6396801Y-19599975D01*
X6375413Y-19926290D01*
X-6375413Y-19926290D01*
X-6396801Y-19599975D01*
X-6416042Y-19453821D01*
X-6479839Y-19133088D01*
X-6517995Y-18990689D01*
X-6623111Y-18681028D01*
X-6679525Y-18544832D01*
X-6824160Y-18251541D01*
X-6897871Y-18123871D01*
X-7079552Y-17851967D01*
X-7169293Y-17735013D01*
X-7384909Y-17489150D01*
X-7489150Y-17384909D01*
X-7735013Y-17169293D01*
X-7851967Y-17079552D01*
X-8123871Y-16897871D01*
X-8251541Y-16824160D01*
X-8544832Y-16679525D01*
X-8578019Y-16665779D01*
X-8573000Y-16640547D01*
X-8573000Y-16359453D01*
X-8627838Y-16083759D01*
X-8735409Y-15824062D01*
X-8891576Y-15590340D01*
X-9090340Y-15391576D01*
X-9324062Y-15235409D01*
X-9583759Y-15127838D01*
X-9859453Y-15073000D01*
X-10140547Y-15073000D01*
X-10416241Y-15127838D01*
X-10675938Y-15235409D01*
X-10909660Y-15391576D01*
X-11108424Y-15590340D01*
X-11264591Y-15824062D01*
X-11372162Y-16083759D01*
X-11427000Y-16359453D01*
X-11427000Y-16640547D01*
X-11421981Y-16665779D01*
X-11455168Y-16679525D01*
X-11748459Y-16824160D01*
X-11876129Y-16897871D01*
X-12148033Y-17079552D01*
X-12264987Y-17169293D01*
X-12510850Y-17384909D01*
X-12615091Y-17489150D01*
X-12830707Y-17735013D01*
X-12920448Y-17851967D01*
X-13102129Y-18123871D01*
X-13175840Y-18251541D01*
X-13320475Y-18544832D01*
X-13376889Y-18681028D01*
X-13482005Y-18990689D01*
X-13520161Y-19133088D01*
X-13583958Y-19453821D01*
X-13603199Y-19599975D01*
X-13624587Y-19926290D01*
X-14348000Y-19926290D01*
X-14348000Y-10618369D01*
X-14248459Y-10675840D01*
X-13955168Y-10820475D01*
X-13818972Y-10876889D01*
X-13509311Y-10982005D01*
X-13366912Y-11020161D01*
X-13046179Y-11083958D01*
X-12900025Y-11103199D01*
X-12573710Y-11124587D01*
X-12426290Y-11124587D01*
X-12099975Y-11103199D01*
X-11953821Y-11083958D01*
X-11633088Y-11020161D01*
X-11490689Y-10982005D01*
X-11181028Y-10876889D01*
X-11044832Y-10820475D01*
X-10751541Y-10675840D01*
X-10623871Y-10602129D01*
X-10351967Y-10420448D01*
X-10235013Y-10330707D01*
X-9989150Y-10115091D01*
X-9884909Y-10010850D01*
X-9810752Y-9926290D01*
X-3624587Y-9926290D01*
X-3624587Y-10073710D01*
X-3603199Y-10400025D01*
X-3583958Y-10546179D01*
X-3520161Y-10866912D01*
X-3482005Y-11009311D01*
X-3376889Y-11318972D01*
X-3320475Y-11455168D01*
X-3175840Y-11748459D01*
X-3102129Y-11876129D01*
X-2920448Y-12148033D01*
X-2830707Y-12264987D01*
X-2615091Y-12510850D01*
X-2510850Y-12615091D01*
X-2264987Y-12830707D01*
X-2148033Y-12920448D01*
X-1876129Y-13102129D01*
X-1748459Y-13175840D01*
X-1455168Y-13320475D01*
X-1318972Y-13376889D01*
X-1009311Y-13482005D01*
X-866912Y-13520161D01*
X-546179Y-13583958D01*
X-400025Y-13603199D01*
X-73710Y-13624587D01*
X73710Y-13624587D01*
X400025Y-13603199D01*
X546179Y-13583958D01*
X866912Y-13520161D01*
X1009311Y-13482005D01*
X1318972Y-13376889D01*
X1455168Y-13320475D01*
X1748459Y-13175840D01*
X1876129Y-13102129D01*
X2148033Y-12920448D01*
X2264987Y-12830707D01*
X2510850Y-12615091D01*
X2615091Y-12510850D01*
X2830707Y-12264987D01*
X2920448Y-12148033D01*
X3102129Y-11876129D01*
X3175840Y-11748459D01*
X3320475Y-11455168D01*
X3376889Y-11318972D01*
X3482005Y-11009311D01*
X3520161Y-10866912D01*
X3583958Y-10546179D01*
X3603199Y-10400025D01*
X3624587Y-10073710D01*
X3624587Y-9926290D01*
X3603199Y-9599975D01*
X3583958Y-9453821D01*
X3520161Y-9133088D01*
X3482005Y-8990689D01*
X3376889Y-8681028D01*
X3320475Y-8544832D01*
X3175840Y-8251541D01*
X3102129Y-8123871D01*
X2920448Y-7851967D01*
X2830707Y-7735013D01*
X2615091Y-7489150D01*
X2510850Y-7384909D01*
X2264987Y-7169293D01*
X2148033Y-7079552D01*
X1876129Y-6897871D01*
X1748459Y-6824160D01*
X1455168Y-6679525D01*
X1421981Y-6665779D01*
X1427000Y-6640547D01*
X1427000Y-6359453D01*
X1372162Y-6083759D01*
X1264591Y-5824062D01*
X1108424Y-5590340D01*
X909660Y-5391576D01*
X675938Y-5235409D01*
X416241Y-5127838D01*
X140547Y-5073000D01*
X-140547Y-5073000D01*
X-416241Y-5127838D01*
X-675938Y-5235409D01*
X-909660Y-5391576D01*
X-1108424Y-5590340D01*
X-1264591Y-5824062D01*
X-1372162Y-6083759D01*
X-1427000Y-6359453D01*
X-1427000Y-6640547D01*
X-1421981Y-6665779D01*
X-1455168Y-6679525D01*
X-1748459Y-6824160D01*
X-1876129Y-6897871D01*
X-2148033Y-7079552D01*
X-2264987Y-7169293D01*
X-2510850Y-7384909D01*
X-2615091Y-7489150D01*
X-2830707Y-7735013D01*
X-2920448Y-7851967D01*
X-3102129Y-8123871D01*
X-3175840Y-8251541D01*
X-3320475Y-8544832D01*
X-3376889Y-8681028D01*
X-3482005Y-8990689D01*
X-3520161Y-9133088D01*
X-3583958Y-9453821D01*
X-3603199Y-9599975D01*
X-3624587Y-9926290D01*
X-9810752Y-9926290D01*
X-9669293Y-9764987D01*
X-9579552Y-9648033D01*
X-9397871Y-9376129D01*
X-9324160Y-9248459D01*
X-9179525Y-8955168D01*
X-9123111Y-8818972D01*
X-9017995Y-8509311D01*
X-8979839Y-8366912D01*
X-8916042Y-8046179D01*
X-8896801Y-7900025D01*
X-8875413Y-7573710D01*
X-8875413Y-7426290D01*
X-8896801Y-7099975D01*
X-8916042Y-6953821D01*
X-8979839Y-6633088D01*
X-9017995Y-6490689D01*
X-9123111Y-6181028D01*
X-9179525Y-6044832D01*
X-9324160Y-5751541D01*
X-9397871Y-5623871D01*
X-9579552Y-5351967D01*
X-9669293Y-5235013D01*
X-9884909Y-4989150D01*
X-9989150Y-4884909D01*
X-10235013Y-4669293D01*
X-10351967Y-4579552D01*
X-10623871Y-4397871D01*
X-10751541Y-4324160D01*
X-11044832Y-4179525D01*
X-11078019Y-4165779D01*
X-11073000Y-4140547D01*
X-11073000Y-3859453D01*
X-11127838Y-3583759D01*
X-11235409Y-3324062D01*
X-11391576Y-3090340D01*
X-11590340Y-2891576D01*
X-11824062Y-2735409D01*
X-12083759Y-2627838D01*
X-12359453Y-2573000D01*
X-12640547Y-2573000D01*
X-12916241Y-2627838D01*
X-13175938Y-2735409D01*
X-13409660Y-2891576D01*
X-13608424Y-3090340D01*
X-13764591Y-3324062D01*
X-13872162Y-3583759D01*
X-13927000Y-3859453D01*
X-13927000Y-4140547D01*
X-13921981Y-4165779D01*
X-13955168Y-4179525D01*
X-14248459Y-4324160D01*
X-14348000Y-4381631D01*
X-14348000Y-750000D01*
X-10278072Y-750000D01*
X-10265812Y-874482D01*
X-10229502Y-994180D01*
X-10170537Y-1104494D01*
X-10091185Y-1201185D01*
X-9994494Y-1280537D01*
X-9884180Y-1339502D01*
X-9764482Y-1375812D01*
X-9640000Y-1388072D01*
X-9175750Y-1385000D01*
X-9017000Y-1226250D01*
X-9017000Y-127000D01*
X-10116250Y-127000D01*
X-10275000Y-285750D01*
X-10278072Y-750000D01*
X-14348000Y-750000D01*
X-14348000Y2141020D01*
X-12031800Y2141020D01*
X-12031800Y1858980D01*
X-11976777Y1582359D01*
X-11868845Y1321788D01*
X-11712152Y1087281D01*
X-11512719Y887848D01*
X-11278212Y731155D01*
X-11017641Y623223D01*
X-10741020Y568200D01*
X-10458980Y568200D01*
X-10277108Y604376D01*
X-10275000Y285750D01*
X-10116250Y127000D01*
X-9017000Y127000D01*
X-9017000Y147000D01*
X-8763000Y147000D01*
X-8763000Y127000D01*
X-8743000Y127000D01*
X-8743000Y-127000D01*
X-8763000Y-127000D01*
X-8763000Y-1226250D01*
X-8604250Y-1385000D01*
X-8140000Y-1388072D01*
X-8015518Y-1375812D01*
X-7895820Y-1339502D01*
X-7785506Y-1280537D01*
X-7751692Y-1252787D01*
X-7546518Y-1457961D01*
X-7239093Y-1663376D01*
X-6897501Y-1804868D01*
X-6534868Y-1877000D01*
X-6165132Y-1877000D01*
X-5802499Y-1804868D01*
X-5460907Y-1663376D01*
X-5153482Y-1457961D01*
X-5080000Y-1384479D01*
X-5006518Y-1457961D01*
X-4699093Y-1663376D01*
X-4357501Y-1804868D01*
X-3994868Y-1877000D01*
X-3625132Y-1877000D01*
X-3262499Y-1804868D01*
X-2920907Y-1663376D01*
X-2613482Y-1457961D01*
X-2540000Y-1384479D01*
X-2466518Y-1457961D01*
X-2159093Y-1663376D01*
X-1817501Y-1804868D01*
X-1454868Y-1877000D01*
X-1085132Y-1877000D01*
X-722499Y-1804868D01*
X-380907Y-1663376D01*
X-73482Y-1457961D01*
X0Y-1384479D01*
X73482Y-1457961D01*
X380907Y-1663376D01*
X722499Y-1804868D01*
X1085132Y-1877000D01*
X1454868Y-1877000D01*
X1817501Y-1804868D01*
X2159093Y-1663376D01*
X2466518Y-1457961D01*
X2540000Y-1384479D01*
X2613482Y-1457961D01*
X2920907Y-1663376D01*
X3262499Y-1804868D01*
X3625132Y-1877000D01*
X3994868Y-1877000D01*
X4357501Y-1804868D01*
X4699093Y-1663376D01*
X5006518Y-1457961D01*
X5080000Y-1384479D01*
X5153482Y-1457961D01*
X5460907Y-1663376D01*
X5802499Y-1804868D01*
X6165132Y-1877000D01*
X6534868Y-1877000D01*
X6897501Y-1804868D01*
X7239093Y-1663376D01*
X7546518Y-1457961D01*
X7620000Y-1384479D01*
X7693482Y-1457961D01*
X8000907Y-1663376D01*
X8342499Y-1804868D01*
X8705132Y-1877000D01*
X9074868Y-1877000D01*
X9437501Y-1804868D01*
X9779093Y-1663376D01*
X10086518Y-1457961D01*
X10347961Y-1196518D01*
X10553376Y-889093D01*
X10694868Y-547501D01*
X10767000Y-184868D01*
X10767000Y184868D01*
X10694868Y547501D01*
X10553376Y889093D01*
X10347961Y1196518D01*
X10086518Y1457961D01*
X9779093Y1663376D01*
X9437501Y1804868D01*
X9074868Y1877000D01*
X8705132Y1877000D01*
X8342499Y1804868D01*
X8000907Y1663376D01*
X7693482Y1457961D01*
X7620000Y1384479D01*
X7546518Y1457961D01*
X7239093Y1663376D01*
X6897501Y1804868D01*
X6534868Y1877000D01*
X6165132Y1877000D01*
X5802499Y1804868D01*
X5460907Y1663376D01*
X5153482Y1457961D01*
X5080000Y1384479D01*
X5006518Y1457961D01*
X4699093Y1663376D01*
X4357501Y1804868D01*
X3994868Y1877000D01*
X3625132Y1877000D01*
X3262499Y1804868D01*
X2920907Y1663376D01*
X2613482Y1457961D01*
X2540000Y1384479D01*
X2466518Y1457961D01*
X2403371Y1500155D01*
X2478212Y1531155D01*
X2712719Y1687848D01*
X2912152Y1887281D01*
X3068845Y2121788D01*
X3176777Y2382359D01*
X3231800Y2658980D01*
X3231800Y2941020D01*
X3176777Y3217641D01*
X3068845Y3478212D01*
X2912152Y3712719D01*
X2912061Y3712811D01*
X2973000Y3773750D01*
X2973000Y4923000D01*
X3227000Y4923000D01*
X3227000Y3773750D01*
X3385750Y3615000D01*
X4150000Y3611928D01*
X4274482Y3624188D01*
X4394180Y3660498D01*
X4504494Y3719463D01*
X4601185Y3798815D01*
X4680537Y3895506D01*
X4739502Y4005820D01*
X4775812Y4125518D01*
X4788072Y4250000D01*
X4785000Y4764250D01*
X4626250Y4923000D01*
X3227000Y4923000D01*
X2973000Y4923000D01*
X2953000Y4923000D01*
X2953000Y5177000D01*
X2973000Y5177000D01*
X2973000Y5197000D01*
X3227000Y5197000D01*
X3227000Y5177000D01*
X4626250Y5177000D01*
X4785000Y5335750D01*
X4788072Y5850000D01*
X4775812Y5974482D01*
X4739502Y6094180D01*
X4680537Y6204494D01*
X4643191Y6250000D01*
X4680537Y6295506D01*
X4739502Y6405820D01*
X4775812Y6525518D01*
X4788072Y6650000D01*
X4785000Y7314250D01*
X4626250Y7473000D01*
X3377000Y7473000D01*
X3377000Y7453000D01*
X3123000Y7453000D01*
X3123000Y7473000D01*
X1873750Y7473000D01*
X1715000Y7314250D01*
X1712151Y6698189D01*
X1670931Y6710693D01*
X1450000Y6732453D01*
X1150000Y6732453D01*
X975000Y6715217D01*
X800000Y6732453D01*
X500000Y6732453D01*
X325000Y6715217D01*
X150000Y6732453D01*
X-150000Y6732453D01*
X-325000Y6715217D01*
X-500000Y6732453D01*
X-800000Y6732453D01*
X-1020931Y6710693D01*
X-1233371Y6646250D01*
X-1429157Y6541600D01*
X-1600765Y6400765D01*
X-1648814Y6342218D01*
X-1695506Y6380537D01*
X-1758030Y6413957D01*
X-1724188Y6525518D01*
X-1711928Y6650000D01*
X-1715000Y7314250D01*
X-1873750Y7473000D01*
X-3123000Y7473000D01*
X-3123000Y7453000D01*
X-3377000Y7453000D01*
X-3377000Y7473000D01*
X-4626250Y7473000D01*
X-4785000Y7314250D01*
X-4788072Y6650000D01*
X-4775812Y6525518D01*
X-4739502Y6405820D01*
X-4680537Y6295506D01*
X-4643191Y6250000D01*
X-4680537Y6204494D01*
X-4739502Y6094180D01*
X-4775812Y5974482D01*
X-4788072Y5850000D01*
X-4785000Y5335750D01*
X-4626250Y5177000D01*
X-3227000Y5177000D01*
X-3227000Y5197000D01*
X-2973000Y5197000D01*
X-2973000Y5177000D01*
X-2953000Y5177000D01*
X-2953000Y4923000D01*
X-2973000Y4923000D01*
X-2973000Y3773750D01*
X-2814250Y3615000D01*
X-2050000Y3611928D01*
X-2042187Y3612697D01*
X-1985209Y3502600D01*
X-1907151Y3404861D01*
X-1811524Y3324228D01*
X-1790727Y3312753D01*
X-1741600Y3220843D01*
X-1600765Y3049235D01*
X-1429157Y2908400D01*
X-1233371Y2803750D01*
X-1020931Y2739307D01*
X-800000Y2717547D01*
X-500000Y2717547D01*
X-325000Y2734783D01*
X-150000Y2717547D01*
X150000Y2717547D01*
X187461Y2721237D01*
X252293Y2599945D01*
X252294Y2599944D01*
X408999Y2408998D01*
X419665Y2400244D01*
X423223Y2382359D01*
X531155Y2121788D01*
X687848Y1887281D01*
X762337Y1812792D01*
X722499Y1804868D01*
X380907Y1663376D01*
X73482Y1457961D01*
X0Y1384479D01*
X-73482Y1457961D01*
X-380907Y1663376D01*
X-722499Y1804868D01*
X-1085132Y1877000D01*
X-1454868Y1877000D01*
X-1817501Y1804868D01*
X-2159093Y1663376D01*
X-2466518Y1457961D01*
X-2540000Y1384479D01*
X-2613482Y1457961D01*
X-2920907Y1663376D01*
X-3262499Y1804868D01*
X-3625132Y1877000D01*
X-3994868Y1877000D01*
X-4357501Y1804868D01*
X-4699093Y1663376D01*
X-5006518Y1457961D01*
X-5080000Y1384479D01*
X-5153482Y1457961D01*
X-5460907Y1663376D01*
X-5802499Y1804868D01*
X-6165132Y1877000D01*
X-6453577Y1877000D01*
X-7419722Y2843144D01*
X-7458998Y2891002D01*
X-7649944Y3047707D01*
X-7867793Y3164150D01*
X-8104173Y3235855D01*
X-8288401Y3254000D01*
X-8350000Y3260067D01*
X-8411599Y3254000D01*
X-9899571Y3254000D01*
X-9921788Y3268845D01*
X-10182359Y3376777D01*
X-10458980Y3431800D01*
X-10741020Y3431800D01*
X-11017641Y3376777D01*
X-11278212Y3268845D01*
X-11512719Y3112152D01*
X-11712152Y2912719D01*
X-11868845Y2678212D01*
X-11976777Y2417641D01*
X-12031800Y2141020D01*
X-14348000Y2141020D01*
X-14348000Y4250000D01*
X-4788072Y4250000D01*
X-4775812Y4125518D01*
X-4739502Y4005820D01*
X-4680537Y3895506D01*
X-4601185Y3798815D01*
X-4504494Y3719463D01*
X-4394180Y3660498D01*
X-4274482Y3624188D01*
X-4150000Y3611928D01*
X-3385750Y3615000D01*
X-3227000Y3773750D01*
X-3227000Y4923000D01*
X-4626250Y4923000D01*
X-4785000Y4764250D01*
X-4788072Y4250000D01*
X-14348000Y4250000D01*
X-14348000Y8348000D01*
X-4787138Y8348000D01*
X-4785000Y7885750D01*
G37*
G04 #@! TD.AperFunction*
M02*
