G04 #@! TF.GenerationSoftware,KiCad,Pcbnew,(5.1.9-0-10_14)*
G04 #@! TF.CreationDate,2021-07-10T20:43:16+09:00*
G04 #@! TF.ProjectId,TouchController,546f7563-6843-46f6-9e74-726f6c6c6572,V1.0*
G04 #@! TF.SameCoordinates,Original*
G04 #@! TF.FileFunction,Legend,Top*
G04 #@! TF.FilePolarity,Positive*
%FSLAX46Y46*%
G04 Gerber Fmt 4.6, Leading zero omitted, Abs format (unit mm)*
G04 Created by KiCad (PCBNEW (5.1.9-0-10_14)) date 2021-07-10 20:43:16*
%MOMM*%
%LPD*%
G01*
G04 APERTURE LIST*
%ADD10C,0.120000*%
%ADD11C,0.150000*%
G04 APERTURE END LIST*
D10*
X10000000Y-21000000D02*
X11000000Y-20000000D01*
X10000000Y-20300000D02*
X10000000Y-21000000D01*
X9000000Y-20300000D02*
X10000000Y-20300000D01*
X9000000Y-19700000D02*
X9000000Y-20300000D01*
X10000000Y-19700000D02*
X9000000Y-19700000D01*
X10000000Y-19000000D02*
X10000000Y-19700000D01*
X11000000Y-20000000D02*
X10000000Y-19000000D01*
X300000Y-30000000D02*
X300000Y-29000000D01*
X1000000Y-30000000D02*
X300000Y-30000000D01*
X0Y-31000000D02*
X1000000Y-30000000D01*
X-1000000Y-30000000D02*
X0Y-31000000D01*
X-300000Y-30000000D02*
X-1000000Y-30000000D01*
X-300000Y-29000000D02*
X-300000Y-30000000D01*
X300000Y-29000000D02*
X-300000Y-29000000D01*
X-10000000Y-20300000D02*
X-10000000Y-21000000D01*
X-9000000Y-19700000D02*
X-9000000Y-20300000D01*
X-10000000Y-19000000D02*
X-10000000Y-19700000D01*
X-10000000Y-19000000D02*
X-11000000Y-20000000D01*
X-9000000Y-19700000D02*
X-10000000Y-19700000D01*
X-10000000Y-20300000D02*
X-9000000Y-20300000D01*
X-11000000Y-20000000D02*
X-10000000Y-21000000D01*
X-300000Y-10000000D02*
X-1000000Y-10000000D01*
X1000000Y-10000000D02*
X0Y-9000000D01*
X300000Y-11000000D02*
X300000Y-10000000D01*
X-300000Y-10000000D02*
X-300000Y-11000000D01*
X0Y-9000000D02*
X-1000000Y-10000000D01*
X300000Y-10000000D02*
X1000000Y-10000000D01*
X-300000Y-11000000D02*
X300000Y-11000000D01*
D11*
X11976190Y-8404761D02*
X11976190Y-6404761D01*
X12452380Y-6404761D01*
X12738095Y-6500000D01*
X12928571Y-6690476D01*
X13023809Y-6880952D01*
X13119047Y-7261904D01*
X13119047Y-7547619D01*
X13023809Y-7928571D01*
X12928571Y-8119047D01*
X12738095Y-8309523D01*
X12452380Y-8404761D01*
X11976190Y-8404761D01*
X-11880952Y-8214285D02*
X-11976190Y-8309523D01*
X-12261904Y-8404761D01*
X-12452380Y-8404761D01*
X-12738095Y-8309523D01*
X-12928571Y-8119047D01*
X-13023809Y-7928571D01*
X-13119047Y-7547619D01*
X-13119047Y-7261904D01*
X-13023809Y-6880952D01*
X-12928571Y-6690476D01*
X-12738095Y-6500000D01*
X-12452380Y-6404761D01*
X-12261904Y-6404761D01*
X-11976190Y-6500000D01*
X-11880952Y-6595238D01*
X-12357142Y-32207142D02*
X-12071428Y-32302380D01*
X-11976190Y-32397619D01*
X-11880952Y-32588095D01*
X-11880952Y-32873809D01*
X-11976190Y-33064285D01*
X-12071428Y-33159523D01*
X-12261904Y-33254761D01*
X-13023809Y-33254761D01*
X-13023809Y-31254761D01*
X-12357142Y-31254761D01*
X-12166666Y-31350000D01*
X-12071428Y-31445238D01*
X-11976190Y-31635714D01*
X-11976190Y-31826190D01*
X-12071428Y-32016666D01*
X-12166666Y-32111904D01*
X-12357142Y-32207142D01*
X-13023809Y-32207142D01*
X12023809Y-32833333D02*
X12976190Y-32833333D01*
X11833333Y-33404761D02*
X12500000Y-31404761D01*
X13166666Y-33404761D01*
M02*
