G04 #@! TF.GenerationSoftware,KiCad,Pcbnew,(5.1.10-1-10_14)*
G04 #@! TF.CreationDate,2021-08-08T19:45:07+09:00*
G04 #@! TF.ProjectId,TouchController,546f7563-6843-46f6-9e74-726f6c6c6572,V1.1*
G04 #@! TF.SameCoordinates,Original*
G04 #@! TF.FileFunction,Copper,L2,Bot*
G04 #@! TF.FilePolarity,Positive*
%FSLAX46Y46*%
G04 Gerber Fmt 4.6, Leading zero omitted, Abs format (unit mm)*
G04 Created by KiCad (PCBNEW (5.1.10-1-10_14)) date 2021-08-08 19:45:07*
%MOMM*%
%LPD*%
G01*
G04 APERTURE LIST*
G04 #@! TA.AperFunction,SMDPad,CuDef*
%ADD10R,1.500000X0.700000*%
G04 #@! TD*
G04 #@! TA.AperFunction,SMDPad,CuDef*
%ADD11C,0.100000*%
G04 #@! TD*
G04 #@! TA.AperFunction,SMDPad,CuDef*
%ADD12R,1.060000X0.500000*%
G04 #@! TD*
G04 #@! TA.AperFunction,ComponentPad*
%ADD13R,1.500000X1.500000*%
G04 #@! TD*
G04 #@! TA.AperFunction,ComponentPad*
%ADD14O,1.500000X1.500000*%
G04 #@! TD*
G04 #@! TA.AperFunction,ViaPad*
%ADD15C,0.609600*%
G04 #@! TD*
G04 #@! TA.AperFunction,Conductor*
%ADD16C,0.254000*%
G04 #@! TD*
G04 APERTURE END LIST*
G04 #@! TA.AperFunction,SMDPad,CuDef*
G36*
G01*
X-600000Y-6225000D02*
X-600000Y-6775000D01*
G75*
G02*
X-775000Y-6950000I-175000J0D01*
G01*
X-1125000Y-6950000D01*
G75*
G02*
X-1300000Y-6775000I0J175000D01*
G01*
X-1300000Y-6225000D01*
G75*
G02*
X-1125000Y-6050000I175000J0D01*
G01*
X-775000Y-6050000D01*
G75*
G02*
X-600000Y-6225000I0J-175000D01*
G01*
G37*
G04 #@! TD.AperFunction*
G04 #@! TA.AperFunction,SMDPad,CuDef*
G36*
G01*
X1300000Y-6225000D02*
X1300000Y-6775000D01*
G75*
G02*
X1125000Y-6950000I-175000J0D01*
G01*
X775000Y-6950000D01*
G75*
G02*
X600000Y-6775000I0J175000D01*
G01*
X600000Y-6225000D01*
G75*
G02*
X775000Y-6050000I175000J0D01*
G01*
X1125000Y-6050000D01*
G75*
G02*
X1300000Y-6225000I0J-175000D01*
G01*
G37*
G04 #@! TD.AperFunction*
G04 #@! TA.AperFunction,SMDPad,CuDef*
G36*
G01*
X-10600000Y-16225000D02*
X-10600000Y-16775000D01*
G75*
G02*
X-10775000Y-16950000I-175000J0D01*
G01*
X-11125000Y-16950000D01*
G75*
G02*
X-11300000Y-16775000I0J175000D01*
G01*
X-11300000Y-16225000D01*
G75*
G02*
X-11125000Y-16050000I175000J0D01*
G01*
X-10775000Y-16050000D01*
G75*
G02*
X-10600000Y-16225000I0J-175000D01*
G01*
G37*
G04 #@! TD.AperFunction*
G04 #@! TA.AperFunction,SMDPad,CuDef*
G36*
G01*
X-8700000Y-16225000D02*
X-8700000Y-16775000D01*
G75*
G02*
X-8875000Y-16950000I-175000J0D01*
G01*
X-9225000Y-16950000D01*
G75*
G02*
X-9400000Y-16775000I0J175000D01*
G01*
X-9400000Y-16225000D01*
G75*
G02*
X-9225000Y-16050000I175000J0D01*
G01*
X-8875000Y-16050000D01*
G75*
G02*
X-8700000Y-16225000I0J-175000D01*
G01*
G37*
G04 #@! TD.AperFunction*
G04 #@! TA.AperFunction,SMDPad,CuDef*
G36*
G01*
X600000Y-26775000D02*
X600000Y-26225000D01*
G75*
G02*
X775000Y-26050000I175000J0D01*
G01*
X1125000Y-26050000D01*
G75*
G02*
X1300000Y-26225000I0J-175000D01*
G01*
X1300000Y-26775000D01*
G75*
G02*
X1125000Y-26950000I-175000J0D01*
G01*
X775000Y-26950000D01*
G75*
G02*
X600000Y-26775000I0J175000D01*
G01*
G37*
G04 #@! TD.AperFunction*
G04 #@! TA.AperFunction,SMDPad,CuDef*
G36*
G01*
X-1300000Y-26775000D02*
X-1300000Y-26225000D01*
G75*
G02*
X-1125000Y-26050000I175000J0D01*
G01*
X-775000Y-26050000D01*
G75*
G02*
X-600000Y-26225000I0J-175000D01*
G01*
X-600000Y-26775000D01*
G75*
G02*
X-775000Y-26950000I-175000J0D01*
G01*
X-1125000Y-26950000D01*
G75*
G02*
X-1300000Y-26775000I0J175000D01*
G01*
G37*
G04 #@! TD.AperFunction*
G04 #@! TA.AperFunction,SMDPad,CuDef*
G36*
G01*
X10600000Y-16775000D02*
X10600000Y-16225000D01*
G75*
G02*
X10775000Y-16050000I175000J0D01*
G01*
X11125000Y-16050000D01*
G75*
G02*
X11300000Y-16225000I0J-175000D01*
G01*
X11300000Y-16775000D01*
G75*
G02*
X11125000Y-16950000I-175000J0D01*
G01*
X10775000Y-16950000D01*
G75*
G02*
X10600000Y-16775000I0J175000D01*
G01*
G37*
G04 #@! TD.AperFunction*
G04 #@! TA.AperFunction,SMDPad,CuDef*
G36*
G01*
X8700000Y-16775000D02*
X8700000Y-16225000D01*
G75*
G02*
X8875000Y-16050000I175000J0D01*
G01*
X9225000Y-16050000D01*
G75*
G02*
X9400000Y-16225000I0J-175000D01*
G01*
X9400000Y-16775000D01*
G75*
G02*
X9225000Y-16950000I-175000J0D01*
G01*
X8875000Y-16950000D01*
G75*
G02*
X8700000Y-16775000I0J175000D01*
G01*
G37*
G04 #@! TD.AperFunction*
G04 #@! TA.AperFunction,SMDPad,CuDef*
G36*
G01*
X11900000Y-3725000D02*
X11900000Y-4275000D01*
G75*
G02*
X11725000Y-4450000I-175000J0D01*
G01*
X11375000Y-4450000D01*
G75*
G02*
X11200000Y-4275000I0J175000D01*
G01*
X11200000Y-3725000D01*
G75*
G02*
X11375000Y-3550000I175000J0D01*
G01*
X11725000Y-3550000D01*
G75*
G02*
X11900000Y-3725000I0J-175000D01*
G01*
G37*
G04 #@! TD.AperFunction*
G04 #@! TA.AperFunction,SMDPad,CuDef*
G36*
G01*
X13800000Y-3725000D02*
X13800000Y-4275000D01*
G75*
G02*
X13625000Y-4450000I-175000J0D01*
G01*
X13275000Y-4450000D01*
G75*
G02*
X13100000Y-4275000I0J175000D01*
G01*
X13100000Y-3725000D01*
G75*
G02*
X13275000Y-3550000I175000J0D01*
G01*
X13625000Y-3550000D01*
G75*
G02*
X13800000Y-3725000I0J-175000D01*
G01*
G37*
G04 #@! TD.AperFunction*
G04 #@! TA.AperFunction,SMDPad,CuDef*
G36*
G01*
X-13100000Y-3725000D02*
X-13100000Y-4275000D01*
G75*
G02*
X-13275000Y-4450000I-175000J0D01*
G01*
X-13625000Y-4450000D01*
G75*
G02*
X-13800000Y-4275000I0J175000D01*
G01*
X-13800000Y-3725000D01*
G75*
G02*
X-13625000Y-3550000I175000J0D01*
G01*
X-13275000Y-3550000D01*
G75*
G02*
X-13100000Y-3725000I0J-175000D01*
G01*
G37*
G04 #@! TD.AperFunction*
G04 #@! TA.AperFunction,SMDPad,CuDef*
G36*
G01*
X-11200000Y-3725000D02*
X-11200000Y-4275000D01*
G75*
G02*
X-11375000Y-4450000I-175000J0D01*
G01*
X-11725000Y-4450000D01*
G75*
G02*
X-11900000Y-4275000I0J175000D01*
G01*
X-11900000Y-3725000D01*
G75*
G02*
X-11725000Y-3550000I175000J0D01*
G01*
X-11375000Y-3550000D01*
G75*
G02*
X-11200000Y-3725000I0J-175000D01*
G01*
G37*
G04 #@! TD.AperFunction*
G04 #@! TA.AperFunction,SMDPad,CuDef*
G36*
G01*
X-13100000Y-28725000D02*
X-13100000Y-29275000D01*
G75*
G02*
X-13275000Y-29450000I-175000J0D01*
G01*
X-13625000Y-29450000D01*
G75*
G02*
X-13800000Y-29275000I0J175000D01*
G01*
X-13800000Y-28725000D01*
G75*
G02*
X-13625000Y-28550000I175000J0D01*
G01*
X-13275000Y-28550000D01*
G75*
G02*
X-13100000Y-28725000I0J-175000D01*
G01*
G37*
G04 #@! TD.AperFunction*
G04 #@! TA.AperFunction,SMDPad,CuDef*
G36*
G01*
X-11200000Y-28725000D02*
X-11200000Y-29275000D01*
G75*
G02*
X-11375000Y-29450000I-175000J0D01*
G01*
X-11725000Y-29450000D01*
G75*
G02*
X-11900000Y-29275000I0J175000D01*
G01*
X-11900000Y-28725000D01*
G75*
G02*
X-11725000Y-28550000I175000J0D01*
G01*
X-11375000Y-28550000D01*
G75*
G02*
X-11200000Y-28725000I0J-175000D01*
G01*
G37*
G04 #@! TD.AperFunction*
G04 #@! TA.AperFunction,SMDPad,CuDef*
G36*
G01*
X11900000Y-28725000D02*
X11900000Y-29275000D01*
G75*
G02*
X11725000Y-29450000I-175000J0D01*
G01*
X11375000Y-29450000D01*
G75*
G02*
X11200000Y-29275000I0J175000D01*
G01*
X11200000Y-28725000D01*
G75*
G02*
X11375000Y-28550000I175000J0D01*
G01*
X11725000Y-28550000D01*
G75*
G02*
X11900000Y-28725000I0J-175000D01*
G01*
G37*
G04 #@! TD.AperFunction*
G04 #@! TA.AperFunction,SMDPad,CuDef*
G36*
G01*
X13800000Y-28725000D02*
X13800000Y-29275000D01*
G75*
G02*
X13625000Y-29450000I-175000J0D01*
G01*
X13275000Y-29450000D01*
G75*
G02*
X13100000Y-29275000I0J175000D01*
G01*
X13100000Y-28725000D01*
G75*
G02*
X13275000Y-28550000I175000J0D01*
G01*
X13625000Y-28550000D01*
G75*
G02*
X13800000Y-28725000I0J-175000D01*
G01*
G37*
G04 #@! TD.AperFunction*
D10*
X-1850000Y7500000D03*
X-1850000Y4500000D03*
X1850000Y7500000D03*
X1850000Y4500000D03*
G04 #@! TA.AperFunction,SMDPad,CuDef*
D11*
G36*
X-900000Y5500000D02*
G01*
X-2600000Y5500000D01*
X-2600000Y6500000D01*
X-900000Y6500000D01*
X-400000Y7000000D01*
X400000Y7000000D01*
X400000Y6500000D01*
X2600000Y6500000D01*
X2600000Y5500000D01*
X400000Y5500000D01*
X400000Y5000000D01*
X-400000Y5000000D01*
X-900000Y5500000D01*
G37*
G04 #@! TD.AperFunction*
D12*
X-1100000Y-10000000D03*
X-1100000Y-9050000D03*
X-1100000Y-10950000D03*
X1100000Y-10950000D03*
X1100000Y-10000000D03*
X1100000Y-9050000D03*
X-11100000Y-20000000D03*
X-11100000Y-19050000D03*
X-11100000Y-20950000D03*
X-8900000Y-20950000D03*
X-8900000Y-20000000D03*
X-8900000Y-19050000D03*
X-1100000Y-30000000D03*
X-1100000Y-29050000D03*
X-1100000Y-30950000D03*
X1100000Y-30950000D03*
X1100000Y-30000000D03*
X1100000Y-29050000D03*
X8900000Y-20000000D03*
X8900000Y-19050000D03*
X8900000Y-20950000D03*
X11100000Y-20950000D03*
X11100000Y-20000000D03*
X11100000Y-19050000D03*
X11400000Y-7500000D03*
X11400000Y-6550000D03*
X11400000Y-8450000D03*
X13600000Y-8450000D03*
X13600000Y-7500000D03*
X13600000Y-6550000D03*
X-13600000Y-7500000D03*
X-13600000Y-6550000D03*
X-13600000Y-8450000D03*
X-11400000Y-8450000D03*
X-11400000Y-7500000D03*
X-11400000Y-6550000D03*
X-13600000Y-32500000D03*
X-13600000Y-31550000D03*
X-13600000Y-33450000D03*
X-11400000Y-33450000D03*
X-11400000Y-32500000D03*
X-11400000Y-31550000D03*
X11400000Y-32500000D03*
X11400000Y-31550000D03*
X11400000Y-33450000D03*
X13600000Y-33450000D03*
X13600000Y-32500000D03*
X13600000Y-31550000D03*
G04 #@! TA.AperFunction,SMDPad,CuDef*
G36*
G01*
X-6475000Y-10550000D02*
X-6925000Y-10550000D01*
G75*
G02*
X-7150000Y-10325000I0J225000D01*
G01*
X-7150000Y-9775000D01*
G75*
G02*
X-6925000Y-9550000I225000J0D01*
G01*
X-6475000Y-9550000D01*
G75*
G02*
X-6250000Y-9775000I0J-225000D01*
G01*
X-6250000Y-10325000D01*
G75*
G02*
X-6475000Y-10550000I-225000J0D01*
G01*
G37*
G04 #@! TD.AperFunction*
G04 #@! TA.AperFunction,SMDPad,CuDef*
G36*
G01*
X-6475000Y-8850000D02*
X-6925000Y-8850000D01*
G75*
G02*
X-7150000Y-8625000I0J225000D01*
G01*
X-7150000Y-8075000D01*
G75*
G02*
X-6925000Y-7850000I225000J0D01*
G01*
X-6475000Y-7850000D01*
G75*
G02*
X-6250000Y-8075000I0J-225000D01*
G01*
X-6250000Y-8625000D01*
G75*
G02*
X-6475000Y-8850000I-225000J0D01*
G01*
G37*
G04 #@! TD.AperFunction*
G04 #@! TA.AperFunction,SMDPad,CuDef*
G36*
G01*
X-6475000Y-7250000D02*
X-6925000Y-7250000D01*
G75*
G02*
X-7150000Y-7025000I0J225000D01*
G01*
X-7150000Y-6475000D01*
G75*
G02*
X-6925000Y-6250000I225000J0D01*
G01*
X-6475000Y-6250000D01*
G75*
G02*
X-6250000Y-6475000I0J-225000D01*
G01*
X-6250000Y-7025000D01*
G75*
G02*
X-6475000Y-7250000I-225000J0D01*
G01*
G37*
G04 #@! TD.AperFunction*
G04 #@! TA.AperFunction,SMDPad,CuDef*
G36*
G01*
X-6475000Y-5550000D02*
X-6925000Y-5550000D01*
G75*
G02*
X-7150000Y-5325000I0J225000D01*
G01*
X-7150000Y-4775000D01*
G75*
G02*
X-6925000Y-4550000I225000J0D01*
G01*
X-6475000Y-4550000D01*
G75*
G02*
X-6250000Y-4775000I0J-225000D01*
G01*
X-6250000Y-5325000D01*
G75*
G02*
X-6475000Y-5550000I-225000J0D01*
G01*
G37*
G04 #@! TD.AperFunction*
G04 #@! TA.AperFunction,SMDPad,CuDef*
G36*
G01*
X-4975000Y-10550000D02*
X-5425000Y-10550000D01*
G75*
G02*
X-5650000Y-10325000I0J225000D01*
G01*
X-5650000Y-9775000D01*
G75*
G02*
X-5425000Y-9550000I225000J0D01*
G01*
X-4975000Y-9550000D01*
G75*
G02*
X-4750000Y-9775000I0J-225000D01*
G01*
X-4750000Y-10325000D01*
G75*
G02*
X-4975000Y-10550000I-225000J0D01*
G01*
G37*
G04 #@! TD.AperFunction*
G04 #@! TA.AperFunction,SMDPad,CuDef*
G36*
G01*
X-4975000Y-8850000D02*
X-5425000Y-8850000D01*
G75*
G02*
X-5650000Y-8625000I0J225000D01*
G01*
X-5650000Y-8075000D01*
G75*
G02*
X-5425000Y-7850000I225000J0D01*
G01*
X-4975000Y-7850000D01*
G75*
G02*
X-4750000Y-8075000I0J-225000D01*
G01*
X-4750000Y-8625000D01*
G75*
G02*
X-4975000Y-8850000I-225000J0D01*
G01*
G37*
G04 #@! TD.AperFunction*
G04 #@! TA.AperFunction,SMDPad,CuDef*
G36*
G01*
X-4975000Y-7250000D02*
X-5425000Y-7250000D01*
G75*
G02*
X-5650000Y-7025000I0J225000D01*
G01*
X-5650000Y-6475000D01*
G75*
G02*
X-5425000Y-6250000I225000J0D01*
G01*
X-4975000Y-6250000D01*
G75*
G02*
X-4750000Y-6475000I0J-225000D01*
G01*
X-4750000Y-7025000D01*
G75*
G02*
X-4975000Y-7250000I-225000J0D01*
G01*
G37*
G04 #@! TD.AperFunction*
G04 #@! TA.AperFunction,SMDPad,CuDef*
G36*
G01*
X-4975000Y-5550000D02*
X-5425000Y-5550000D01*
G75*
G02*
X-5650000Y-5325000I0J225000D01*
G01*
X-5650000Y-4775000D01*
G75*
G02*
X-5425000Y-4550000I225000J0D01*
G01*
X-4975000Y-4550000D01*
G75*
G02*
X-4750000Y-4775000I0J-225000D01*
G01*
X-4750000Y-5325000D01*
G75*
G02*
X-4975000Y-5550000I-225000J0D01*
G01*
G37*
G04 #@! TD.AperFunction*
G04 #@! TA.AperFunction,SMDPad,CuDef*
G36*
G01*
X5425000Y-10550000D02*
X4975000Y-10550000D01*
G75*
G02*
X4750000Y-10325000I0J225000D01*
G01*
X4750000Y-9775000D01*
G75*
G02*
X4975000Y-9550000I225000J0D01*
G01*
X5425000Y-9550000D01*
G75*
G02*
X5650000Y-9775000I0J-225000D01*
G01*
X5650000Y-10325000D01*
G75*
G02*
X5425000Y-10550000I-225000J0D01*
G01*
G37*
G04 #@! TD.AperFunction*
G04 #@! TA.AperFunction,SMDPad,CuDef*
G36*
G01*
X5425000Y-8850000D02*
X4975000Y-8850000D01*
G75*
G02*
X4750000Y-8625000I0J225000D01*
G01*
X4750000Y-8075000D01*
G75*
G02*
X4975000Y-7850000I225000J0D01*
G01*
X5425000Y-7850000D01*
G75*
G02*
X5650000Y-8075000I0J-225000D01*
G01*
X5650000Y-8625000D01*
G75*
G02*
X5425000Y-8850000I-225000J0D01*
G01*
G37*
G04 #@! TD.AperFunction*
G04 #@! TA.AperFunction,SMDPad,CuDef*
G36*
G01*
X5425000Y-7250000D02*
X4975000Y-7250000D01*
G75*
G02*
X4750000Y-7025000I0J225000D01*
G01*
X4750000Y-6475000D01*
G75*
G02*
X4975000Y-6250000I225000J0D01*
G01*
X5425000Y-6250000D01*
G75*
G02*
X5650000Y-6475000I0J-225000D01*
G01*
X5650000Y-7025000D01*
G75*
G02*
X5425000Y-7250000I-225000J0D01*
G01*
G37*
G04 #@! TD.AperFunction*
G04 #@! TA.AperFunction,SMDPad,CuDef*
G36*
G01*
X5425000Y-5550000D02*
X4975000Y-5550000D01*
G75*
G02*
X4750000Y-5325000I0J225000D01*
G01*
X4750000Y-4775000D01*
G75*
G02*
X4975000Y-4550000I225000J0D01*
G01*
X5425000Y-4550000D01*
G75*
G02*
X5650000Y-4775000I0J-225000D01*
G01*
X5650000Y-5325000D01*
G75*
G02*
X5425000Y-5550000I-225000J0D01*
G01*
G37*
G04 #@! TD.AperFunction*
G04 #@! TA.AperFunction,SMDPad,CuDef*
G36*
G01*
X6925000Y-10550000D02*
X6475000Y-10550000D01*
G75*
G02*
X6250000Y-10325000I0J225000D01*
G01*
X6250000Y-9775000D01*
G75*
G02*
X6475000Y-9550000I225000J0D01*
G01*
X6925000Y-9550000D01*
G75*
G02*
X7150000Y-9775000I0J-225000D01*
G01*
X7150000Y-10325000D01*
G75*
G02*
X6925000Y-10550000I-225000J0D01*
G01*
G37*
G04 #@! TD.AperFunction*
G04 #@! TA.AperFunction,SMDPad,CuDef*
G36*
G01*
X6925000Y-8850000D02*
X6475000Y-8850000D01*
G75*
G02*
X6250000Y-8625000I0J225000D01*
G01*
X6250000Y-8075000D01*
G75*
G02*
X6475000Y-7850000I225000J0D01*
G01*
X6925000Y-7850000D01*
G75*
G02*
X7150000Y-8075000I0J-225000D01*
G01*
X7150000Y-8625000D01*
G75*
G02*
X6925000Y-8850000I-225000J0D01*
G01*
G37*
G04 #@! TD.AperFunction*
G04 #@! TA.AperFunction,SMDPad,CuDef*
G36*
G01*
X6925000Y-7250000D02*
X6475000Y-7250000D01*
G75*
G02*
X6250000Y-7025000I0J225000D01*
G01*
X6250000Y-6475000D01*
G75*
G02*
X6475000Y-6250000I225000J0D01*
G01*
X6925000Y-6250000D01*
G75*
G02*
X7150000Y-6475000I0J-225000D01*
G01*
X7150000Y-7025000D01*
G75*
G02*
X6925000Y-7250000I-225000J0D01*
G01*
G37*
G04 #@! TD.AperFunction*
G04 #@! TA.AperFunction,SMDPad,CuDef*
G36*
G01*
X6925000Y-5550000D02*
X6475000Y-5550000D01*
G75*
G02*
X6250000Y-5325000I0J225000D01*
G01*
X6250000Y-4775000D01*
G75*
G02*
X6475000Y-4550000I225000J0D01*
G01*
X6925000Y-4550000D01*
G75*
G02*
X7150000Y-4775000I0J-225000D01*
G01*
X7150000Y-5325000D01*
G75*
G02*
X6925000Y-5550000I-225000J0D01*
G01*
G37*
G04 #@! TD.AperFunction*
G04 #@! TA.AperFunction,SMDPad,CuDef*
G36*
G01*
X1350000Y-4775000D02*
X1350000Y-5225000D01*
G75*
G02*
X1125000Y-5450000I-225000J0D01*
G01*
X575000Y-5450000D01*
G75*
G02*
X350000Y-5225000I0J225000D01*
G01*
X350000Y-4775000D01*
G75*
G02*
X575000Y-4550000I225000J0D01*
G01*
X1125000Y-4550000D01*
G75*
G02*
X1350000Y-4775000I0J-225000D01*
G01*
G37*
G04 #@! TD.AperFunction*
G04 #@! TA.AperFunction,SMDPad,CuDef*
G36*
G01*
X-350000Y-4775000D02*
X-350000Y-5225000D01*
G75*
G02*
X-575000Y-5450000I-225000J0D01*
G01*
X-1125000Y-5450000D01*
G75*
G02*
X-1350000Y-5225000I0J225000D01*
G01*
X-1350000Y-4775000D01*
G75*
G02*
X-1125000Y-4550000I225000J0D01*
G01*
X-575000Y-4550000D01*
G75*
G02*
X-350000Y-4775000I0J-225000D01*
G01*
G37*
G04 #@! TD.AperFunction*
G04 #@! TA.AperFunction,SMDPad,CuDef*
G36*
G01*
X-8650000Y-14775000D02*
X-8650000Y-15225000D01*
G75*
G02*
X-8875000Y-15450000I-225000J0D01*
G01*
X-9425000Y-15450000D01*
G75*
G02*
X-9650000Y-15225000I0J225000D01*
G01*
X-9650000Y-14775000D01*
G75*
G02*
X-9425000Y-14550000I225000J0D01*
G01*
X-8875000Y-14550000D01*
G75*
G02*
X-8650000Y-14775000I0J-225000D01*
G01*
G37*
G04 #@! TD.AperFunction*
G04 #@! TA.AperFunction,SMDPad,CuDef*
G36*
G01*
X-10350000Y-14775000D02*
X-10350000Y-15225000D01*
G75*
G02*
X-10575000Y-15450000I-225000J0D01*
G01*
X-11125000Y-15450000D01*
G75*
G02*
X-11350000Y-15225000I0J225000D01*
G01*
X-11350000Y-14775000D01*
G75*
G02*
X-11125000Y-14550000I225000J0D01*
G01*
X-10575000Y-14550000D01*
G75*
G02*
X-10350000Y-14775000I0J-225000D01*
G01*
G37*
G04 #@! TD.AperFunction*
G04 #@! TA.AperFunction,SMDPad,CuDef*
G36*
G01*
X1350000Y-24775000D02*
X1350000Y-25225000D01*
G75*
G02*
X1125000Y-25450000I-225000J0D01*
G01*
X575000Y-25450000D01*
G75*
G02*
X350000Y-25225000I0J225000D01*
G01*
X350000Y-24775000D01*
G75*
G02*
X575000Y-24550000I225000J0D01*
G01*
X1125000Y-24550000D01*
G75*
G02*
X1350000Y-24775000I0J-225000D01*
G01*
G37*
G04 #@! TD.AperFunction*
G04 #@! TA.AperFunction,SMDPad,CuDef*
G36*
G01*
X-350000Y-24775000D02*
X-350000Y-25225000D01*
G75*
G02*
X-575000Y-25450000I-225000J0D01*
G01*
X-1125000Y-25450000D01*
G75*
G02*
X-1350000Y-25225000I0J225000D01*
G01*
X-1350000Y-24775000D01*
G75*
G02*
X-1125000Y-24550000I225000J0D01*
G01*
X-575000Y-24550000D01*
G75*
G02*
X-350000Y-24775000I0J-225000D01*
G01*
G37*
G04 #@! TD.AperFunction*
G04 #@! TA.AperFunction,SMDPad,CuDef*
G36*
G01*
X11350000Y-14775000D02*
X11350000Y-15225000D01*
G75*
G02*
X11125000Y-15450000I-225000J0D01*
G01*
X10575000Y-15450000D01*
G75*
G02*
X10350000Y-15225000I0J225000D01*
G01*
X10350000Y-14775000D01*
G75*
G02*
X10575000Y-14550000I225000J0D01*
G01*
X11125000Y-14550000D01*
G75*
G02*
X11350000Y-14775000I0J-225000D01*
G01*
G37*
G04 #@! TD.AperFunction*
G04 #@! TA.AperFunction,SMDPad,CuDef*
G36*
G01*
X9650000Y-14775000D02*
X9650000Y-15225000D01*
G75*
G02*
X9425000Y-15450000I-225000J0D01*
G01*
X8875000Y-15450000D01*
G75*
G02*
X8650000Y-15225000I0J225000D01*
G01*
X8650000Y-14775000D01*
G75*
G02*
X8875000Y-14550000I225000J0D01*
G01*
X9425000Y-14550000D01*
G75*
G02*
X9650000Y-14775000I0J-225000D01*
G01*
G37*
G04 #@! TD.AperFunction*
G04 #@! TA.AperFunction,SMDPad,CuDef*
G36*
G01*
X13850000Y-2275000D02*
X13850000Y-2725000D01*
G75*
G02*
X13625000Y-2950000I-225000J0D01*
G01*
X13075000Y-2950000D01*
G75*
G02*
X12850000Y-2725000I0J225000D01*
G01*
X12850000Y-2275000D01*
G75*
G02*
X13075000Y-2050000I225000J0D01*
G01*
X13625000Y-2050000D01*
G75*
G02*
X13850000Y-2275000I0J-225000D01*
G01*
G37*
G04 #@! TD.AperFunction*
G04 #@! TA.AperFunction,SMDPad,CuDef*
G36*
G01*
X12150000Y-2275000D02*
X12150000Y-2725000D01*
G75*
G02*
X11925000Y-2950000I-225000J0D01*
G01*
X11375000Y-2950000D01*
G75*
G02*
X11150000Y-2725000I0J225000D01*
G01*
X11150000Y-2275000D01*
G75*
G02*
X11375000Y-2050000I225000J0D01*
G01*
X11925000Y-2050000D01*
G75*
G02*
X12150000Y-2275000I0J-225000D01*
G01*
G37*
G04 #@! TD.AperFunction*
G04 #@! TA.AperFunction,SMDPad,CuDef*
G36*
G01*
X-11150000Y-2275000D02*
X-11150000Y-2725000D01*
G75*
G02*
X-11375000Y-2950000I-225000J0D01*
G01*
X-11925000Y-2950000D01*
G75*
G02*
X-12150000Y-2725000I0J225000D01*
G01*
X-12150000Y-2275000D01*
G75*
G02*
X-11925000Y-2050000I225000J0D01*
G01*
X-11375000Y-2050000D01*
G75*
G02*
X-11150000Y-2275000I0J-225000D01*
G01*
G37*
G04 #@! TD.AperFunction*
G04 #@! TA.AperFunction,SMDPad,CuDef*
G36*
G01*
X-12850000Y-2275000D02*
X-12850000Y-2725000D01*
G75*
G02*
X-13075000Y-2950000I-225000J0D01*
G01*
X-13625000Y-2950000D01*
G75*
G02*
X-13850000Y-2725000I0J225000D01*
G01*
X-13850000Y-2275000D01*
G75*
G02*
X-13625000Y-2050000I225000J0D01*
G01*
X-13075000Y-2050000D01*
G75*
G02*
X-12850000Y-2275000I0J-225000D01*
G01*
G37*
G04 #@! TD.AperFunction*
G04 #@! TA.AperFunction,SMDPad,CuDef*
G36*
G01*
X-11150000Y-27275000D02*
X-11150000Y-27725000D01*
G75*
G02*
X-11375000Y-27950000I-225000J0D01*
G01*
X-11925000Y-27950000D01*
G75*
G02*
X-12150000Y-27725000I0J225000D01*
G01*
X-12150000Y-27275000D01*
G75*
G02*
X-11925000Y-27050000I225000J0D01*
G01*
X-11375000Y-27050000D01*
G75*
G02*
X-11150000Y-27275000I0J-225000D01*
G01*
G37*
G04 #@! TD.AperFunction*
G04 #@! TA.AperFunction,SMDPad,CuDef*
G36*
G01*
X-12850000Y-27275000D02*
X-12850000Y-27725000D01*
G75*
G02*
X-13075000Y-27950000I-225000J0D01*
G01*
X-13625000Y-27950000D01*
G75*
G02*
X-13850000Y-27725000I0J225000D01*
G01*
X-13850000Y-27275000D01*
G75*
G02*
X-13625000Y-27050000I225000J0D01*
G01*
X-13075000Y-27050000D01*
G75*
G02*
X-12850000Y-27275000I0J-225000D01*
G01*
G37*
G04 #@! TD.AperFunction*
G04 #@! TA.AperFunction,SMDPad,CuDef*
G36*
G01*
X13850000Y-27275000D02*
X13850000Y-27725000D01*
G75*
G02*
X13625000Y-27950000I-225000J0D01*
G01*
X13075000Y-27950000D01*
G75*
G02*
X12850000Y-27725000I0J225000D01*
G01*
X12850000Y-27275000D01*
G75*
G02*
X13075000Y-27050000I225000J0D01*
G01*
X13625000Y-27050000D01*
G75*
G02*
X13850000Y-27275000I0J-225000D01*
G01*
G37*
G04 #@! TD.AperFunction*
G04 #@! TA.AperFunction,SMDPad,CuDef*
G36*
G01*
X12150000Y-27275000D02*
X12150000Y-27725000D01*
G75*
G02*
X11925000Y-27950000I-225000J0D01*
G01*
X11375000Y-27950000D01*
G75*
G02*
X11150000Y-27725000I0J225000D01*
G01*
X11150000Y-27275000D01*
G75*
G02*
X11375000Y-27050000I225000J0D01*
G01*
X11925000Y-27050000D01*
G75*
G02*
X12150000Y-27275000I0J-225000D01*
G01*
G37*
G04 #@! TD.AperFunction*
G04 #@! TA.AperFunction,SMDPad,CuDef*
G36*
G01*
X7750000Y7125000D02*
X7750000Y6675000D01*
G75*
G02*
X7525000Y6450000I-225000J0D01*
G01*
X6975000Y6450000D01*
G75*
G02*
X6750000Y6675000I0J225000D01*
G01*
X6750000Y7125000D01*
G75*
G02*
X6975000Y7350000I225000J0D01*
G01*
X7525000Y7350000D01*
G75*
G02*
X7750000Y7125000I0J-225000D01*
G01*
G37*
G04 #@! TD.AperFunction*
G04 #@! TA.AperFunction,SMDPad,CuDef*
G36*
G01*
X6050000Y7125000D02*
X6050000Y6675000D01*
G75*
G02*
X5825000Y6450000I-225000J0D01*
G01*
X5275000Y6450000D01*
G75*
G02*
X5050000Y6675000I0J225000D01*
G01*
X5050000Y7125000D01*
G75*
G02*
X5275000Y7350000I225000J0D01*
G01*
X5825000Y7350000D01*
G75*
G02*
X6050000Y7125000I0J-225000D01*
G01*
G37*
G04 #@! TD.AperFunction*
G04 #@! TA.AperFunction,SMDPad,CuDef*
D11*
G36*
X-8825000Y6750000D02*
G01*
X-8325000Y6750000D01*
X-8325000Y6749398D01*
X-8300466Y6749398D01*
X-8251635Y6744588D01*
X-8203510Y6735016D01*
X-8156555Y6720772D01*
X-8111222Y6701995D01*
X-8067949Y6678864D01*
X-8027150Y6651604D01*
X-7989221Y6620476D01*
X-7954524Y6585779D01*
X-7923396Y6547850D01*
X-7896136Y6507051D01*
X-7873005Y6463778D01*
X-7854228Y6418445D01*
X-7839984Y6371490D01*
X-7830412Y6323365D01*
X-7825602Y6274534D01*
X-7825602Y6250000D01*
X-7825000Y6250000D01*
X-7825000Y5750000D01*
X-7825602Y5750000D01*
X-7825602Y5725466D01*
X-7830412Y5676635D01*
X-7839984Y5628510D01*
X-7854228Y5581555D01*
X-7873005Y5536222D01*
X-7896136Y5492949D01*
X-7923396Y5452150D01*
X-7954524Y5414221D01*
X-7989221Y5379524D01*
X-8027150Y5348396D01*
X-8067949Y5321136D01*
X-8111222Y5298005D01*
X-8156555Y5279228D01*
X-8203510Y5264984D01*
X-8251635Y5255412D01*
X-8300466Y5250602D01*
X-8325000Y5250602D01*
X-8325000Y5250000D01*
X-8825000Y5250000D01*
X-8825000Y6750000D01*
G37*
G04 #@! TD.AperFunction*
G04 #@! TA.AperFunction,SMDPad,CuDef*
G36*
X-9675000Y5250602D02*
G01*
X-9699534Y5250602D01*
X-9748365Y5255412D01*
X-9796490Y5264984D01*
X-9843445Y5279228D01*
X-9888778Y5298005D01*
X-9932051Y5321136D01*
X-9972850Y5348396D01*
X-10010779Y5379524D01*
X-10045476Y5414221D01*
X-10076604Y5452150D01*
X-10103864Y5492949D01*
X-10126995Y5536222D01*
X-10145772Y5581555D01*
X-10160016Y5628510D01*
X-10169588Y5676635D01*
X-10174398Y5725466D01*
X-10174398Y5750000D01*
X-10175000Y5750000D01*
X-10175000Y6250000D01*
X-10174398Y6250000D01*
X-10174398Y6274534D01*
X-10169588Y6323365D01*
X-10160016Y6371490D01*
X-10145772Y6418445D01*
X-10126995Y6463778D01*
X-10103864Y6507051D01*
X-10076604Y6547850D01*
X-10045476Y6585779D01*
X-10010779Y6620476D01*
X-9972850Y6651604D01*
X-9932051Y6678864D01*
X-9888778Y6701995D01*
X-9843445Y6720772D01*
X-9796490Y6735016D01*
X-9748365Y6744588D01*
X-9699534Y6749398D01*
X-9675000Y6749398D01*
X-9675000Y6750000D01*
X-9175000Y6750000D01*
X-9175000Y5250000D01*
X-9675000Y5250000D01*
X-9675000Y5250602D01*
G37*
G04 #@! TD.AperFunction*
D13*
X-8890000Y0D03*
D14*
X-6350000Y0D03*
X-3810000Y0D03*
X-1270000Y0D03*
X1270000Y0D03*
X3810000Y0D03*
X6350000Y0D03*
X8890000Y0D03*
G04 #@! TA.AperFunction,SMDPad,CuDef*
G36*
G01*
X7750000Y5625000D02*
X7750000Y5175000D01*
G75*
G02*
X7525000Y4950000I-225000J0D01*
G01*
X6975000Y4950000D01*
G75*
G02*
X6750000Y5175000I0J225000D01*
G01*
X6750000Y5625000D01*
G75*
G02*
X6975000Y5850000I225000J0D01*
G01*
X7525000Y5850000D01*
G75*
G02*
X7750000Y5625000I0J-225000D01*
G01*
G37*
G04 #@! TD.AperFunction*
G04 #@! TA.AperFunction,SMDPad,CuDef*
G36*
G01*
X6050000Y5625000D02*
X6050000Y5175000D01*
G75*
G02*
X5825000Y4950000I-225000J0D01*
G01*
X5275000Y4950000D01*
G75*
G02*
X5050000Y5175000I0J225000D01*
G01*
X5050000Y5625000D01*
G75*
G02*
X5275000Y5850000I225000J0D01*
G01*
X5825000Y5850000D01*
G75*
G02*
X6050000Y5625000I0J-225000D01*
G01*
G37*
G04 #@! TD.AperFunction*
G04 #@! TA.AperFunction,SMDPad,CuDef*
G36*
G01*
X-3775000Y4650000D02*
X-4225000Y4650000D01*
G75*
G02*
X-4450000Y4875000I0J225000D01*
G01*
X-4450000Y5425000D01*
G75*
G02*
X-4225000Y5650000I225000J0D01*
G01*
X-3775000Y5650000D01*
G75*
G02*
X-3550000Y5425000I0J-225000D01*
G01*
X-3550000Y4875000D01*
G75*
G02*
X-3775000Y4650000I-225000J0D01*
G01*
G37*
G04 #@! TD.AperFunction*
G04 #@! TA.AperFunction,SMDPad,CuDef*
G36*
G01*
X-3775000Y6350000D02*
X-4225000Y6350000D01*
G75*
G02*
X-4450000Y6575000I0J225000D01*
G01*
X-4450000Y7125000D01*
G75*
G02*
X-4225000Y7350000I225000J0D01*
G01*
X-3775000Y7350000D01*
G75*
G02*
X-3550000Y7125000I0J-225000D01*
G01*
X-3550000Y6575000D01*
G75*
G02*
X-3775000Y6350000I-225000J0D01*
G01*
G37*
G04 #@! TD.AperFunction*
G04 #@! TA.AperFunction,SMDPad,CuDef*
G36*
G01*
X3775000Y7350000D02*
X4225000Y7350000D01*
G75*
G02*
X4450000Y7125000I0J-225000D01*
G01*
X4450000Y6575000D01*
G75*
G02*
X4225000Y6350000I-225000J0D01*
G01*
X3775000Y6350000D01*
G75*
G02*
X3550000Y6575000I0J225000D01*
G01*
X3550000Y7125000D01*
G75*
G02*
X3775000Y7350000I225000J0D01*
G01*
G37*
G04 #@! TD.AperFunction*
G04 #@! TA.AperFunction,SMDPad,CuDef*
G36*
G01*
X3775000Y5650000D02*
X4225000Y5650000D01*
G75*
G02*
X4450000Y5425000I0J-225000D01*
G01*
X4450000Y4875000D01*
G75*
G02*
X4225000Y4650000I-225000J0D01*
G01*
X3775000Y4650000D01*
G75*
G02*
X3550000Y4875000I0J225000D01*
G01*
X3550000Y5425000D01*
G75*
G02*
X3775000Y5650000I225000J0D01*
G01*
G37*
G04 #@! TD.AperFunction*
G04 #@! TA.AperFunction,SMDPad,CuDef*
G36*
G01*
X-11150000Y225000D02*
X-11150000Y-225000D01*
G75*
G02*
X-11375000Y-450000I-225000J0D01*
G01*
X-11925000Y-450000D01*
G75*
G02*
X-12150000Y-225000I0J225000D01*
G01*
X-12150000Y225000D01*
G75*
G02*
X-11925000Y450000I225000J0D01*
G01*
X-11375000Y450000D01*
G75*
G02*
X-11150000Y225000I0J-225000D01*
G01*
G37*
G04 #@! TD.AperFunction*
G04 #@! TA.AperFunction,SMDPad,CuDef*
G36*
G01*
X-12850000Y225000D02*
X-12850000Y-225000D01*
G75*
G02*
X-13075000Y-450000I-225000J0D01*
G01*
X-13625000Y-450000D01*
G75*
G02*
X-13850000Y-225000I0J225000D01*
G01*
X-13850000Y225000D01*
G75*
G02*
X-13625000Y450000I225000J0D01*
G01*
X-13075000Y450000D01*
G75*
G02*
X-12850000Y225000I0J-225000D01*
G01*
G37*
G04 #@! TD.AperFunction*
G04 #@! TA.AperFunction,SMDPad,CuDef*
G36*
G01*
X11150000Y-225000D02*
X11150000Y225000D01*
G75*
G02*
X11375000Y450000I225000J0D01*
G01*
X11925000Y450000D01*
G75*
G02*
X12150000Y225000I0J-225000D01*
G01*
X12150000Y-225000D01*
G75*
G02*
X11925000Y-450000I-225000J0D01*
G01*
X11375000Y-450000D01*
G75*
G02*
X11150000Y-225000I0J225000D01*
G01*
G37*
G04 #@! TD.AperFunction*
G04 #@! TA.AperFunction,SMDPad,CuDef*
G36*
G01*
X12850000Y-225000D02*
X12850000Y225000D01*
G75*
G02*
X13075000Y450000I225000J0D01*
G01*
X13625000Y450000D01*
G75*
G02*
X13850000Y225000I0J-225000D01*
G01*
X13850000Y-225000D01*
G75*
G02*
X13625000Y-450000I-225000J0D01*
G01*
X13075000Y-450000D01*
G75*
G02*
X12850000Y-225000I0J225000D01*
G01*
G37*
G04 #@! TD.AperFunction*
D15*
X-10600000Y2000000D03*
X8000000Y-33500000D03*
X4500000Y-30000000D03*
X-8000000Y-32500000D03*
X-5500000Y-20000000D03*
X-8000000Y-7500000D03*
X13500000Y-12000000D03*
X13500000Y-23000000D03*
X2500000Y-25000000D03*
X12500000Y-15000000D03*
X3700000Y-12500000D03*
X12000000Y5000000D03*
X-5800000Y5900000D03*
X1800000Y2800000D03*
X12500000Y-32500000D03*
X-12500000Y-32500000D03*
X-12500000Y-7500000D03*
X12500000Y-7500000D03*
X10000000Y-20000000D03*
X0Y-30000000D03*
X-10000000Y-20000000D03*
X0Y-10000000D03*
D16*
X-13600000Y-33450000D02*
X-14450000Y-33450000D01*
X-14450000Y-33450000D02*
X-14500000Y-33400000D01*
X-14500000Y-33400000D02*
X-14500000Y-32600000D01*
X-14400000Y-32500000D02*
X-14500000Y-32600000D01*
X-13600000Y-32500000D02*
X-14400000Y-32500000D01*
X-11650000Y-27500000D02*
X-11650000Y-26750000D01*
X-11650000Y-26750000D02*
X-11800000Y-26600000D01*
X-11800000Y-26600000D02*
X-14300000Y-26600000D01*
X-14400000Y-32500000D02*
X-14500000Y-32400000D01*
X-14500000Y-26800000D02*
X-14300000Y-26600000D01*
X-14500000Y-32400000D02*
X-14500000Y-26800000D01*
X-11650000Y-27500000D02*
X-7700000Y-27500000D01*
X-5200000Y-30000000D02*
X-1100000Y-30000000D01*
X-7700000Y-27500000D02*
X-5200000Y-30000000D01*
X-1100000Y-30000000D02*
X-1900000Y-30000000D01*
X-1900000Y-30000000D02*
X-2100000Y-30200000D01*
X-2100000Y-30200000D02*
X-2100000Y-32200000D01*
X-1800000Y-32500000D02*
X-2100000Y-32200000D01*
X11400000Y-33450000D02*
X10550000Y-33450000D01*
X10550000Y-33450000D02*
X10400000Y-33300000D01*
X10400000Y-33300000D02*
X10400000Y-32700000D01*
X10600000Y-32500000D02*
X-1800000Y-32500000D01*
X10400000Y-32700000D02*
X10600000Y-32500000D01*
X11400000Y-32500000D02*
X10600000Y-32500000D01*
X10400000Y-32300000D02*
X10600000Y-32500000D01*
X10400000Y-26800000D02*
X10400000Y-32300000D01*
X13100000Y-26400000D02*
X10800000Y-26400000D01*
X13350000Y-26650000D02*
X13100000Y-26400000D01*
X10800000Y-26400000D02*
X10400000Y-26800000D01*
X13350000Y-27500000D02*
X13350000Y-26650000D01*
X8900000Y-20000000D02*
X8100000Y-20000000D01*
X8100000Y-20000000D02*
X8000000Y-20100000D01*
X8000000Y-24400000D02*
X10400000Y-26800000D01*
X-11100000Y-20000000D02*
X-11900000Y-20000000D01*
X-11100000Y-20950000D02*
X-11950000Y-20950000D01*
X-11950000Y-20950000D02*
X-12100000Y-20800000D01*
X-12100000Y-20200000D02*
X-11900000Y-20000000D01*
X-12100000Y-20800000D02*
X-12100000Y-20200000D01*
X8000000Y-20100000D02*
X8000000Y-22800000D01*
X-12100000Y-22500000D02*
X-11800000Y-22800000D01*
X-12100000Y-21100000D02*
X-12100000Y-22500000D01*
X-11950000Y-20950000D02*
X-12100000Y-21100000D01*
X-11800000Y-22800000D02*
X8000000Y-22800000D01*
X8000000Y-22800000D02*
X8000000Y-24400000D01*
X-13600000Y-8450000D02*
X-14350000Y-8450000D01*
X-14350000Y-8450000D02*
X-14500000Y-8300000D01*
X-14500000Y-8300000D02*
X-14500000Y-7600000D01*
X-14400000Y-7500000D02*
X-14500000Y-7600000D01*
X-13600000Y-7500000D02*
X-14400000Y-7500000D01*
X-14500000Y-10000000D02*
X-12100000Y-12400000D01*
X-12100000Y-19800000D02*
X-11900000Y-20000000D01*
X-14500000Y-8600000D02*
X-14500000Y-10000000D01*
X-14350000Y-8450000D02*
X-14500000Y-8600000D01*
X-9150000Y-15000000D02*
X-9150000Y-14250000D01*
X-9150000Y-14250000D02*
X-9400000Y-14000000D01*
X-9400000Y-14000000D02*
X-12100000Y-14000000D01*
X-12100000Y-14000000D02*
X-12100000Y-19800000D01*
X-12100000Y-12400000D02*
X-12100000Y-14000000D01*
X-1100000Y-10950000D02*
X-1950000Y-10950000D01*
X-1950000Y-10950000D02*
X-2100000Y-10800000D01*
X-2100000Y-10800000D02*
X-2100000Y-10100000D01*
X-2000000Y-10000000D02*
X-2100000Y-10100000D01*
X-1100000Y-10000000D02*
X-2000000Y-10000000D01*
X-8900000Y-14000000D02*
X-9150000Y-14250000D01*
X-2100000Y-11100000D02*
X-2100000Y-13900000D01*
X-2200000Y-14000000D02*
X-8900000Y-14000000D01*
X-2100000Y-13900000D02*
X-2200000Y-14000000D01*
X-1950000Y-10950000D02*
X-2100000Y-11100000D01*
X5200000Y-5050000D02*
X6069790Y-5919790D01*
X8000000Y-19900000D02*
X8100000Y-20000000D01*
X7154978Y-5919790D02*
X8000000Y-6764812D01*
X6069790Y-5919790D02*
X7154978Y-5919790D01*
X11400000Y-7500000D02*
X10527411Y-7500000D01*
X10527411Y-7500000D02*
X10427411Y-7600000D01*
X11400000Y-8450000D02*
X10577411Y-8450000D01*
X10427411Y-8300000D02*
X10427411Y-7600000D01*
X10577411Y-8450000D02*
X10427411Y-8300000D01*
X10550000Y-8450000D02*
X10427411Y-8572589D01*
X10577411Y-8450000D02*
X10550000Y-8450000D01*
X14957210Y-11482592D02*
X14957210Y-3257210D01*
X13804801Y-12635001D02*
X14957210Y-11482592D01*
X10427411Y-9867213D02*
X13195199Y-12635001D01*
X13195199Y-12635001D02*
X13804801Y-12635001D01*
X10427411Y-8572589D02*
X10427411Y-9867213D01*
X14200000Y-2500000D02*
X13350000Y-2500000D01*
X14957210Y-3257210D02*
X14200000Y-2500000D01*
X-14400000Y-7500000D02*
X-14500000Y-7400000D01*
X-14500000Y-7400000D02*
X-14500000Y-2100000D01*
X-14500000Y-2100000D02*
X-13900000Y-1500000D01*
X-11650000Y-1850000D02*
X-12000000Y-1500000D01*
X-11650000Y-2500000D02*
X-11650000Y-1850000D01*
X-6700000Y-5050000D02*
X-8250000Y-5050000D01*
X-8250000Y-5050000D02*
X-10800000Y-2500000D01*
X-10800000Y-2500000D02*
X-11650000Y-2500000D01*
X1350000Y-5000000D02*
X3500000Y-7150000D01*
X850000Y-5000000D02*
X1350000Y-5000000D01*
X3500000Y-7150000D02*
X3500000Y-8600000D01*
X3500000Y-8600000D02*
X4119790Y-9219790D01*
X7919790Y-9219790D02*
X8000000Y-9300000D01*
X8000000Y-9300000D02*
X8000000Y-19900000D01*
X4119790Y-9219790D02*
X7919790Y-9219790D01*
X8000000Y-6764812D02*
X8000000Y-9300000D01*
X-13400000Y-1500000D02*
X-12000000Y-1500000D01*
X-13900000Y-1500000D02*
X-13400000Y-1500000D01*
X-11650000Y-1150000D02*
X-12000000Y-1500000D01*
X-11650000Y0D02*
X-11650000Y-1150000D01*
X-11650000Y950000D02*
X-10600000Y2000000D01*
X-11650000Y0D02*
X-11650000Y950000D01*
X11650000Y0D02*
X11650000Y-850000D01*
X11650000Y-850000D02*
X12000000Y-1200000D01*
X12000000Y-1200000D02*
X12800000Y-1200000D01*
X13350000Y-1750000D02*
X12800000Y-1200000D01*
X13350000Y-2500000D02*
X13350000Y-1750000D01*
X-1850000Y4500000D02*
X-2900000Y4500000D01*
X-2900000Y4500000D02*
X-3100000Y4700000D01*
X-3100000Y4700000D02*
X-3100000Y5000000D01*
X-3250000Y5150000D02*
X-3100000Y5000000D01*
X-4000000Y5150000D02*
X-3250000Y5150000D01*
X-9675000Y6000000D02*
X-10600000Y6000000D01*
X-10600000Y6000000D02*
X-11000000Y5600000D01*
X-11000000Y5600000D02*
X-11000000Y5200000D01*
X-6350000Y550000D02*
X-6350000Y0D01*
X-4000000Y5150000D02*
X-5250000Y5150000D01*
X-6300000Y50000D02*
X-6350000Y0D01*
X-5250000Y5150000D02*
X-6300000Y4100000D01*
X-9900000Y4100000D02*
X-6300000Y4100000D01*
X-11000000Y5200000D02*
X-9900000Y4100000D01*
X11650000Y0D02*
X11650000Y1050000D01*
X10535001Y2164999D02*
X-6264999Y2164999D01*
X11650000Y1050000D02*
X10535001Y2164999D01*
X-6264999Y2164999D02*
X-6300000Y2200000D01*
X-6300000Y2200000D02*
X-6300000Y50000D01*
X-6300000Y4100000D02*
X-6300000Y2200000D01*
X8530201Y-34030201D02*
X8000000Y-33500000D01*
X14460201Y-32576201D02*
X14460201Y-33964161D01*
X14394161Y-34030201D02*
X8530201Y-34030201D01*
X14460201Y-33964161D02*
X14394161Y-34030201D01*
X14384000Y-32500000D02*
X14460201Y-32576201D01*
X13600000Y-32500000D02*
X14384000Y-32500000D01*
X1100000Y-30000000D02*
X4500000Y-30000000D01*
X-11400000Y-32500000D02*
X-8000000Y-32500000D01*
X-8900000Y-20000000D02*
X-5500000Y-20000000D01*
X-11400000Y-7500000D02*
X-8000000Y-7500000D01*
X14460201Y-11039799D02*
X13500000Y-12000000D01*
X14460201Y-7576201D02*
X14460201Y-11039799D01*
X14384000Y-7500000D02*
X14460201Y-7576201D01*
X13600000Y-7500000D02*
X14384000Y-7500000D01*
X13500000Y-21616000D02*
X13500000Y-23000000D01*
X11884000Y-20000000D02*
X13500000Y-21616000D01*
X11100000Y-20000000D02*
X11884000Y-20000000D01*
X850000Y-25000000D02*
X2500000Y-25000000D01*
X10850000Y-15000000D02*
X12500000Y-15000000D01*
X3700000Y-11816000D02*
X3700000Y-12500000D01*
X1884000Y-10000000D02*
X3700000Y-11816000D01*
X1100000Y-10000000D02*
X1884000Y-10000000D01*
X5200000Y-10050000D02*
X5200000Y-10800000D01*
X4184000Y-11816000D02*
X3700000Y-11816000D01*
X5200000Y-10800000D02*
X4184000Y-11816000D01*
X-6700000Y-10050000D02*
X-7550000Y-10050000D01*
X-8000000Y-9600000D02*
X-8000000Y-7500000D01*
X-7550000Y-10050000D02*
X-8000000Y-9600000D01*
X-13350000Y0D02*
X-13350000Y650000D01*
X-11364999Y2635001D02*
X-10295199Y2635001D01*
X-8890000Y1229802D02*
X-8890000Y0D01*
X-10295199Y2635001D02*
X-8890000Y1229802D01*
X-13350000Y650000D02*
X-11364999Y2635001D01*
X4000000Y5150000D02*
X3350000Y5150000D01*
X3350000Y5150000D02*
X3100000Y5400000D01*
X0Y6000000D02*
X2900000Y6000000D01*
X3100000Y5800000D02*
X3100000Y5400000D01*
X2900000Y6000000D02*
X3100000Y5800000D01*
X-4000000Y6850000D02*
X-3250000Y6850000D01*
X-3250000Y6850000D02*
X-3000000Y6600000D01*
X-3000000Y6600000D02*
X-3000000Y6200000D01*
X-2800000Y6000000D02*
X-3000000Y6200000D01*
X0Y6000000D02*
X-2800000Y6000000D01*
X13350000Y3650000D02*
X12000000Y5000000D01*
X13350000Y0D02*
X13350000Y3650000D01*
X-4850000Y6850000D02*
X-5800000Y5900000D01*
X-4000000Y6850000D02*
X-4850000Y6850000D01*
X4050000Y6900000D02*
X4000000Y6850000D01*
X3350000Y6850000D02*
X4000000Y6850000D01*
X2700000Y7500000D02*
X3350000Y6850000D01*
X1850000Y7500000D02*
X2700000Y7500000D01*
X1850000Y7500000D02*
X-1850000Y7500000D01*
X-1850000Y7500000D02*
X-3000000Y7500000D01*
X-3000000Y7500000D02*
X-3500000Y8000000D01*
X-3500000Y8000000D02*
X-5000000Y8000000D01*
X-5000000Y8000000D02*
X-7000000Y6000000D01*
X-7000000Y6000000D02*
X-8325000Y6000000D01*
X5500000Y6850000D02*
X5550000Y6900000D01*
X4000000Y6850000D02*
X5500000Y6850000D01*
X13600000Y-31550000D02*
X14450000Y-31550000D01*
X14450000Y-31550000D02*
X14600000Y-31400000D01*
X14600000Y-31400000D02*
X14600000Y-29200000D01*
X14400000Y-29000000D02*
X14600000Y-29200000D01*
X13450000Y-29000000D02*
X14400000Y-29000000D01*
X8957210Y-67210D02*
X8890000Y0D01*
X8957210Y-10517408D02*
X8957210Y-67210D01*
X14400000Y-15960198D02*
X8957210Y-10517408D01*
X14400000Y-29000000D02*
X14400000Y-15960198D01*
X11550000Y-27600000D02*
X11650000Y-27500000D01*
X11550000Y-29000000D02*
X11550000Y-27600000D01*
X-11400000Y-31550000D02*
X-10550000Y-31550000D01*
X-10550000Y-31550000D02*
X-10500000Y-31500000D01*
X-11550000Y-29000000D02*
X-10600000Y-29000000D01*
X-10500000Y-29100000D02*
X-10500000Y-31500000D01*
X-10600000Y-29000000D02*
X-10500000Y-29100000D01*
X-459182Y-34487410D02*
X-3446592Y-31500000D01*
X14583544Y-34487410D02*
X-459182Y-34487410D01*
X15144790Y-33926164D02*
X14583544Y-34487410D01*
X15144790Y-16058396D02*
X15144790Y-33926164D01*
X9970201Y-10883807D02*
X15144790Y-16058396D01*
X9970201Y518497D02*
X9970201Y-10883807D01*
X-3446592Y-31500000D02*
X-10500000Y-31500000D01*
X9408497Y1080201D02*
X9970201Y518497D01*
X7430201Y1080201D02*
X9408497Y1080201D01*
X6350000Y0D02*
X7430201Y1080201D01*
X-13450000Y-27600000D02*
X-13350000Y-27500000D01*
X-13450000Y-29000000D02*
X-13450000Y-27600000D01*
X-11400000Y-6550000D02*
X-10550000Y-6550000D01*
X-10550000Y-6550000D02*
X-10400000Y-6400000D01*
X-10600000Y-4000000D02*
X-10400000Y-4200000D01*
X-11550000Y-4000000D02*
X-10600000Y-4000000D01*
X-10319790Y-5919790D02*
X-10400000Y-6000000D01*
X-4784602Y-5919790D02*
X-10319790Y-5919790D01*
X-4419790Y-5554978D02*
X-4784602Y-5919790D01*
X-4419790Y-3780210D02*
X-4419790Y-5554978D01*
X-4890201Y-3309799D02*
X-4419790Y-3780210D01*
X-4890201Y518497D02*
X-4890201Y-3309799D01*
X-4328497Y1080201D02*
X-4890201Y518497D01*
X-751503Y1080201D02*
X-4328497Y1080201D01*
X-189799Y-410201D02*
X-189799Y518497D01*
X-189799Y518497D02*
X-751503Y1080201D01*
X480201Y-1080201D02*
X-189799Y-410201D01*
X2729799Y-1080201D02*
X480201Y-1080201D01*
X3810000Y0D02*
X2729799Y-1080201D01*
X-10400000Y-6400000D02*
X-10400000Y-6000000D01*
X-10400000Y-6000000D02*
X-10400000Y-4200000D01*
X-13450000Y-2600000D02*
X-13350000Y-2500000D01*
X-13450000Y-4000000D02*
X-13450000Y-2600000D01*
X13600000Y-6550000D02*
X14350000Y-6550000D01*
X14350000Y-6550000D02*
X14500000Y-6400000D01*
X14300000Y-4000000D02*
X14500000Y-4200000D01*
X13450000Y-4000000D02*
X14300000Y-4000000D01*
X2807411Y1537411D02*
X1270000Y0D01*
X9597879Y1537411D02*
X2807411Y1537411D01*
X10427411Y-4041889D02*
X10427410Y707880D01*
X10427410Y707880D02*
X9597879Y1537411D01*
X11485522Y-5100000D02*
X10427411Y-4041889D01*
X14500000Y-5100000D02*
X11485522Y-5100000D01*
X14500000Y-6400000D02*
X14500000Y-5100000D01*
X14500000Y-5100000D02*
X14500000Y-4200000D01*
X11550000Y-2600000D02*
X11650000Y-2500000D01*
X11550000Y-4000000D02*
X11550000Y-2600000D01*
X9050000Y-15100000D02*
X9150000Y-15000000D01*
X9050000Y-16500000D02*
X9050000Y-15100000D01*
X12100000Y-18900000D02*
X11950000Y-19050000D01*
X12100000Y-16700000D02*
X12100000Y-18900000D01*
X11950000Y-19050000D02*
X11100000Y-19050000D01*
X11900000Y-16500000D02*
X12100000Y-16700000D01*
X10950000Y-16500000D02*
X11900000Y-16500000D01*
X7150000Y-5050000D02*
X8500000Y-6400000D01*
X6700000Y-5050000D02*
X7150000Y-5050000D01*
X10019790Y-15454978D02*
X10345022Y-15780210D01*
X10019790Y-13894558D02*
X10019790Y-15454978D01*
X8500000Y-12374768D02*
X10019790Y-13894558D01*
X8500000Y-6400000D02*
X8500000Y-12374768D01*
X10345022Y-15780210D02*
X10880210Y-15780210D01*
X10950000Y-15850000D02*
X10950000Y-16500000D01*
X10880210Y-15780210D02*
X10950000Y-15850000D01*
X-950000Y-25100000D02*
X-850000Y-25000000D01*
X-950000Y-26500000D02*
X-950000Y-25100000D01*
X1100000Y-29050000D02*
X1950000Y-29050000D01*
X1950000Y-29050000D02*
X2100000Y-28900000D01*
X950000Y-26500000D02*
X1800000Y-26500000D01*
X1800000Y-26500000D02*
X2100000Y-26800000D01*
X2100000Y-26800000D02*
X2100000Y-27700000D01*
X2100000Y-27700000D02*
X2100000Y-28900000D01*
X-7430201Y-1969799D02*
X-5200000Y-4200000D01*
X-7430201Y518497D02*
X-7430201Y-1969799D01*
X-10003915Y3092211D02*
X-7430201Y518497D01*
X-12207789Y3092211D02*
X-10003915Y3092211D01*
X-14957210Y-20289382D02*
X-14957209Y342791D01*
X-5200000Y-4200000D02*
X-5200000Y-5050000D01*
X-14957209Y342791D02*
X-12207789Y3092211D01*
X-11296198Y-23257210D02*
X-11989383Y-23257209D01*
X-6853408Y-27700000D02*
X-11296198Y-23257210D01*
X-11989383Y-23257209D02*
X-14957210Y-20289382D01*
X2100000Y-27700000D02*
X-6853408Y-27700000D01*
X-8900000Y-19050000D02*
X-8050000Y-19050000D01*
X-8050000Y-19050000D02*
X-7800000Y-18800000D01*
X-7800000Y-18800000D02*
X-7800000Y-16500000D01*
X-7800000Y-16500000D02*
X-9050000Y-16500000D01*
X2800000Y-16500000D02*
X-7800000Y-16500000D01*
X6700000Y-12600000D02*
X2800000Y-16500000D01*
X6700000Y-10050000D02*
X6700000Y-12600000D01*
X-10950000Y-15100000D02*
X-10850000Y-15000000D01*
X-10950000Y-16500000D02*
X-10950000Y-15100000D01*
X1100000Y-9050000D02*
X1950000Y-9050000D01*
X1950000Y-9050000D02*
X2100000Y-8900000D01*
X950000Y-6500000D02*
X1800000Y-6500000D01*
X1800000Y-6500000D02*
X2100000Y-6800000D01*
X-5200000Y-10050000D02*
X-4150000Y-10050000D01*
X-2100000Y-8000000D02*
X2100000Y-8000000D01*
X2100000Y-8000000D02*
X2100000Y-8900000D01*
X-4150000Y-10050000D02*
X-2100000Y-8000000D01*
X2100000Y-6800000D02*
X2100000Y-8000000D01*
X-950000Y-5100000D02*
X-850000Y-5000000D01*
X-950000Y-6500000D02*
X-950000Y-5100000D01*
X7250000Y6900000D02*
X7250000Y5400000D01*
X1800000Y2800000D02*
X4800000Y2800000D01*
X5550000Y3550000D02*
X5550000Y5400000D01*
X4800000Y2800000D02*
X5550000Y3550000D01*
X-5950000Y-8350000D02*
X-5950000Y-6750000D01*
X-5950000Y-6750000D02*
X-5200000Y-6750000D01*
X-6700000Y-6750000D02*
X-5950000Y-6750000D01*
X-6700000Y-8350000D02*
X-5950000Y-8350000D01*
X-5950000Y-8350000D02*
X-5200000Y-8350000D01*
X-5200000Y-6750000D02*
X-4150000Y-6750000D01*
X-4150000Y-6750000D02*
X-3800000Y-6400000D01*
X-3810000Y-6390000D02*
X-3810000Y0D01*
X-3800000Y-6400000D02*
X-3810000Y-6390000D01*
X5950000Y-8350000D02*
X5950000Y-6750000D01*
X5200000Y-6750000D02*
X5950000Y-6750000D01*
X5950000Y-6750000D02*
X6700000Y-6750000D01*
X5200000Y-8350000D02*
X5950000Y-8350000D01*
X5950000Y-8350000D02*
X6700000Y-8350000D01*
X4100000Y-5370000D02*
X-1270000Y0D01*
X4100000Y-6500000D02*
X4100000Y-5370000D01*
X4350000Y-6750000D02*
X4100000Y-6500000D01*
X5200000Y-6750000D02*
X4350000Y-6750000D01*
X12500000Y-33134000D02*
X12500000Y-32500000D01*
X12816000Y-33450000D02*
X12500000Y-33134000D01*
X13600000Y-33450000D02*
X12816000Y-33450000D01*
X-12500000Y-33134000D02*
X-12500000Y-32500000D01*
X-12184000Y-33450000D02*
X-12500000Y-33134000D01*
X-11400000Y-33450000D02*
X-12184000Y-33450000D01*
X-12500000Y-8134000D02*
X-12500000Y-7500000D01*
X-12184000Y-8450000D02*
X-12500000Y-8134000D01*
X-11400000Y-8450000D02*
X-12184000Y-8450000D01*
X12500000Y-8134000D02*
X12500000Y-7500000D01*
X12816000Y-8450000D02*
X12500000Y-8134000D01*
X13600000Y-8450000D02*
X12816000Y-8450000D01*
X10000000Y-20634000D02*
X10000000Y-20000000D01*
X10316000Y-20950000D02*
X10000000Y-20634000D01*
X11100000Y-20950000D02*
X10316000Y-20950000D01*
X0Y-30634000D02*
X0Y-30000000D01*
X316000Y-30950000D02*
X0Y-30634000D01*
X1100000Y-30950000D02*
X316000Y-30950000D01*
X-10000000Y-20634000D02*
X-10000000Y-20000000D01*
X-9684000Y-20950000D02*
X-10000000Y-20634000D01*
X-8900000Y-20950000D02*
X-9684000Y-20950000D01*
X0Y-10634000D02*
X0Y-10000000D01*
X316000Y-10950000D02*
X0Y-10634000D01*
X1100000Y-10950000D02*
X316000Y-10950000D01*
M02*
