G04 #@! TF.GenerationSoftware,KiCad,Pcbnew,(5.1.9-0-10_14)*
G04 #@! TF.CreationDate,2021-07-10T20:43:16+09:00*
G04 #@! TF.ProjectId,TouchController,546f7563-6843-46f6-9e74-726f6c6c6572,V1.0*
G04 #@! TF.SameCoordinates,Original*
G04 #@! TF.FileFunction,Soldermask,Bot*
G04 #@! TF.FilePolarity,Negative*
%FSLAX46Y46*%
G04 Gerber Fmt 4.6, Leading zero omitted, Abs format (unit mm)*
G04 Created by KiCad (PCBNEW (5.1.9-0-10_14)) date 2021-07-10 20:43:16*
%MOMM*%
%LPD*%
G01*
G04 APERTURE LIST*
%ADD10C,0.600000*%
%ADD11R,1.500000X0.700000*%
%ADD12C,0.100000*%
%ADD13R,1.060000X0.500000*%
%ADD14R,1.500000X1.500000*%
%ADD15O,1.500000X1.500000*%
%ADD16R,0.600000X1.000000*%
%ADD17R,1.800000X1.000000*%
G04 APERTURE END LIST*
D10*
X0Y-6500000D03*
G36*
G01*
X-600000Y-6225000D02*
X-600000Y-6775000D01*
G75*
G02*
X-775000Y-6950000I-175000J0D01*
G01*
X-1125000Y-6950000D01*
G75*
G02*
X-1300000Y-6775000I0J175000D01*
G01*
X-1300000Y-6225000D01*
G75*
G02*
X-1125000Y-6050000I175000J0D01*
G01*
X-775000Y-6050000D01*
G75*
G02*
X-600000Y-6225000I0J-175000D01*
G01*
G37*
G36*
G01*
X1300000Y-6225000D02*
X1300000Y-6775000D01*
G75*
G02*
X1125000Y-6950000I-175000J0D01*
G01*
X775000Y-6950000D01*
G75*
G02*
X600000Y-6775000I0J175000D01*
G01*
X600000Y-6225000D01*
G75*
G02*
X775000Y-6050000I175000J0D01*
G01*
X1125000Y-6050000D01*
G75*
G02*
X1300000Y-6225000I0J-175000D01*
G01*
G37*
X-10000000Y-16500000D03*
G36*
G01*
X-10600000Y-16225000D02*
X-10600000Y-16775000D01*
G75*
G02*
X-10775000Y-16950000I-175000J0D01*
G01*
X-11125000Y-16950000D01*
G75*
G02*
X-11300000Y-16775000I0J175000D01*
G01*
X-11300000Y-16225000D01*
G75*
G02*
X-11125000Y-16050000I175000J0D01*
G01*
X-10775000Y-16050000D01*
G75*
G02*
X-10600000Y-16225000I0J-175000D01*
G01*
G37*
G36*
G01*
X-8700000Y-16225000D02*
X-8700000Y-16775000D01*
G75*
G02*
X-8875000Y-16950000I-175000J0D01*
G01*
X-9225000Y-16950000D01*
G75*
G02*
X-9400000Y-16775000I0J175000D01*
G01*
X-9400000Y-16225000D01*
G75*
G02*
X-9225000Y-16050000I175000J0D01*
G01*
X-8875000Y-16050000D01*
G75*
G02*
X-8700000Y-16225000I0J-175000D01*
G01*
G37*
X0Y-26500000D03*
G36*
G01*
X600000Y-26775000D02*
X600000Y-26225000D01*
G75*
G02*
X775000Y-26050000I175000J0D01*
G01*
X1125000Y-26050000D01*
G75*
G02*
X1300000Y-26225000I0J-175000D01*
G01*
X1300000Y-26775000D01*
G75*
G02*
X1125000Y-26950000I-175000J0D01*
G01*
X775000Y-26950000D01*
G75*
G02*
X600000Y-26775000I0J175000D01*
G01*
G37*
G36*
G01*
X-1300000Y-26775000D02*
X-1300000Y-26225000D01*
G75*
G02*
X-1125000Y-26050000I175000J0D01*
G01*
X-775000Y-26050000D01*
G75*
G02*
X-600000Y-26225000I0J-175000D01*
G01*
X-600000Y-26775000D01*
G75*
G02*
X-775000Y-26950000I-175000J0D01*
G01*
X-1125000Y-26950000D01*
G75*
G02*
X-1300000Y-26775000I0J175000D01*
G01*
G37*
X10000000Y-16500000D03*
G36*
G01*
X10600000Y-16775000D02*
X10600000Y-16225000D01*
G75*
G02*
X10775000Y-16050000I175000J0D01*
G01*
X11125000Y-16050000D01*
G75*
G02*
X11300000Y-16225000I0J-175000D01*
G01*
X11300000Y-16775000D01*
G75*
G02*
X11125000Y-16950000I-175000J0D01*
G01*
X10775000Y-16950000D01*
G75*
G02*
X10600000Y-16775000I0J175000D01*
G01*
G37*
G36*
G01*
X8700000Y-16775000D02*
X8700000Y-16225000D01*
G75*
G02*
X8875000Y-16050000I175000J0D01*
G01*
X9225000Y-16050000D01*
G75*
G02*
X9400000Y-16225000I0J-175000D01*
G01*
X9400000Y-16775000D01*
G75*
G02*
X9225000Y-16950000I-175000J0D01*
G01*
X8875000Y-16950000D01*
G75*
G02*
X8700000Y-16775000I0J175000D01*
G01*
G37*
X12500000Y-4000000D03*
G36*
G01*
X11900000Y-3725000D02*
X11900000Y-4275000D01*
G75*
G02*
X11725000Y-4450000I-175000J0D01*
G01*
X11375000Y-4450000D01*
G75*
G02*
X11200000Y-4275000I0J175000D01*
G01*
X11200000Y-3725000D01*
G75*
G02*
X11375000Y-3550000I175000J0D01*
G01*
X11725000Y-3550000D01*
G75*
G02*
X11900000Y-3725000I0J-175000D01*
G01*
G37*
G36*
G01*
X13800000Y-3725000D02*
X13800000Y-4275000D01*
G75*
G02*
X13625000Y-4450000I-175000J0D01*
G01*
X13275000Y-4450000D01*
G75*
G02*
X13100000Y-4275000I0J175000D01*
G01*
X13100000Y-3725000D01*
G75*
G02*
X13275000Y-3550000I175000J0D01*
G01*
X13625000Y-3550000D01*
G75*
G02*
X13800000Y-3725000I0J-175000D01*
G01*
G37*
X-12500000Y-4000000D03*
G36*
G01*
X-13100000Y-3725000D02*
X-13100000Y-4275000D01*
G75*
G02*
X-13275000Y-4450000I-175000J0D01*
G01*
X-13625000Y-4450000D01*
G75*
G02*
X-13800000Y-4275000I0J175000D01*
G01*
X-13800000Y-3725000D01*
G75*
G02*
X-13625000Y-3550000I175000J0D01*
G01*
X-13275000Y-3550000D01*
G75*
G02*
X-13100000Y-3725000I0J-175000D01*
G01*
G37*
G36*
G01*
X-11200000Y-3725000D02*
X-11200000Y-4275000D01*
G75*
G02*
X-11375000Y-4450000I-175000J0D01*
G01*
X-11725000Y-4450000D01*
G75*
G02*
X-11900000Y-4275000I0J175000D01*
G01*
X-11900000Y-3725000D01*
G75*
G02*
X-11725000Y-3550000I175000J0D01*
G01*
X-11375000Y-3550000D01*
G75*
G02*
X-11200000Y-3725000I0J-175000D01*
G01*
G37*
X-12500000Y-29000000D03*
G36*
G01*
X-13100000Y-28725000D02*
X-13100000Y-29275000D01*
G75*
G02*
X-13275000Y-29450000I-175000J0D01*
G01*
X-13625000Y-29450000D01*
G75*
G02*
X-13800000Y-29275000I0J175000D01*
G01*
X-13800000Y-28725000D01*
G75*
G02*
X-13625000Y-28550000I175000J0D01*
G01*
X-13275000Y-28550000D01*
G75*
G02*
X-13100000Y-28725000I0J-175000D01*
G01*
G37*
G36*
G01*
X-11200000Y-28725000D02*
X-11200000Y-29275000D01*
G75*
G02*
X-11375000Y-29450000I-175000J0D01*
G01*
X-11725000Y-29450000D01*
G75*
G02*
X-11900000Y-29275000I0J175000D01*
G01*
X-11900000Y-28725000D01*
G75*
G02*
X-11725000Y-28550000I175000J0D01*
G01*
X-11375000Y-28550000D01*
G75*
G02*
X-11200000Y-28725000I0J-175000D01*
G01*
G37*
X12500000Y-29000000D03*
G36*
G01*
X11900000Y-28725000D02*
X11900000Y-29275000D01*
G75*
G02*
X11725000Y-29450000I-175000J0D01*
G01*
X11375000Y-29450000D01*
G75*
G02*
X11200000Y-29275000I0J175000D01*
G01*
X11200000Y-28725000D01*
G75*
G02*
X11375000Y-28550000I175000J0D01*
G01*
X11725000Y-28550000D01*
G75*
G02*
X11900000Y-28725000I0J-175000D01*
G01*
G37*
G36*
G01*
X13800000Y-28725000D02*
X13800000Y-29275000D01*
G75*
G02*
X13625000Y-29450000I-175000J0D01*
G01*
X13275000Y-29450000D01*
G75*
G02*
X13100000Y-29275000I0J175000D01*
G01*
X13100000Y-28725000D01*
G75*
G02*
X13275000Y-28550000I175000J0D01*
G01*
X13625000Y-28550000D01*
G75*
G02*
X13800000Y-28725000I0J-175000D01*
G01*
G37*
D11*
X-1850000Y7500000D03*
X-1850000Y4500000D03*
X1850000Y7500000D03*
X1850000Y4500000D03*
D12*
G36*
X-900000Y5500000D02*
G01*
X-2600000Y5500000D01*
X-2600000Y6500000D01*
X-900000Y6500000D01*
X-400000Y7000000D01*
X400000Y7000000D01*
X400000Y6500000D01*
X2600000Y6500000D01*
X2600000Y5500000D01*
X400000Y5500000D01*
X400000Y5000000D01*
X-400000Y5000000D01*
X-900000Y5500000D01*
G37*
D13*
X-1100000Y-10000000D03*
X-1100000Y-9050000D03*
X-1100000Y-10950000D03*
X1100000Y-10950000D03*
X1100000Y-10000000D03*
X1100000Y-9050000D03*
X-11100000Y-20000000D03*
X-11100000Y-19050000D03*
X-11100000Y-20950000D03*
X-8900000Y-20950000D03*
X-8900000Y-20000000D03*
X-8900000Y-19050000D03*
X-1100000Y-30000000D03*
X-1100000Y-29050000D03*
X-1100000Y-30950000D03*
X1100000Y-30950000D03*
X1100000Y-30000000D03*
X1100000Y-29050000D03*
X8900000Y-20000000D03*
X8900000Y-19050000D03*
X8900000Y-20950000D03*
X11100000Y-20950000D03*
X11100000Y-20000000D03*
X11100000Y-19050000D03*
X11400000Y-7500000D03*
X11400000Y-6550000D03*
X11400000Y-8450000D03*
X13600000Y-8450000D03*
X13600000Y-7500000D03*
X13600000Y-6550000D03*
X-13600000Y-7500000D03*
X-13600000Y-6550000D03*
X-13600000Y-8450000D03*
X-11400000Y-8450000D03*
X-11400000Y-7500000D03*
X-11400000Y-6550000D03*
X-13600000Y-32500000D03*
X-13600000Y-31550000D03*
X-13600000Y-33450000D03*
X-11400000Y-33450000D03*
X-11400000Y-32500000D03*
X-11400000Y-31550000D03*
X11400000Y-32500000D03*
X11400000Y-31550000D03*
X11400000Y-33450000D03*
X13600000Y-33450000D03*
X13600000Y-32500000D03*
X13600000Y-31550000D03*
G36*
G01*
X-6475000Y-10550000D02*
X-6925000Y-10550000D01*
G75*
G02*
X-7150000Y-10325000I0J225000D01*
G01*
X-7150000Y-9775000D01*
G75*
G02*
X-6925000Y-9550000I225000J0D01*
G01*
X-6475000Y-9550000D01*
G75*
G02*
X-6250000Y-9775000I0J-225000D01*
G01*
X-6250000Y-10325000D01*
G75*
G02*
X-6475000Y-10550000I-225000J0D01*
G01*
G37*
G36*
G01*
X-6475000Y-8850000D02*
X-6925000Y-8850000D01*
G75*
G02*
X-7150000Y-8625000I0J225000D01*
G01*
X-7150000Y-8075000D01*
G75*
G02*
X-6925000Y-7850000I225000J0D01*
G01*
X-6475000Y-7850000D01*
G75*
G02*
X-6250000Y-8075000I0J-225000D01*
G01*
X-6250000Y-8625000D01*
G75*
G02*
X-6475000Y-8850000I-225000J0D01*
G01*
G37*
G36*
G01*
X-6475000Y-7250000D02*
X-6925000Y-7250000D01*
G75*
G02*
X-7150000Y-7025000I0J225000D01*
G01*
X-7150000Y-6475000D01*
G75*
G02*
X-6925000Y-6250000I225000J0D01*
G01*
X-6475000Y-6250000D01*
G75*
G02*
X-6250000Y-6475000I0J-225000D01*
G01*
X-6250000Y-7025000D01*
G75*
G02*
X-6475000Y-7250000I-225000J0D01*
G01*
G37*
G36*
G01*
X-6475000Y-5550000D02*
X-6925000Y-5550000D01*
G75*
G02*
X-7150000Y-5325000I0J225000D01*
G01*
X-7150000Y-4775000D01*
G75*
G02*
X-6925000Y-4550000I225000J0D01*
G01*
X-6475000Y-4550000D01*
G75*
G02*
X-6250000Y-4775000I0J-225000D01*
G01*
X-6250000Y-5325000D01*
G75*
G02*
X-6475000Y-5550000I-225000J0D01*
G01*
G37*
G36*
G01*
X-4975000Y-10550000D02*
X-5425000Y-10550000D01*
G75*
G02*
X-5650000Y-10325000I0J225000D01*
G01*
X-5650000Y-9775000D01*
G75*
G02*
X-5425000Y-9550000I225000J0D01*
G01*
X-4975000Y-9550000D01*
G75*
G02*
X-4750000Y-9775000I0J-225000D01*
G01*
X-4750000Y-10325000D01*
G75*
G02*
X-4975000Y-10550000I-225000J0D01*
G01*
G37*
G36*
G01*
X-4975000Y-8850000D02*
X-5425000Y-8850000D01*
G75*
G02*
X-5650000Y-8625000I0J225000D01*
G01*
X-5650000Y-8075000D01*
G75*
G02*
X-5425000Y-7850000I225000J0D01*
G01*
X-4975000Y-7850000D01*
G75*
G02*
X-4750000Y-8075000I0J-225000D01*
G01*
X-4750000Y-8625000D01*
G75*
G02*
X-4975000Y-8850000I-225000J0D01*
G01*
G37*
G36*
G01*
X-4975000Y-7250000D02*
X-5425000Y-7250000D01*
G75*
G02*
X-5650000Y-7025000I0J225000D01*
G01*
X-5650000Y-6475000D01*
G75*
G02*
X-5425000Y-6250000I225000J0D01*
G01*
X-4975000Y-6250000D01*
G75*
G02*
X-4750000Y-6475000I0J-225000D01*
G01*
X-4750000Y-7025000D01*
G75*
G02*
X-4975000Y-7250000I-225000J0D01*
G01*
G37*
G36*
G01*
X-4975000Y-5550000D02*
X-5425000Y-5550000D01*
G75*
G02*
X-5650000Y-5325000I0J225000D01*
G01*
X-5650000Y-4775000D01*
G75*
G02*
X-5425000Y-4550000I225000J0D01*
G01*
X-4975000Y-4550000D01*
G75*
G02*
X-4750000Y-4775000I0J-225000D01*
G01*
X-4750000Y-5325000D01*
G75*
G02*
X-4975000Y-5550000I-225000J0D01*
G01*
G37*
G36*
G01*
X5425000Y-10550000D02*
X4975000Y-10550000D01*
G75*
G02*
X4750000Y-10325000I0J225000D01*
G01*
X4750000Y-9775000D01*
G75*
G02*
X4975000Y-9550000I225000J0D01*
G01*
X5425000Y-9550000D01*
G75*
G02*
X5650000Y-9775000I0J-225000D01*
G01*
X5650000Y-10325000D01*
G75*
G02*
X5425000Y-10550000I-225000J0D01*
G01*
G37*
G36*
G01*
X5425000Y-8850000D02*
X4975000Y-8850000D01*
G75*
G02*
X4750000Y-8625000I0J225000D01*
G01*
X4750000Y-8075000D01*
G75*
G02*
X4975000Y-7850000I225000J0D01*
G01*
X5425000Y-7850000D01*
G75*
G02*
X5650000Y-8075000I0J-225000D01*
G01*
X5650000Y-8625000D01*
G75*
G02*
X5425000Y-8850000I-225000J0D01*
G01*
G37*
G36*
G01*
X5425000Y-7250000D02*
X4975000Y-7250000D01*
G75*
G02*
X4750000Y-7025000I0J225000D01*
G01*
X4750000Y-6475000D01*
G75*
G02*
X4975000Y-6250000I225000J0D01*
G01*
X5425000Y-6250000D01*
G75*
G02*
X5650000Y-6475000I0J-225000D01*
G01*
X5650000Y-7025000D01*
G75*
G02*
X5425000Y-7250000I-225000J0D01*
G01*
G37*
G36*
G01*
X5425000Y-5550000D02*
X4975000Y-5550000D01*
G75*
G02*
X4750000Y-5325000I0J225000D01*
G01*
X4750000Y-4775000D01*
G75*
G02*
X4975000Y-4550000I225000J0D01*
G01*
X5425000Y-4550000D01*
G75*
G02*
X5650000Y-4775000I0J-225000D01*
G01*
X5650000Y-5325000D01*
G75*
G02*
X5425000Y-5550000I-225000J0D01*
G01*
G37*
G36*
G01*
X6925000Y-10550000D02*
X6475000Y-10550000D01*
G75*
G02*
X6250000Y-10325000I0J225000D01*
G01*
X6250000Y-9775000D01*
G75*
G02*
X6475000Y-9550000I225000J0D01*
G01*
X6925000Y-9550000D01*
G75*
G02*
X7150000Y-9775000I0J-225000D01*
G01*
X7150000Y-10325000D01*
G75*
G02*
X6925000Y-10550000I-225000J0D01*
G01*
G37*
G36*
G01*
X6925000Y-8850000D02*
X6475000Y-8850000D01*
G75*
G02*
X6250000Y-8625000I0J225000D01*
G01*
X6250000Y-8075000D01*
G75*
G02*
X6475000Y-7850000I225000J0D01*
G01*
X6925000Y-7850000D01*
G75*
G02*
X7150000Y-8075000I0J-225000D01*
G01*
X7150000Y-8625000D01*
G75*
G02*
X6925000Y-8850000I-225000J0D01*
G01*
G37*
G36*
G01*
X6925000Y-7250000D02*
X6475000Y-7250000D01*
G75*
G02*
X6250000Y-7025000I0J225000D01*
G01*
X6250000Y-6475000D01*
G75*
G02*
X6475000Y-6250000I225000J0D01*
G01*
X6925000Y-6250000D01*
G75*
G02*
X7150000Y-6475000I0J-225000D01*
G01*
X7150000Y-7025000D01*
G75*
G02*
X6925000Y-7250000I-225000J0D01*
G01*
G37*
G36*
G01*
X6925000Y-5550000D02*
X6475000Y-5550000D01*
G75*
G02*
X6250000Y-5325000I0J225000D01*
G01*
X6250000Y-4775000D01*
G75*
G02*
X6475000Y-4550000I225000J0D01*
G01*
X6925000Y-4550000D01*
G75*
G02*
X7150000Y-4775000I0J-225000D01*
G01*
X7150000Y-5325000D01*
G75*
G02*
X6925000Y-5550000I-225000J0D01*
G01*
G37*
G36*
G01*
X1350000Y-4775000D02*
X1350000Y-5225000D01*
G75*
G02*
X1125000Y-5450000I-225000J0D01*
G01*
X575000Y-5450000D01*
G75*
G02*
X350000Y-5225000I0J225000D01*
G01*
X350000Y-4775000D01*
G75*
G02*
X575000Y-4550000I225000J0D01*
G01*
X1125000Y-4550000D01*
G75*
G02*
X1350000Y-4775000I0J-225000D01*
G01*
G37*
G36*
G01*
X-350000Y-4775000D02*
X-350000Y-5225000D01*
G75*
G02*
X-575000Y-5450000I-225000J0D01*
G01*
X-1125000Y-5450000D01*
G75*
G02*
X-1350000Y-5225000I0J225000D01*
G01*
X-1350000Y-4775000D01*
G75*
G02*
X-1125000Y-4550000I225000J0D01*
G01*
X-575000Y-4550000D01*
G75*
G02*
X-350000Y-4775000I0J-225000D01*
G01*
G37*
G36*
G01*
X-8650000Y-14775000D02*
X-8650000Y-15225000D01*
G75*
G02*
X-8875000Y-15450000I-225000J0D01*
G01*
X-9425000Y-15450000D01*
G75*
G02*
X-9650000Y-15225000I0J225000D01*
G01*
X-9650000Y-14775000D01*
G75*
G02*
X-9425000Y-14550000I225000J0D01*
G01*
X-8875000Y-14550000D01*
G75*
G02*
X-8650000Y-14775000I0J-225000D01*
G01*
G37*
G36*
G01*
X-10350000Y-14775000D02*
X-10350000Y-15225000D01*
G75*
G02*
X-10575000Y-15450000I-225000J0D01*
G01*
X-11125000Y-15450000D01*
G75*
G02*
X-11350000Y-15225000I0J225000D01*
G01*
X-11350000Y-14775000D01*
G75*
G02*
X-11125000Y-14550000I225000J0D01*
G01*
X-10575000Y-14550000D01*
G75*
G02*
X-10350000Y-14775000I0J-225000D01*
G01*
G37*
G36*
G01*
X1350000Y-24775000D02*
X1350000Y-25225000D01*
G75*
G02*
X1125000Y-25450000I-225000J0D01*
G01*
X575000Y-25450000D01*
G75*
G02*
X350000Y-25225000I0J225000D01*
G01*
X350000Y-24775000D01*
G75*
G02*
X575000Y-24550000I225000J0D01*
G01*
X1125000Y-24550000D01*
G75*
G02*
X1350000Y-24775000I0J-225000D01*
G01*
G37*
G36*
G01*
X-350000Y-24775000D02*
X-350000Y-25225000D01*
G75*
G02*
X-575000Y-25450000I-225000J0D01*
G01*
X-1125000Y-25450000D01*
G75*
G02*
X-1350000Y-25225000I0J225000D01*
G01*
X-1350000Y-24775000D01*
G75*
G02*
X-1125000Y-24550000I225000J0D01*
G01*
X-575000Y-24550000D01*
G75*
G02*
X-350000Y-24775000I0J-225000D01*
G01*
G37*
G36*
G01*
X11350000Y-14775000D02*
X11350000Y-15225000D01*
G75*
G02*
X11125000Y-15450000I-225000J0D01*
G01*
X10575000Y-15450000D01*
G75*
G02*
X10350000Y-15225000I0J225000D01*
G01*
X10350000Y-14775000D01*
G75*
G02*
X10575000Y-14550000I225000J0D01*
G01*
X11125000Y-14550000D01*
G75*
G02*
X11350000Y-14775000I0J-225000D01*
G01*
G37*
G36*
G01*
X9650000Y-14775000D02*
X9650000Y-15225000D01*
G75*
G02*
X9425000Y-15450000I-225000J0D01*
G01*
X8875000Y-15450000D01*
G75*
G02*
X8650000Y-15225000I0J225000D01*
G01*
X8650000Y-14775000D01*
G75*
G02*
X8875000Y-14550000I225000J0D01*
G01*
X9425000Y-14550000D01*
G75*
G02*
X9650000Y-14775000I0J-225000D01*
G01*
G37*
G36*
G01*
X13850000Y-2275000D02*
X13850000Y-2725000D01*
G75*
G02*
X13625000Y-2950000I-225000J0D01*
G01*
X13075000Y-2950000D01*
G75*
G02*
X12850000Y-2725000I0J225000D01*
G01*
X12850000Y-2275000D01*
G75*
G02*
X13075000Y-2050000I225000J0D01*
G01*
X13625000Y-2050000D01*
G75*
G02*
X13850000Y-2275000I0J-225000D01*
G01*
G37*
G36*
G01*
X12150000Y-2275000D02*
X12150000Y-2725000D01*
G75*
G02*
X11925000Y-2950000I-225000J0D01*
G01*
X11375000Y-2950000D01*
G75*
G02*
X11150000Y-2725000I0J225000D01*
G01*
X11150000Y-2275000D01*
G75*
G02*
X11375000Y-2050000I225000J0D01*
G01*
X11925000Y-2050000D01*
G75*
G02*
X12150000Y-2275000I0J-225000D01*
G01*
G37*
G36*
G01*
X-11150000Y-2275000D02*
X-11150000Y-2725000D01*
G75*
G02*
X-11375000Y-2950000I-225000J0D01*
G01*
X-11925000Y-2950000D01*
G75*
G02*
X-12150000Y-2725000I0J225000D01*
G01*
X-12150000Y-2275000D01*
G75*
G02*
X-11925000Y-2050000I225000J0D01*
G01*
X-11375000Y-2050000D01*
G75*
G02*
X-11150000Y-2275000I0J-225000D01*
G01*
G37*
G36*
G01*
X-12850000Y-2275000D02*
X-12850000Y-2725000D01*
G75*
G02*
X-13075000Y-2950000I-225000J0D01*
G01*
X-13625000Y-2950000D01*
G75*
G02*
X-13850000Y-2725000I0J225000D01*
G01*
X-13850000Y-2275000D01*
G75*
G02*
X-13625000Y-2050000I225000J0D01*
G01*
X-13075000Y-2050000D01*
G75*
G02*
X-12850000Y-2275000I0J-225000D01*
G01*
G37*
G36*
G01*
X-11150000Y-27275000D02*
X-11150000Y-27725000D01*
G75*
G02*
X-11375000Y-27950000I-225000J0D01*
G01*
X-11925000Y-27950000D01*
G75*
G02*
X-12150000Y-27725000I0J225000D01*
G01*
X-12150000Y-27275000D01*
G75*
G02*
X-11925000Y-27050000I225000J0D01*
G01*
X-11375000Y-27050000D01*
G75*
G02*
X-11150000Y-27275000I0J-225000D01*
G01*
G37*
G36*
G01*
X-12850000Y-27275000D02*
X-12850000Y-27725000D01*
G75*
G02*
X-13075000Y-27950000I-225000J0D01*
G01*
X-13625000Y-27950000D01*
G75*
G02*
X-13850000Y-27725000I0J225000D01*
G01*
X-13850000Y-27275000D01*
G75*
G02*
X-13625000Y-27050000I225000J0D01*
G01*
X-13075000Y-27050000D01*
G75*
G02*
X-12850000Y-27275000I0J-225000D01*
G01*
G37*
G36*
G01*
X13850000Y-27275000D02*
X13850000Y-27725000D01*
G75*
G02*
X13625000Y-27950000I-225000J0D01*
G01*
X13075000Y-27950000D01*
G75*
G02*
X12850000Y-27725000I0J225000D01*
G01*
X12850000Y-27275000D01*
G75*
G02*
X13075000Y-27050000I225000J0D01*
G01*
X13625000Y-27050000D01*
G75*
G02*
X13850000Y-27275000I0J-225000D01*
G01*
G37*
G36*
G01*
X12150000Y-27275000D02*
X12150000Y-27725000D01*
G75*
G02*
X11925000Y-27950000I-225000J0D01*
G01*
X11375000Y-27950000D01*
G75*
G02*
X11150000Y-27725000I0J225000D01*
G01*
X11150000Y-27275000D01*
G75*
G02*
X11375000Y-27050000I225000J0D01*
G01*
X11925000Y-27050000D01*
G75*
G02*
X12150000Y-27275000I0J-225000D01*
G01*
G37*
G36*
G01*
X5050000Y5175000D02*
X5050000Y5625000D01*
G75*
G02*
X5275000Y5850000I225000J0D01*
G01*
X5825000Y5850000D01*
G75*
G02*
X6050000Y5625000I0J-225000D01*
G01*
X6050000Y5175000D01*
G75*
G02*
X5825000Y4950000I-225000J0D01*
G01*
X5275000Y4950000D01*
G75*
G02*
X5050000Y5175000I0J225000D01*
G01*
G37*
G36*
G01*
X6750000Y5175000D02*
X6750000Y5625000D01*
G75*
G02*
X6975000Y5850000I225000J0D01*
G01*
X7525000Y5850000D01*
G75*
G02*
X7750000Y5625000I0J-225000D01*
G01*
X7750000Y5175000D01*
G75*
G02*
X7525000Y4950000I-225000J0D01*
G01*
X6975000Y4950000D01*
G75*
G02*
X6750000Y5175000I0J225000D01*
G01*
G37*
D12*
G36*
X-8825000Y6750000D02*
G01*
X-8325000Y6750000D01*
X-8325000Y6749398D01*
X-8300466Y6749398D01*
X-8251635Y6744588D01*
X-8203510Y6735016D01*
X-8156555Y6720772D01*
X-8111222Y6701995D01*
X-8067949Y6678864D01*
X-8027150Y6651604D01*
X-7989221Y6620476D01*
X-7954524Y6585779D01*
X-7923396Y6547850D01*
X-7896136Y6507051D01*
X-7873005Y6463778D01*
X-7854228Y6418445D01*
X-7839984Y6371490D01*
X-7830412Y6323365D01*
X-7825602Y6274534D01*
X-7825602Y6250000D01*
X-7825000Y6250000D01*
X-7825000Y5750000D01*
X-7825602Y5750000D01*
X-7825602Y5725466D01*
X-7830412Y5676635D01*
X-7839984Y5628510D01*
X-7854228Y5581555D01*
X-7873005Y5536222D01*
X-7896136Y5492949D01*
X-7923396Y5452150D01*
X-7954524Y5414221D01*
X-7989221Y5379524D01*
X-8027150Y5348396D01*
X-8067949Y5321136D01*
X-8111222Y5298005D01*
X-8156555Y5279228D01*
X-8203510Y5264984D01*
X-8251635Y5255412D01*
X-8300466Y5250602D01*
X-8325000Y5250602D01*
X-8325000Y5250000D01*
X-8825000Y5250000D01*
X-8825000Y6750000D01*
G37*
G36*
X-9675000Y5250602D02*
G01*
X-9699534Y5250602D01*
X-9748365Y5255412D01*
X-9796490Y5264984D01*
X-9843445Y5279228D01*
X-9888778Y5298005D01*
X-9932051Y5321136D01*
X-9972850Y5348396D01*
X-10010779Y5379524D01*
X-10045476Y5414221D01*
X-10076604Y5452150D01*
X-10103864Y5492949D01*
X-10126995Y5536222D01*
X-10145772Y5581555D01*
X-10160016Y5628510D01*
X-10169588Y5676635D01*
X-10174398Y5725466D01*
X-10174398Y5750000D01*
X-10175000Y5750000D01*
X-10175000Y6250000D01*
X-10174398Y6250000D01*
X-10174398Y6274534D01*
X-10169588Y6323365D01*
X-10160016Y6371490D01*
X-10145772Y6418445D01*
X-10126995Y6463778D01*
X-10103864Y6507051D01*
X-10076604Y6547850D01*
X-10045476Y6585779D01*
X-10010779Y6620476D01*
X-9972850Y6651604D01*
X-9932051Y6678864D01*
X-9888778Y6701995D01*
X-9843445Y6720772D01*
X-9796490Y6735016D01*
X-9748365Y6744588D01*
X-9699534Y6749398D01*
X-9675000Y6749398D01*
X-9675000Y6750000D01*
X-9175000Y6750000D01*
X-9175000Y5250000D01*
X-9675000Y5250000D01*
X-9675000Y5250602D01*
G37*
D14*
X-8890000Y0D03*
D15*
X-6350000Y0D03*
X-3810000Y0D03*
X-1270000Y0D03*
X1270000Y0D03*
X3810000Y0D03*
X6350000Y0D03*
X8890000Y0D03*
G36*
G01*
X5050000Y3675000D02*
X5050000Y4125000D01*
G75*
G02*
X5275000Y4350000I225000J0D01*
G01*
X5825000Y4350000D01*
G75*
G02*
X6050000Y4125000I0J-225000D01*
G01*
X6050000Y3675000D01*
G75*
G02*
X5825000Y3450000I-225000J0D01*
G01*
X5275000Y3450000D01*
G75*
G02*
X5050000Y3675000I0J225000D01*
G01*
G37*
G36*
G01*
X6750000Y3675000D02*
X6750000Y4125000D01*
G75*
G02*
X6975000Y4350000I225000J0D01*
G01*
X7525000Y4350000D01*
G75*
G02*
X7750000Y4125000I0J-225000D01*
G01*
X7750000Y3675000D01*
G75*
G02*
X7525000Y3450000I-225000J0D01*
G01*
X6975000Y3450000D01*
G75*
G02*
X6750000Y3675000I0J225000D01*
G01*
G37*
D16*
X7550000Y6900000D03*
D17*
X5850000Y6900000D03*
G36*
G01*
X-3775000Y4650000D02*
X-4225000Y4650000D01*
G75*
G02*
X-4450000Y4875000I0J225000D01*
G01*
X-4450000Y5425000D01*
G75*
G02*
X-4225000Y5650000I225000J0D01*
G01*
X-3775000Y5650000D01*
G75*
G02*
X-3550000Y5425000I0J-225000D01*
G01*
X-3550000Y4875000D01*
G75*
G02*
X-3775000Y4650000I-225000J0D01*
G01*
G37*
G36*
G01*
X-3775000Y6350000D02*
X-4225000Y6350000D01*
G75*
G02*
X-4450000Y6575000I0J225000D01*
G01*
X-4450000Y7125000D01*
G75*
G02*
X-4225000Y7350000I225000J0D01*
G01*
X-3775000Y7350000D01*
G75*
G02*
X-3550000Y7125000I0J-225000D01*
G01*
X-3550000Y6575000D01*
G75*
G02*
X-3775000Y6350000I-225000J0D01*
G01*
G37*
G36*
G01*
X3775000Y7350000D02*
X4225000Y7350000D01*
G75*
G02*
X4450000Y7125000I0J-225000D01*
G01*
X4450000Y6575000D01*
G75*
G02*
X4225000Y6350000I-225000J0D01*
G01*
X3775000Y6350000D01*
G75*
G02*
X3550000Y6575000I0J225000D01*
G01*
X3550000Y7125000D01*
G75*
G02*
X3775000Y7350000I225000J0D01*
G01*
G37*
G36*
G01*
X3775000Y5650000D02*
X4225000Y5650000D01*
G75*
G02*
X4450000Y5425000I0J-225000D01*
G01*
X4450000Y4875000D01*
G75*
G02*
X4225000Y4650000I-225000J0D01*
G01*
X3775000Y4650000D01*
G75*
G02*
X3550000Y4875000I0J225000D01*
G01*
X3550000Y5425000D01*
G75*
G02*
X3775000Y5650000I225000J0D01*
G01*
G37*
G36*
G01*
X-11150000Y225000D02*
X-11150000Y-225000D01*
G75*
G02*
X-11375000Y-450000I-225000J0D01*
G01*
X-11925000Y-450000D01*
G75*
G02*
X-12150000Y-225000I0J225000D01*
G01*
X-12150000Y225000D01*
G75*
G02*
X-11925000Y450000I225000J0D01*
G01*
X-11375000Y450000D01*
G75*
G02*
X-11150000Y225000I0J-225000D01*
G01*
G37*
G36*
G01*
X-12850000Y225000D02*
X-12850000Y-225000D01*
G75*
G02*
X-13075000Y-450000I-225000J0D01*
G01*
X-13625000Y-450000D01*
G75*
G02*
X-13850000Y-225000I0J225000D01*
G01*
X-13850000Y225000D01*
G75*
G02*
X-13625000Y450000I225000J0D01*
G01*
X-13075000Y450000D01*
G75*
G02*
X-12850000Y225000I0J-225000D01*
G01*
G37*
G36*
G01*
X11150000Y-225000D02*
X11150000Y225000D01*
G75*
G02*
X11375000Y450000I225000J0D01*
G01*
X11925000Y450000D01*
G75*
G02*
X12150000Y225000I0J-225000D01*
G01*
X12150000Y-225000D01*
G75*
G02*
X11925000Y-450000I-225000J0D01*
G01*
X11375000Y-450000D01*
G75*
G02*
X11150000Y-225000I0J225000D01*
G01*
G37*
G36*
G01*
X12850000Y-225000D02*
X12850000Y225000D01*
G75*
G02*
X13075000Y450000I225000J0D01*
G01*
X13625000Y450000D01*
G75*
G02*
X13850000Y225000I0J-225000D01*
G01*
X13850000Y-225000D01*
G75*
G02*
X13625000Y-450000I-225000J0D01*
G01*
X13075000Y-450000D01*
G75*
G02*
X12850000Y-225000I0J225000D01*
G01*
G37*
M02*
